<svg width="545" height="39" viewBox="0 0 545 39" xmlns="http://www.w3.org/2000/svg" xmlns:sketch="http://www.bohemiancoding.com/sketch/ns"><title>Imported Layers</title><desc>Created with Sketch.</desc><g sketch:type="MSLayerGroup" fill="#fff"><path d="M.746 6.627c0-3.12 2.509-5.681 5.634-5.681h21.757l-1.507 8.077h-16.623v5.793l14.169 1.449c2.678 0 5.579 2.283 5.579 5.458v10.806c0 3.12-2.51 5.681-5.634 5.681h-22.258l1.507-8.021h17.181v-5.849l-14.393-1.449c-.501 0-5.411-.501-5.411-5.569v-10.695" sketch:type="MSShapeGroup"/><path d="M63.383 6.627v25.901c0 3.12-2.567 5.681-5.69 5.681h-17.684c-3.123 0-5.688-2.561-5.688-5.681v-25.901c0-3.12 2.565-5.681 5.688-5.681h17.684c3.123 0 5.69 2.561 5.69 5.681zm-19.748 23.561h10.543v-21.111h-10.543v21.111zM97.124.89v37.319h-23.373c-3.123 0-5.635-2.561-5.635-5.681v-31.637h9.205v29.187h10.543v-29.187h9.26M128.846 9.022h-9.26v29.187h-9.205v-29.187h-9.595l1.451-8.077h28.058l-1.45 8.077M163.043.89v37.319h-9.258v-14.65h-10.545v14.65h-9.205v-37.319h9.205v14.647h10.545v-14.647h9.258" sketch:type="MSShapeGroup"/><path d="M209.844 6.572v13.422c0 3.12-2.512 5.627-5.635 5.627h-14.058v12.588h-9.205v-29.243h-2.398l1.451-8.021h24.209c3.123 0 5.635 2.507 5.635 5.627zm-19.749 11.083h10.543v-8.633h-10.543v8.633zM243.467 38.209h-9.148l-1.395-5.514h-11.436l-1.338 5.514h-9.092l7.643-29.243h-2.288l1.45-8.076h15.732l9.874 37.319zm-12.551-13.591l-3.683-14.873-3.737 14.873h7.42zM255.978 30.188h18.966l-1.453 8.021h-21.141c-3.123 0-5.69-2.561-5.69-5.681v-25.901c0-3.12 2.567-5.681 5.69-5.681h22.537l-1.506 8.132h-17.404v21.111" sketch:type="MSShapeGroup"/><path d="M279.107.89h9.203v37.319h-9.203v-37.319zM302.318 8.966v6.572h15.843l-1.116 8.021h-14.727v14.65h-9.205l-.055-37.319h27.613l-1.507 8.076h-16.846" sketch:type="MSShapeGroup"/><path d="M324.728.89h9.203v37.319h-9.203v-37.319zM347.94 30.188h18.966l-1.451 8.021h-21.141c-3.125 0-5.69-2.561-5.69-5.681v-25.901c0-3.12 2.565-5.681 5.69-5.681h22.536l-1.506 8.132h-17.404v21.111" sketch:type="MSShapeGroup"/><path d="M411.752 6.627v25.901c0 3.12-2.567 5.681-5.69 5.681h-17.683c-3.125 0-5.691-2.561-5.691-5.681v-25.901c0-3.12 2.567-5.681 5.691-5.681h17.683c3.123 0 5.69 2.561 5.69 5.681zm-19.748 23.561h10.543v-21.111h-10.543v21.111zM425.666 30.188h18.966l-1.45 8.021h-21.143c-3.123 0-5.69-2.561-5.69-5.681v-25.901c0-3.12 2.567-5.681 5.69-5.681h22.537l-1.507 8.132h-17.404v21.111M458.085 30.077h18.353l-1.451 8.132h-26.107v-37.319h27.669l-1.562 8.076h-16.902v6.572h15.843l-1.116 8.021h-14.727v6.519" sketch:type="MSShapeGroup"/><path d="M511.574 38.209h-9.148l-1.395-5.514h-11.435l-1.34 5.514h-9.094l7.644-29.243h-2.288l1.451-8.076h15.73l9.874 37.319zm-12.552-13.591l-3.68-14.873-3.739 14.873h7.418zM544.589.89v37.319h-9.205l-10.543-18.437v18.437h-9.203v-29.298h-2.344l1.453-8.077 10.208.056 10.43 18.547v-18.547h9.205" sketch:type="MSShapeGroup"/></g></svg>