<svg width="491" height="39" viewBox="0 0 491 39" xmlns="http://www.w3.org/2000/svg" xmlns:sketch="http://www.bohemiancoding.com/sketch/ns"><title>Imported Layers</title><desc>Created with Sketch.</desc><g sketch:type="MSLayerGroup" fill="#fff"><path d="M31.981.892v37.319h-9.194l-10.529-18.436v18.436h-9.192v-29.298h-2.341l1.449-8.076 10.196.055 10.418 18.548v-18.548h9.194" sketch:type="MSShapeGroup"/><path d="M65.698 6.63v25.899c0 3.12-2.562 5.681-5.683 5.681h-17.662c-3.119 0-5.685-2.561-5.685-5.681v-25.899c0-3.12 2.565-5.681 5.685-5.681h17.662c3.121 0 5.683 2.561 5.683 5.681zm-19.723 23.56h10.531v-21.11h-10.531v21.11zM82.807 25.733h-1.672v12.477h-9.192v-29.241h-2.396l1.448-8.077h24.182c3.119 0 5.627 2.561 5.627 5.681v13.479c0 3.12-2.507 5.681-5.627 5.681h-2.34l8.079 12.477h-10.03l-8.079-12.477zm-1.726-8.021h10.531v-8.689h-10.531v8.689zM132.486 9.024h-9.249v29.187h-9.192v-29.187h-9.584l1.448-8.076h28.026l-1.449 8.076M166.644.892v37.319h-9.25v-14.649h-10.529v14.649h-9.192v-37.319h9.192v14.649h10.529v-14.649h9.25M180.927 30.079h18.331l-1.449 8.132h-26.076v-37.319h27.635l-1.559 8.077h-16.882v6.572h15.824l-1.114 8.021h-14.71v6.517" sketch:type="MSShapeGroup"/><path d="M234.352 38.21h-9.138l-1.394-5.513h-11.421l-1.337 5.513h-9.083l7.635-29.241h-2.287l1.451-8.077h15.711l9.862 37.319zm-12.537-13.591l-3.677-14.871-3.733 14.871h7.41zM237.43 6.63c0-3.12 2.506-5.681 5.627-5.681h21.731l-1.506 8.076h-16.604v5.793l14.152 1.449c2.675 0 5.572 2.284 5.572 5.458v10.806c0 3.12-2.507 5.681-5.627 5.681h-22.232l1.506-8.021h17.161v-5.847l-14.378-1.449c-.499 0-5.403-.501-5.403-5.569v-10.695M296.606 9.024h-9.25v29.187h-9.194v-29.187h-9.584l1.451-8.076h28.025l-1.448 8.076" sketch:type="MSShapeGroup"/><path d="M343.46 38.21h-9.138l-1.393-5.513h-11.423l-1.337 5.513h-9.081l7.632-29.241h-2.284l1.448-8.077h15.713l9.862 37.319zm-12.536-13.591l-3.68-14.871-3.731 14.871h7.411zM356.443 8.969v6.572h15.824l-1.114 8.021h-14.71v14.649h-9.192l-.056-37.319h27.58l-1.504 8.077h-16.827" sketch:type="MSShapeGroup"/><path d="M390.545 25.733h-1.672v12.477h-9.194v-29.241h-2.395l1.448-8.077h24.182c3.119 0 5.628 2.561 5.628 5.681v13.479c0 3.12-2.509 5.681-5.628 5.681h-2.34l8.078 12.477h-10.03l-8.078-12.477zm-1.728-8.021h10.531v-8.689h-10.531v8.689zM413.299.892h9.192v37.319h-9.192v-37.319zM436.479 30.19h18.943l-1.446 8.021h-21.117c-3.121 0-5.683-2.561-5.683-5.681v-25.899c0-3.12 2.562-5.681 5.683-5.681h22.509l-1.504 8.132h-17.384v21.11" sketch:type="MSShapeGroup"/><path d="M490.328 38.21h-9.138l-1.393-5.513h-11.421l-1.338 5.513h-9.081l7.633-29.241h-2.285l1.449-8.077h15.711l9.862 37.319zm-12.537-13.591l-3.675-14.871-3.734 14.871h7.41z" sketch:type="MSShapeGroup"/></g></svg>