<svg width="709" height="40" viewBox="0 0 709 40" xmlns="http://www.w3.org/2000/svg" xmlns:sketch="http://www.bohemiancoding.com/sketch/ns"><title>Imported Layers</title><desc>Created with Sketch.</desc><g sketch:type="MSLayerGroup" fill="#fff"><path d="M13.15 23.712h-1.558v11.617h-8.57v-27.225h-2.232l1.35-7.52h22.54c2.908 0 5.246 2.385 5.246 5.29v12.549c0 2.905-2.339 5.29-5.246 5.29h-2.181l7.53 11.617h-9.349l-7.53-11.617zm-1.611-7.468h9.816v-8.09h-9.816v8.09zM61.239 5.926v24.113c0 2.905-2.39 5.29-5.299 5.29h-16.463c-2.908 0-5.297-2.385-5.297-5.29v-24.113c0-2.905 2.39-5.29 5.297-5.29h16.463c2.909 0 5.299 2.385 5.299 5.29zm-18.385 21.935h9.816v-19.654h-9.816v19.654zM74.195 27.861h17.659l-1.352 7.468h-19.682c-2.908 0-5.297-2.385-5.297-5.29v-24.113c0-2.905 2.39-5.29 5.297-5.29h20.982l-1.402 7.571h-16.204v19.654M123.207 35.328h-10.024l-8.101-13.637h-.832v13.637h-8.568v-34.745h8.568v13.586h.884l8.049-13.586h10.024l-10.958 17.321 10.958 17.423M144.368 23.505v11.823h-8.568v-11.978l-10.075-22.767h9.817l4.569 11.72 4.778-11.72h9.867l-10.388 22.921M200.974.583v34.745h-8.622v-15.557l-7.114 13.588h-.105l-7.219-13.794v15.764h-8.57v-27.225h-2.232l1.402-7.52h9.4l7.271 13.794 7.115-13.794h8.673" sketch:type="MSShapeGroup"/><path d="M232.453 5.926v24.113c0 2.905-2.39 5.29-5.297 5.29h-16.463c-2.909 0-5.299-2.385-5.299-5.29v-24.113c0-2.905 2.39-5.29 5.299-5.29h16.463c2.908 0 5.297 2.385 5.297 5.29zm-18.385 21.935h9.816v-19.654h-9.816v19.654zM263.866.583v34.745h-21.761c-2.908 0-5.245-2.385-5.245-5.29v-29.455h8.568v27.174h9.817v-27.174h8.621M296.511.583v34.745h-8.57l-9.816-17.164v17.164h-8.57v-27.277h-2.18l1.348-7.519 9.505.051 9.712 17.269v-17.269h8.57M326.115 8.154h-8.621v27.174h-8.568v-27.174h-8.933l1.35-7.519h26.124l-1.351 7.519" sketch:type="MSShapeGroup"/><path d="M356.982 35.328h-8.517l-1.298-5.132h-10.647l-1.246 5.132h-8.466l7.117-27.225h-2.13l1.351-7.52h14.645l9.193 34.745zm-11.686-12.654l-3.427-13.846-3.48 13.846h6.907zM360.589.583h8.57v34.745h-8.57v-34.745zM401.897.583v34.745h-8.57l-9.816-17.164v17.164h-8.568v-27.277h-2.182l1.351-7.519 9.504.051 9.712 17.269v-17.269h8.57M406.153 5.926c0-2.905 2.336-5.29 5.245-5.29h20.256l-1.403 7.519h-15.476v5.393l13.192 1.349c2.492 0 5.192 2.127 5.192 5.081v10.061c0 2.905-2.336 5.29-5.245 5.29h-20.721l1.402-7.468h15.996v-5.444l-13.4-1.349c-.467 0-5.036-.468-5.036-5.185v-9.957M447.064 28.588l-3.841 10.683h-7.427l2.649-10.683h8.619M470.9 27.861h17.657l-1.35 7.468h-19.684c-2.908 0-5.297-2.385-5.297-5.29v-24.113c0-2.905 2.39-5.29 5.297-5.29h20.982l-1.403 7.571h-16.203v19.654" sketch:type="MSShapeGroup"/><path d="M519.372 5.926v24.113c0 2.905-2.388 5.29-5.296 5.29h-16.464c-2.909 0-5.296-2.385-5.296-5.29v-24.113c0-2.905 2.387-5.29 5.296-5.29h16.464c2.908 0 5.296 2.385 5.296 5.29zm-18.384 21.935h9.816v-19.654h-9.816v19.654zM548.059 35.328h-24.253l-.052-34.745h8.571v27.174h17.087l-1.352 7.571" sketch:type="MSShapeGroup"/><path d="M580.127 5.926v24.113c0 2.905-2.388 5.29-5.297 5.29h-16.464c-2.908 0-5.296-2.385-5.296-5.29v-24.113c0-2.905 2.388-5.29 5.296-5.29h16.464c2.909 0 5.297 2.385 5.297 5.29zm-18.385 21.935h9.817v-19.654h-9.817v19.654zM596.074 23.712h-1.558v11.617h-8.57v-27.225h-2.232l1.35-7.52h22.54c2.908 0 5.245 2.385 5.245 5.29v12.549c0 2.905-2.337 5.29-5.245 5.29h-2.182l7.531 11.617h-9.349l-7.53-11.617zm-1.611-7.468h9.816v-8.09h-9.816v8.09zM646.535 35.328h-8.517l-1.297-5.132h-10.647l-1.247 5.132h-8.465l7.115-27.225h-2.129l1.348-7.52h14.648l9.191 34.745zm-11.685-12.654l-3.428-13.846-3.48 13.846h6.908zM677.402 5.873v24.114c0 2.956-2.337 5.341-5.245 5.341h-21.812v-27.277h-2.234l1.351-7.415h22.695c2.908 0 5.245 2.332 5.245 5.237zm-18.489 21.884h9.868v-19.706h-9.868v19.706zM708.743 5.926v24.113c0 2.905-2.388 5.29-5.297 5.29h-16.464c-2.908 0-5.296-2.385-5.296-5.29v-24.113c0-2.905 2.388-5.29 5.296-5.29h16.464c2.909 0 5.297 2.385 5.297 5.29zm-18.384 21.935h9.817v-19.654h-9.817v19.654z" sketch:type="MSShapeGroup"/></g></svg>