<svg width="430" height="40" viewBox="0 0 430 40" xmlns="http://www.w3.org/2000/svg" xmlns:sketch="http://www.bohemiancoding.com/sketch/ns"><title>Imported Layers</title><desc>Created with Sketch.</desc><g sketch:type="MSLayerGroup" fill="#fff"><path d="M30.533 35.643h-8.525l-1.3-5.134h-10.657l-1.247 5.134h-8.473l7.122-27.225h-2.131l1.349-7.52h14.661l9.2 34.745zm-11.696-12.654l-3.433-13.846-3.481 13.846h6.915zM58.372 35.643h-24.276l-.053-34.745h8.578v27.174h17.103l-1.352 7.571" sketch:type="MSShapeGroup"/><path d="M85.284 18.272v.207c1.3.312 5.301 1.607 5.301 5.756v6.119c0 2.905-2.391 5.29-5.301 5.29h-21.573l-.105-27.174h-2.182l1.349-7.519h22.511c2.91 0 5.301 2.385 5.301 5.29v6.43c0 3.888-4.001 5.29-5.301 5.601zm-13.1-3.734h9.772v-6.015h-9.772v6.015zm0 13.637h9.772v-6.119h-9.772v6.119zM103.62 28.072h17.102l-1.349 7.571h-24.329v-34.745h25.785l-1.456 7.52h-15.752v6.12h14.764l-1.04 7.468h-13.724v6.066" sketch:type="MSShapeGroup"/><path d="M135.764 24.026h-1.56v11.617h-8.578v-27.225h-2.234l1.352-7.52h22.56c2.912 0 5.251 2.385 5.251 5.29v12.549c0 2.905-2.339 5.29-5.251 5.29h-2.183l7.537 11.617h-9.358l-7.537-11.617zm-1.612-7.468h9.825v-8.09h-9.825v8.09zM182.117 8.469h-8.63v27.174h-8.576v-27.174h-8.94l1.349-7.519h26.148l-1.351 7.519" sketch:type="MSShapeGroup"/><path d="M213.012 35.643h-8.525l-1.3-5.134h-10.656l-1.247 5.134h-8.474l7.122-27.225h-2.132l1.354-7.52h14.657l9.201 34.745zm-11.697-12.654l-3.429-13.846-3.483 13.846h6.912zM226.678 28.902l-3.848 10.683h-7.433l2.651-10.683h8.63M250.537 28.175h17.674l-1.352 7.468h-19.701c-2.912 0-5.302-2.385-5.302-5.29v-24.113c0-2.905 2.391-5.29 5.302-5.29h21.001l-1.402 7.571h-16.22v19.654" sketch:type="MSShapeGroup"/><path d="M300.775 35.643h-8.525l-1.3-5.134h-10.656l-1.249 5.134h-8.474l7.123-27.225h-2.132l1.352-7.52h14.659l9.201 34.745zm-11.697-12.654l-3.429-13.846-3.484 13.846h6.913zM331.542.898v34.745h-8.576l-9.826-17.164v17.164h-8.578v-27.277h-2.182l1.351-7.519 9.514.051 9.721 17.269v-17.269h8.576" sketch:type="MSShapeGroup"/><path d="M365.282 35.643h-8.525l-1.298-5.134h-10.657l-1.249 5.134h-8.473l7.122-27.225h-2.131l1.349-7.52h14.661l9.2 34.745zm-11.696-12.654l-3.432-13.846-3.483 13.846h6.915zM396.178 6.188v24.114c0 2.956-2.339 5.341-5.25 5.341h-21.833v-27.277h-2.236l1.352-7.415h22.717c2.91 0 5.25 2.332 5.25 5.237zm-18.507 21.884h9.878v-19.706h-9.878v19.706zM429.357 35.643h-8.525l-1.3-5.134h-10.657l-1.247 5.134h-8.474l7.123-27.225h-2.132l1.352-7.52h14.659l9.201 34.745zm-11.697-12.654l-3.429-13.846-3.484 13.846h6.913z" sketch:type="MSShapeGroup"/></g></svg>