<svg width="640" height="40" viewBox="0 0 640 40" xmlns="http://www.w3.org/2000/svg" xmlns:sketch="http://www.bohemiancoding.com/sketch/ns"><title>Imported Layers</title><desc>Created with Sketch.</desc><g sketch:type="MSLayerGroup" fill="#fff"><path d="M.502 6.612c0-3.24 2.603-5.9 5.842-5.9h22.56l-1.562 8.388h-17.237v6.015l14.691 1.505c2.777 0 5.785 2.371 5.785 5.668v11.222c0 3.24-2.602 5.9-5.842 5.9h-23.08l1.563-8.329h17.815v-6.074l-14.925-1.505c-.52 0-5.611-.52-5.611-5.783v-11.106" sketch:type="MSShapeGroup"/><path d="M65.451 6.612v26.897c0 3.24-2.658 5.9-5.898 5.9h-18.338c-3.238 0-5.898-2.66-5.898-5.9v-26.897c0-3.24 2.66-5.9 5.898-5.9h18.338c3.24 0 5.898 2.66 5.898 5.9zm-20.474 24.468h10.931v-21.923h-10.931v21.923zM107.16.655v38.754h-9.603v-17.352l-7.923 15.154h-.117l-8.038-15.385v17.583h-9.546v-30.368h-2.485l1.558-8.386h10.472l8.098 15.386 7.923-15.386h9.66M121.878 30.965h19.029l-1.506 8.445h-27.069v-38.754h28.689l-1.62 8.386h-17.523v6.825h16.428l-1.157 8.329h-15.271v6.769M181.563.655l-4.745 38.754h-8.732l-4.975-12.378-5.148 12.32v.058h-8.735l-4.742-38.754h9.486l2.428 17.525 6.652-15.328h.115l6.538 14.982 2.371-17.178h9.486M215.715.655v38.754h-9.603v-15.214h-10.932v15.214h-9.543v-38.754h9.543v15.211h10.932v-15.211h9.603M230.545 30.965h19.029l-1.506 8.445h-27.071v-38.754h28.691l-1.62 8.386h-17.523v6.825h16.426l-1.157 8.329h-15.269v6.769" sketch:type="MSShapeGroup"/><path d="M266.311 26.452h-1.734v12.957h-9.546v-30.368h-2.486l1.503-8.386h25.105c3.24 0 5.842 2.66 5.842 5.9v13.997c0 3.24-2.602 5.9-5.842 5.9h-2.431l8.386 12.957h-10.411l-8.386-12.957zm-1.794-8.329h10.934v-9.023h-10.934v9.023zM299.562 30.965h19.029l-1.505 8.445h-27.071v-38.754h28.689l-1.618 8.386h-17.525v6.825h16.428l-1.157 8.329h-15.271v6.769" sketch:type="MSShapeGroup"/><path d="M335.652.655h9.543v38.754h-9.543v-38.754zM381.658.655v38.754h-9.546l-10.931-19.146v19.146h-9.543v-30.425h-2.432l1.506-8.388 10.586.058 10.814 19.26v-19.26h9.546M409.303 30.965h19.029l-1.505 8.445h-27.071v-38.754h28.689l-1.618 8.386h-17.525v6.825h16.428l-1.157 8.329h-15.271v6.769M463.76.655v38.754h-9.548l-10.931-19.146v19.146h-9.543v-30.425h-2.431l1.505-8.388 10.586.058 10.814 19.26v-19.26h9.548M498.82 39.409h-24.237c-3.24 0-5.898-2.66-5.898-5.9v-26.897c0-3.24 2.658-5.9 5.898-5.9h22.617l-1.563 8.329h-17.292v21.98h10.874v-6.883h-6.189l1.563-8.388h14.228v23.658M530.683 39.409h-27.014l-.057-38.754h9.543v30.309h19.029l-1.502 8.445" sketch:type="MSShapeGroup"/><path d="M568.311 39.409h-9.485l-1.446-5.726h-11.857l-1.388 5.726h-9.429l7.923-30.368h-2.371l1.503-8.386h16.312l10.237 38.754zm-13.014-14.114l-3.818-15.445-3.874 15.445h7.692zM602.548.655v38.754h-9.546l-10.931-19.146v19.146h-9.543v-30.425h-2.431l1.505-8.388 10.586.058 10.814 19.26v-19.26h9.546" sketch:type="MSShapeGroup"/><path d="M639.162 6.555v26.895c0 3.298-2.602 5.958-5.842 5.958h-24.294v-30.425h-2.488l1.506-8.272h25.275c3.24 0 5.842 2.603 5.842 5.843zm-20.592 24.409h10.992v-21.98h-10.992v21.98z" sketch:type="MSShapeGroup"/></g></svg>