<svg width="642" height="40" viewBox="0 0 642 40" xmlns="http://www.w3.org/2000/svg" xmlns:sketch="http://www.bohemiancoding.com/sketch/ns"><title>Imported Layers</title><desc>Created with Sketch.</desc><g sketch:type="MSLayerGroup" fill="#fff"><path d="M26.645 8.159h-8.617v27.174h-8.566v-27.174h-8.929l1.352-7.52h26.109l-1.35 7.52" sketch:type="MSShapeGroup"/><path d="M42.392 23.716h-1.557v11.617h-8.564v-27.226h-2.233l1.35-7.519h22.528c2.908 0 5.242 2.385 5.242 5.29v12.549c0 2.905-2.335 5.29-5.242 5.29h-2.18l7.527 11.617h-9.343l-7.529-11.617zm-1.608-7.468h9.811v-8.09h-9.811v8.09zM92.829 35.332h-8.513l-1.299-5.134h-10.641l-1.245 5.134h-8.462l7.112-27.226h-2.129l1.352-7.519h14.636l9.19 34.745zm-11.68-12.654l-3.425-13.847-3.478 13.847h6.903zM123.553.588v34.745h-8.566l-9.811-17.166v17.166h-8.566v-27.277h-2.179l1.348-7.52 9.5.052 9.707 17.268v-17.268h8.566M127.807 5.928c0-2.905 2.336-5.29 5.244-5.29h20.243l-1.401 7.52h-15.469v5.393l13.185 1.349c2.491 0 5.19 2.126 5.19 5.081v10.061c0 2.905-2.336 5.29-5.242 5.29h-20.711l1.4-7.468h15.988v-5.446l-13.391-1.349c-.468 0-5.035-.466-5.035-5.185v-9.957" sketch:type="MSShapeGroup"/><path d="M159.172.588h8.564v34.745h-8.564v-34.745zM201.446 35.332h-8.513l-1.298-5.134h-10.642l-1.245 5.134h-8.461l7.11-27.226h-2.128l1.349-7.519h14.639l9.188 34.745zm-11.68-12.654l-3.427-13.847-3.476 13.847h6.903zM215.09 28.59l-3.842 10.684h-7.422l2.647-10.684h8.618M239.277 27.761h17.079l-1.35 7.571h-24.294v-34.745h25.746l-1.452 7.519h-15.728v6.119h14.743l-1.038 7.468h-13.704v6.069" sketch:type="MSShapeGroup"/><path d="M289.051 35.332h-8.513l-1.299-5.134h-10.641l-1.245 5.134h-8.462l7.112-27.226h-2.129l1.352-7.519h14.636l9.19 34.745zm-11.68-12.654l-3.425-13.847-3.478 13.847h6.903zM291.919 5.928c0-2.905 2.335-5.29 5.242-5.29h20.246l-1.403 7.52h-15.469v5.393l13.185 1.349c2.492 0 5.191 2.126 5.191 5.081v10.061c0 2.905-2.336 5.29-5.242 5.29h-20.712l1.401-7.468h15.989v-5.446l-13.395-1.349c-.467 0-5.034-.466-5.034-5.185v-9.957M347.049 8.159h-8.618v27.174h-8.564v-27.174h-8.929l1.349-7.52h26.111l-1.349 7.52M360.497 27.761h17.079l-1.352 7.571h-24.292v-34.745h25.746l-1.454 7.519h-15.727v6.119h14.741l-1.037 7.468h-13.704v6.069" sketch:type="MSShapeGroup"/><path d="M392.594 23.716h-1.557v11.617h-8.564v-27.226h-2.234l1.35-7.519h22.528c2.908 0 5.242 2.385 5.242 5.29v12.549c0 2.905-2.335 5.29-5.242 5.29h-2.18l7.527 11.617h-9.343l-7.527-11.617zm-1.608-7.468h9.809v-8.09h-9.809v8.09zM441.993.588v34.745h-8.564l-9.811-17.166v17.166h-8.567v-27.277h-2.179l1.349-7.52 9.5.052 9.707 17.268v-17.268h8.564M466.802 27.761h17.077l-1.349 7.571h-24.292v-34.745h25.746l-1.454 7.519h-15.728v6.119h14.743l-1.038 7.468h-13.704v6.069M514.929.588v34.745h-21.749c-2.906 0-5.244-2.385-5.244-5.29v-29.455h8.567v27.174h9.809v-27.174h8.617" sketch:type="MSShapeGroup"/><path d="M530.817 23.716h-1.557v11.617h-8.564v-27.226h-2.233l1.349-7.519h22.529c2.906 0 5.241 2.385 5.241 5.29v12.549c0 2.905-2.335 5.29-5.241 5.29h-2.18l7.527 11.617h-9.344l-7.527-11.617zm-1.608-7.468h9.811v-8.09h-9.811v8.09zM578.881 5.928v24.114c0 2.905-2.387 5.29-5.293 5.29h-16.456c-2.908 0-5.295-2.385-5.295-5.29v-24.114c0-2.905 2.387-5.29 5.295-5.29h16.456c2.906 0 5.293 2.385 5.293 5.29zm-18.375 21.937h9.812v-19.655h-9.812v19.655zM611.484 5.877v12.497c0 2.905-2.337 5.239-5.244 5.239h-13.082v11.72h-8.566v-27.226h-2.231l1.349-7.468h22.529c2.906 0 5.244 2.334 5.244 5.239zm-18.378 10.319h9.811v-8.037h-9.811v8.037zM624.251 27.761h17.079l-1.35 7.571h-24.294v-34.745h25.746l-1.452 7.519h-15.728v6.119h14.743l-1.038 7.468h-13.704v6.069" sketch:type="MSShapeGroup"/></g></svg>