<svg width="613" height="40" viewBox="0 0 613 40" xmlns="http://www.w3.org/2000/svg" xmlns:sketch="http://www.bohemiancoding.com/sketch/ns"><title>Imported Layers</title><desc>Created with Sketch.</desc><g sketch:type="MSLayerGroup" fill="#fff"><path d="M29.529.768v34.746h-8.56l-9.803-17.167v17.167h-8.559v-27.279h-2.18l1.349-7.52 9.493.052 9.7 17.269v-17.269h8.56M42.678 27.942h17.068l-1.351 7.572h-24.277v-34.746h25.73l-1.453 7.519h-15.717v6.12h14.733l-1.039 7.468h-13.694v6.068M96.208.768l-4.255 34.746h-7.833l-4.462-11.098-4.615 11.044v.054h-7.834l-4.254-34.746h8.508l2.179 15.713 5.966-13.742h.103l5.863 13.43 2.128-15.401h8.508M127.018 23.69v11.825h-8.56v-11.981l-10.064-22.766h9.803l4.566 11.72 4.773-11.72h9.857l-10.375 22.921" sketch:type="MSShapeGroup"/><path d="M167.042 6.109v24.114c0 2.905-2.387 5.291-5.293 5.291h-16.444c-2.906 0-5.29-2.386-5.29-5.291v-24.114c0-2.903 2.384-5.29 5.29-5.29h16.444c2.906 0 5.293 2.386 5.293 5.29zm-18.365 21.937h9.805v-19.655h-9.805v19.655zM182.971 23.898h-1.555v11.617h-8.562v-27.228h-2.23l1.349-7.519h22.514c2.906 0 5.24 2.386 5.24 5.29v12.55c0 2.903-2.335 5.29-5.24 5.29h-2.179l7.521 11.617h-9.337l-7.523-11.617zm-1.609-7.468h9.805v-8.09h-9.805v8.09zM231.601 35.514h-10.012l-8.092-13.64h-.831v13.64h-8.559v-34.746h8.559v13.588h.882l8.041-13.588h10.012l-10.944 17.321 10.944 17.425M245.19 28.772l-3.837 10.683h-7.419l2.646-10.683h8.61M287.52.768v34.746h-21.736c-2.906 0-5.24-2.386-5.24-5.291v-29.455h8.56v27.174h9.805v-27.174h8.611M320.127.768v34.746h-8.559l-9.806-17.167v17.167h-8.56v-27.279h-2.177l1.347-7.52 9.494.052 9.703 17.269v-17.269h8.559" sketch:type="MSShapeGroup"/><path d="M324.627.768h8.559v34.746h-8.559v-34.746zM362.782 8.339h-8.611v27.175h-8.562v-27.175h-8.922l1.349-7.52h26.093l-1.348 7.52M376.219 27.942h17.068l-1.349 7.572h-24.279v-34.746h25.73l-1.452 7.519h-15.718v6.12h14.733l-1.038 7.468h-13.696v6.068" sketch:type="MSShapeGroup"/><path d="M425.183 6.058v24.113c0 2.957-2.335 5.343-5.239 5.343h-21.788v-27.279h-2.231l1.348-7.417h22.671c2.904 0 5.239 2.335 5.239 5.239zm-18.467 21.884h9.856v-19.706h-9.856v19.706zM440.691 6.109c0-2.903 2.333-5.29 5.239-5.29h20.233l-1.402 7.52h-15.459v5.393l13.177 1.349c2.489 0 5.188 2.126 5.188 5.083v10.059c0 2.905-2.335 5.291-5.239 5.291h-20.699l1.4-7.469h15.978v-5.446l-13.385-1.348c-.466 0-5.031-.466-5.031-5.186v-9.957M495.785 8.339h-8.611v27.175h-8.559v-27.175h-8.923l1.348-7.52h26.094l-1.349 7.52" sketch:type="MSShapeGroup"/><path d="M526.619 35.514h-8.508l-1.296-5.135h-10.637l-1.245 5.135h-8.455l7.107-27.228h-2.126l1.347-7.519h14.631l9.181 34.746zm-11.672-12.654l-3.425-13.847-3.476 13.847h6.9zM551.699 8.339h-8.611v27.175h-8.56v-27.175h-8.922l1.347-7.52h26.094l-1.348 7.52M565.138 27.942h17.068l-1.349 7.572h-24.279v-34.746h25.73l-1.452 7.519h-15.718v6.12h14.733l-1.038 7.468h-13.696v6.068M585.73 6.109c0-2.903 2.335-5.29 5.24-5.29h20.23l-1.4 7.52h-15.459v5.393l13.177 1.349c2.49 0 5.188 2.126 5.188 5.083v10.059c0 2.905-2.336 5.291-5.24 5.291h-20.698l1.4-7.469h15.978v-5.446l-13.384-1.348c-.468 0-5.032-.466-5.032-5.186v-9.957" sketch:type="MSShapeGroup"/></g></svg>