<svg width="322" height="40" viewBox="0 0 322 40" xmlns="http://www.w3.org/2000/svg" xmlns:sketch="http://www.bohemiancoding.com/sketch/ns"><title>Imported Layers</title><desc>Created with Sketch.</desc><g sketch:type="MSLayerGroup" fill="#fff"><path d="M34.301 39.409h-9.513l-1.449-5.726h-11.892l-1.393 5.726h-9.455l7.947-30.368h-2.378l1.506-8.386h16.36l10.266 38.754zm-13.051-14.114l-3.829-15.445-3.886 15.445h7.716zM68.633.655v38.754h-9.57l-10.965-19.146v19.146h-9.572v-30.425h-2.435l1.507-8.388 10.616.058 10.848 19.26v-19.26h9.57M101.701 9.1h-9.631v30.309h-9.57v-30.309h-9.976l1.506-8.388h29.179l-1.507 8.388" sketch:type="MSShapeGroup"/><path d="M136.177 39.409h-9.513l-1.449-5.726h-11.892l-1.392 5.726h-9.455l7.946-30.368h-2.378l1.507-8.386h16.359l10.266 38.754zm-13.051-14.114l-3.829-15.445-3.886 15.445h7.716zM151.774 26.452h-1.74v12.957h-9.57v-30.368h-2.496l1.509-8.386h25.175c3.249 0 5.858 2.66 5.858 5.9v13.997c0 3.24-2.609 5.9-5.858 5.9h-2.436l8.413 12.957h-10.442l-8.412-12.957zm-1.797-8.329h10.964v-9.023h-10.964v9.023zM184.922 31.08h19.722l-1.509 8.329h-21.984c-3.249 0-5.917-2.66-5.917-5.9v-26.897c0-3.24 2.668-5.9 5.917-5.9h23.434l-1.564 8.445h-18.099v21.923M236.378 9.1h-9.629v30.309h-9.572v-30.309h-9.978l1.507-8.388h29.179l-1.507 8.388" sketch:type="MSShapeGroup"/><path d="M241.746.655h9.57v38.754h-9.57v-38.754zM265.881 31.08h19.722l-1.507 8.329h-21.986c-3.248 0-5.917-2.66-5.917-5.9v-26.897c0-3.24 2.669-5.9 5.917-5.9h23.436l-1.568 8.445h-18.098v21.923" sketch:type="MSShapeGroup"/><path d="M321.944 39.409h-9.513l-1.452-5.726h-11.891l-1.392 5.726h-9.456l7.947-30.368h-2.379l1.51-8.386h16.356l10.269 38.754zm-13.053-14.114l-3.828-15.445-3.886 15.445h7.714z" sketch:type="MSShapeGroup"/></g></svg>