<svg width="439" height="40" viewBox="0 0 439 40" xmlns="http://www.w3.org/2000/svg" xmlns:sketch="http://www.bohemiancoding.com/sketch/ns"><title>Imported Layers</title><desc>Created with Sketch.</desc><g sketch:type="MSLayerGroup" fill="#fff"><path d="M34.713.586v34.745h-8.635v-15.557l-7.126 13.588h-.107l-7.23-13.796v15.766h-8.584v-27.226h-2.237l1.404-7.519h9.417l7.282 13.794 7.129-13.794h8.687" sketch:type="MSShapeGroup"/><path d="M68.53 35.331h-8.532l-1.301-5.134h-10.665l-1.248 5.134h-8.479l7.126-27.226h-2.132l1.352-7.519h14.671l9.208 34.745zm-11.704-12.654l-3.436-13.847-3.484 13.847h6.92zM96.389 35.331h-24.293l-.053-34.745h8.584v27.174h17.116l-1.355 7.571" sketch:type="MSShapeGroup"/><path d="M128.835 5.876v24.113c0 2.957-2.343 5.342-5.255 5.342h-21.849v-27.277h-2.237l1.352-7.417h22.735c2.913 0 5.255 2.334 5.255 5.239zm-18.52 21.884h9.883v-19.706h-9.883v19.706zM160.226 5.927v24.114c0 2.905-2.392 5.29-5.306 5.29h-16.492c-2.913 0-5.305-2.385-5.305-5.29v-24.114c0-2.905 2.392-5.29 5.305-5.29h16.492c2.914 0 5.306 2.385 5.306 5.29zm-18.415 21.937h9.832v-19.655h-9.832v19.655zM192.977.586v34.745h-8.583l-9.834-17.166v17.166h-8.584v-27.277h-2.183l1.352-7.52 9.521.052 9.728 17.268v-17.268h8.583M207.5 28.589l-3.851 10.684h-7.438l2.652-10.684h8.637M231.738 27.76h17.114l-1.352 7.571h-24.347v-34.745h25.804l-1.457 7.519h-15.763v6.119h14.773l-1.041 7.469h-13.733v6.068M280.714.586v34.745h-8.583l-9.832-17.166v17.166h-8.586v-27.277h-2.183l1.352-7.52 9.521.052 9.728 17.268v-17.268h8.583M312.247 35.331h-21.797c-2.913 0-5.308-2.385-5.308-5.29v-24.114c0-2.905 2.395-5.29 5.308-5.29h20.341l-1.404 7.468h-15.555v19.706h9.78v-6.171h-5.568l1.406-7.52h12.797v21.211M340.906 35.331h-24.295l-.051-34.745h8.584v27.174h17.114l-1.352 7.571" sketch:type="MSShapeGroup"/><path d="M374.748 35.331h-8.532l-1.299-5.134h-10.665l-1.249 5.134h-8.479l7.127-27.226h-2.132l1.35-7.519h14.672l9.207 34.745zm-11.704-12.654l-3.434-13.847-3.485 13.847h6.92zM405.537.586v34.745h-8.583l-9.832-17.166v17.166h-8.586v-27.277h-2.183l1.352-7.52 9.521.052 9.728 17.268v-17.268h8.583" sketch:type="MSShapeGroup"/><path d="M438.469 5.876v24.113c0 2.957-2.341 5.342-5.254 5.342h-21.849v-27.277h-2.237l1.353-7.417h22.733c2.913 0 5.254 2.334 5.254 5.239zm-18.52 21.884h9.885v-19.706h-9.885v19.706z" sketch:type="MSShapeGroup"/></g></svg>