<svg width="731" height="39" viewBox="0 0 731 39" xmlns="http://www.w3.org/2000/svg" xmlns:sketch="http://www.bohemiancoding.com/sketch/ns"><title>NE of Madagascar</title><desc>Created with Sketch.</desc><g sketch:type="MSLayerGroup" fill="#fff"><path d="M31.882.895v37.319h-9.199l-10.536-18.437v18.437h-9.198v-29.298h-2.343l1.452-8.077 10.201.056 10.424 18.548v-18.548h9.199m33.736 5.736v25.901c0 3.12-2.565 5.681-5.686 5.681h-17.672c-3.123 0-5.688-2.561-5.688-5.681v-25.901c0-3.119 2.565-5.681 5.688-5.681h17.672c3.121 0 5.686 2.563 5.686 5.681zm-19.736 23.561h10.535v-21.111h-10.535v21.111zm36.854-4.456h-1.673v12.477h-9.198v-29.243h-2.398l1.449-8.076h24.196c3.121 0 5.629 2.561 5.629 5.681v13.479c0 3.12-2.507 5.681-5.629 5.681h-2.343l8.085 12.477h-10.035l-8.084-12.477zm-1.727-8.021h10.535v-8.689h-10.535v8.689zm51.434-8.688h-9.254v29.187h-9.198v-29.187h-9.589l1.449-8.077h28.042l-1.45 8.077m34.178-8.132v37.319h-9.255v-14.649h-10.536v14.649h-9.198v-37.319h9.198v14.649h10.536v-14.649h9.255m14.29 29.186h18.342l-1.452 8.132h-26.089v-37.319h27.65l-1.561 8.076h-16.89v6.573h15.831l-1.114 8.021h-14.718v6.517m53.456 8.132h-9.144l-1.394-5.514h-11.428l-1.337 5.514h-9.088l7.638-29.243h-2.286l1.452-8.076h15.719l9.869 37.319zm-12.544-13.591l-3.679-14.871-3.735 14.871h7.414zm15.624-17.991c0-3.119 2.507-5.681 5.63-5.681h21.743l-1.506 8.077h-16.613v5.793l14.16 1.449c2.675 0 5.574 2.283 5.574 5.458v10.806c0 3.12-2.507 5.681-5.629 5.681h-22.244l1.505-8.021h17.17v-5.849l-14.384-1.447c-.501 0-5.406-.502-5.406-5.57v-10.695m59.208 2.395h-9.254v29.187h-9.199v-29.187h-9.589l1.452-8.077h28.04l-1.45 8.077m45.321-2.396v25.901c0 3.12-2.565 5.681-5.686 5.681h-17.673c-3.123 0-5.685-2.561-5.685-5.681v-25.901c0-3.119 2.562-5.681 5.685-5.681h17.673c3.121 0 5.686 2.563 5.686 5.681zm-19.736 23.561h10.536v-21.111h-10.536v21.111zm33.663-21.222v6.573h15.833l-1.115 8.021h-14.718v14.649h-9.199l-.055-37.319h27.596l-1.505 8.076h-16.837m68.624-8.075v37.319h-9.255v-16.71l-7.638 14.593h-.11l-7.75-14.815v16.932h-9.198v-29.243h-2.398l1.506-8.076h10.089l7.805 14.816 7.636-14.816h9.312m36.239 37.318h-9.143l-1.394-5.514h-11.428l-1.339 5.514h-9.088l7.639-29.243h-2.286l1.45-8.076h15.72l9.868 37.319zm-12.544-13.591l-3.677-14.871-3.737 14.871h7.414zm45.679-18.046v25.901c0 3.175-2.51 5.736-5.632 5.736h-23.414v-29.298h-2.396l1.447-7.966h24.363c3.121 0 5.632 2.507 5.632 5.627zm-19.847 23.505h10.591v-21.166h-10.591v21.166zm55.428 8.132h-9.143l-1.394-5.514h-11.429l-1.337 5.514h-9.086l7.636-29.243h-2.285l1.449-8.076h15.722l9.868 37.319zm-12.543-13.591l-3.682-14.871-3.734 14.871h7.415zm44.858 13.591h-23.358c-3.123 0-5.688-2.561-5.688-5.681v-25.901c0-3.119 2.565-5.681 5.688-5.681h21.797l-1.505 8.021h-16.669v21.167h10.48v-6.63h-5.965l1.506-8.076h13.714v22.781m36.105 0h-9.143l-1.392-5.514h-11.429l-1.337 5.514h-9.086l7.636-29.243h-2.285l1.447-8.076h15.723l9.866 37.319zm-12.543-13.591l-3.68-14.871-3.735 14.871h7.415zm15.623-17.991c0-3.119 2.51-5.681 5.632-5.681h21.74l-1.504 8.077h-16.613v5.793l14.159 1.449c2.676 0 5.575 2.283 5.575 5.458v10.806c0 3.12-2.509 5.681-5.632 5.681h-22.243l1.505-8.021h17.17v-5.849l-14.381-1.447c-.503 0-5.409-.502-5.409-5.57v-10.695m42.841 23.561h18.954l-1.447 8.021h-21.129c-3.123 0-5.686-2.561-5.686-5.681v-25.901c0-3.119 2.564-5.681 5.686-5.681h22.522l-1.505 8.133h-17.394v21.11" sketch:type="MSShapeGroup"/><path d="M697.699 38.213h-9.143l-1.394-5.514h-11.429l-1.337 5.514h-9.088l7.639-29.243h-2.286l1.45-8.076h15.72l9.868 37.319zm-12.544-13.591l-3.679-14.871-3.735 14.871h7.414zm27.531 1.114h-1.673v12.477h-9.199v-29.243h-2.396l1.45-8.076h24.194c3.123 0 5.632 2.561 5.632 5.681v13.479c0 3.12-2.509 5.681-5.632 5.681h-2.341l8.083 12.477h-10.034l-8.084-12.477zm-1.729-8.021h10.538v-8.689h-10.538v8.689z" sketch:type="MSShapeGroup"/></g></svg>