<svg width="782" height="40" viewBox="0 0 782 40" xmlns="http://www.w3.org/2000/svg" xmlns:sketch="http://www.bohemiancoding.com/sketch/ns"><title>Imported Layers</title><desc>Created with Sketch.</desc><g sketch:type="MSLayerGroup" fill="#fff"><path d="M9.54 28.172h17.661l-1.35 7.468h-19.688c-2.908 0-5.299-2.385-5.299-5.29v-24.113c0-2.905 2.39-5.29 5.299-5.29h20.987l-1.404 7.571h-16.206v19.654" sketch:type="MSShapeGroup"/><path d="M58.022 6.237v24.113c0 2.905-2.389 5.29-5.299 5.29h-16.468c-2.908 0-5.297-2.385-5.297-5.29v-24.113c0-2.905 2.389-5.29 5.297-5.29h16.468c2.91 0 5.299 2.385 5.299 5.29zm-18.388 21.935h9.818v-19.654h-9.818v19.654zM89.392 6.237v24.113c0 2.905-2.39 5.29-5.299 5.29h-16.466c-2.91 0-5.3-2.385-5.3-5.29v-24.113c0-2.905 2.39-5.29 5.3-5.29h16.466c2.908 0 5.299 2.385 5.299 5.29zm-18.389 21.935h9.816v-19.654h-9.816v19.654zM118.984 8.466h-8.624v27.174h-8.57v-27.174h-8.935l1.35-7.519h26.129l-1.35 7.519M132.44 28.069h17.089l-1.35 7.571h-24.31v-34.745h25.765l-1.455 7.52h-15.739v6.119h14.752l-1.038 7.469h-13.714v6.066" sketch:type="MSShapeGroup"/><path d="M164.561 24.023h-1.558v11.617h-8.57v-27.225h-2.235l1.351-7.52h22.544c2.91 0 5.246 2.385 5.246 5.29v12.549c0 2.905-2.336 5.29-5.246 5.29h-2.182l7.534 11.617h-9.351l-7.533-11.617zm-1.61-7.468h9.816v-8.09h-9.816v8.09zM218.743.895v34.745h-8.624v-15.557l-7.117 13.588h-.102l-7.222-13.794v15.764h-8.57v-27.225h-2.234l1.404-7.52h9.401l7.273 13.794 7.115-13.794h8.677" sketch:type="MSShapeGroup"/><path d="M252.51 35.64h-8.519l-1.299-5.132h-10.65l-1.246 5.132h-8.468l7.118-27.225h-2.13l1.351-7.52h14.648l9.195 34.745zm-11.689-12.654l-3.426-13.846-3.482 13.846h6.908zM283.254.895v34.745h-8.572l-9.818-17.164v17.164h-8.57v-27.277h-2.183l1.353-7.519 9.506.051 9.713 17.269v-17.269h8.572" sketch:type="MSShapeGroup"/><path d="M287.859.948h8.623v10.683h-8.623v-10.683zM300.698 6.237c0-2.905 2.336-5.29 5.246-5.29h20.26l-1.404 7.519h-15.48v5.393l13.195 1.349c2.494 0 5.195 2.127 5.195 5.081v10.061c0 2.905-2.338 5.29-5.246 5.29h-20.727l1.402-7.468h16.001v-5.444l-13.405-1.349c-.467 0-5.037-.466-5.037-5.185v-9.957M352.068 28.172h17.663l-1.35 7.468h-19.688c-2.908 0-5.299-2.385-5.299-5.29v-24.113c0-2.905 2.39-5.29 5.299-5.29h20.987l-1.404 7.571h-16.208v19.654" sketch:type="MSShapeGroup"/><path d="M384.534 24.023h-1.558v11.617h-8.572v-27.225h-2.234l1.351-7.52h22.544c2.91 0 5.246 2.385 5.246 5.29v12.549c0 2.905-2.336 5.29-5.246 5.29h-2.182l7.533 11.617h-9.349l-7.533-11.617zm-1.61-7.468h9.816v-8.09h-9.816v8.09zM414.395 28.069h17.091l-1.353 7.571h-24.31v-34.745h25.765l-1.455 7.52h-15.738v6.119h14.753l-1.039 7.469h-13.714v6.066M444.239 28.069h17.092l-1.353 7.571h-24.311v-34.745h25.766l-1.455 7.52h-15.739v6.119h14.753l-1.039 7.469h-13.714v6.066M492.922 35.64h-10.025l-8.103-13.637h-.832v13.637h-8.572v-34.745h8.572v13.586h.883l8.052-13.586h10.025l-10.962 17.32 10.962 17.425M506.527 28.899l-3.842 10.683h-7.429l2.65-10.683h8.621" sketch:type="MSShapeGroup"/><path d="M550.265 35.64h-8.519l-1.299-5.132h-10.65l-1.246 5.132h-8.467l7.115-27.225h-2.129l1.35-7.52h14.649l9.195 34.745zm-11.687-12.654l-3.431-13.846-3.479 13.846h6.91zM580.349.895v34.745h-21.765c-2.908 0-5.247-2.385-5.247-5.29v-29.455h8.572v27.174h9.818v-27.174h8.623M584.528 6.237c0-2.905 2.339-5.29 5.247-5.29h20.259l-1.402 7.519h-15.48v5.393l13.195 1.349c2.492 0 5.194 2.127 5.194 5.081v10.061c0 2.905-2.338 5.29-5.246 5.29h-20.726l1.401-7.468h15.999v-5.444l-13.4-1.349c-.468 0-5.04-.466-5.04-5.185v-9.957M639.698 8.466h-8.623v27.174h-8.572v-27.174h-8.935l1.351-7.519h26.129l-1.351 7.519" sketch:type="MSShapeGroup"/><path d="M655.457 24.023h-1.558v11.617h-8.572v-27.225h-2.234l1.351-7.52h22.544c2.91 0 5.246 2.385 5.246 5.29v12.549c0 2.905-2.336 5.29-5.246 5.29h-2.182l7.533 11.617h-9.349l-7.533-11.617zm-1.61-7.468h9.816v-8.09h-9.816v8.09zM705.929 35.64h-8.519l-1.3-5.132h-10.648l-1.246 5.132h-8.468l7.117-27.225h-2.13l1.353-7.52h14.647l9.196 34.745zm-11.689-12.654l-3.428-13.846-3.48 13.846h6.908zM733.749 35.64h-24.259l-.053-34.745h8.572v27.174h17.091l-1.351 7.571" sketch:type="MSShapeGroup"/><path d="M738.879.895h8.572v34.745h-8.572v-34.745zM781.182 35.64h-8.518l-1.299-5.132h-10.65l-1.246 5.132h-8.467l7.115-27.225h-2.129l1.35-7.52h14.649l9.193 34.745zm-11.687-12.654l-3.429-13.846-3.479 13.846h6.908z" sketch:type="MSShapeGroup"/></g></svg>