<svg width="550" height="39" viewBox="0 0 550 39" xmlns="http://www.w3.org/2000/svg" xmlns:sketch="http://www.bohemiancoding.com/sketch/ns"><title>Imported Layers</title><desc>Created with Sketch.</desc><g sketch:type="MSLayerGroup" fill="#fff"><path d="M31.811.883v37.319h-9.222l-10.561-18.436v18.436h-9.221v-29.298h-2.349l1.454-8.076 10.227.055 10.45 18.548v-18.548h9.222" sketch:type="MSShapeGroup"/><path d="M65.631 6.621v25.899c0 3.12-2.57 5.681-5.701 5.681h-17.716c-3.129 0-5.702-2.561-5.702-5.681v-25.899c0-3.119 2.573-5.681 5.702-5.681h17.716c3.131 0 5.701 2.563 5.701 5.681zm-19.784 23.56h10.561v-21.11h-10.561v21.11z" sketch:type="MSShapeGroup"/><path d="M82.793 25.726h-1.677v12.476h-9.221v-29.241h-2.404l1.452-8.077h24.256c3.129 0 5.644 2.561 5.644 5.681v13.479c0 3.12-2.515 5.683-5.644 5.683h-2.347l8.104 12.476h-10.061l-8.104-12.476zm-1.732-8.022h10.561v-8.689h-10.561v8.689z" sketch:type="MSShapeGroup"/><path d="M132.626 9.015h-9.277v29.187h-9.222v-29.187h-9.613l1.452-8.076h28.112l-1.452 8.076" sketch:type="MSShapeGroup"/><path d="M166.889.883v37.319h-9.28v-14.647h-10.561v14.647h-9.221v-37.319h9.221v14.65h10.561v-14.65h9.28" sketch:type="MSShapeGroup"/><path d="M206.708.883l-4.584 37.319h-8.439l-4.807-11.92-4.972 11.865v.055h-8.44l-4.583-37.319h9.166l2.347 16.877 6.428-14.76h.111l6.316 14.427 2.292-16.544h9.166" sketch:type="MSShapeGroup"/><path d="M219.92 30.07h18.386l-1.451 8.132h-26.156v-37.319h27.72l-1.564 8.077h-16.936v6.573h15.873l-1.118 8.021h-14.755v6.516" sketch:type="MSShapeGroup"/><path d="M242.106 6.621c0-3.119 2.515-5.681 5.646-5.681h21.795l-1.509 8.076h-16.655v5.793l14.196 1.449c2.683 0 5.589 2.284 5.589 5.458v10.806c0 3.12-2.517 5.681-5.646 5.681h-22.299l1.509-8.021h17.214v-5.847l-14.417-1.447c-.504 0-5.423-.502-5.423-5.57v-10.695" sketch:type="MSShapeGroup"/><path d="M301.462 9.015h-9.279v29.187h-9.222v-29.187h-9.612l1.454-8.076h28.111l-1.452 8.076" sketch:type="MSShapeGroup"/><path d="M327.446 30.07h18.386l-1.451 8.132h-26.156v-37.319h27.721l-1.565 8.077h-16.936v6.573h15.873l-1.118 8.021h-14.755v6.516" sketch:type="MSShapeGroup"/><path d="M380.063.883v37.319h-9.221l-10.564-18.436v18.436h-9.222v-29.298h-2.346l1.452-8.076 10.227.055 10.453 18.548v-18.548h9.221" sketch:type="MSShapeGroup"/><path d="M413.94 38.201h-23.417c-3.131 0-5.702-2.561-5.702-5.681v-25.899c0-3.119 2.572-5.681 5.702-5.681h21.851l-1.509 8.021h-16.711v21.166h10.508v-6.628h-5.982l1.51-8.077h13.749v22.781" sketch:type="MSShapeGroup"/><path d="M444.726 38.201h-26.1l-.056-37.319h9.222v29.187h18.388l-1.454 8.132" sketch:type="MSShapeGroup"/><path d="M481.085 38.201h-9.166l-1.399-5.513h-11.456l-1.341 5.513h-9.111l7.657-29.241h-2.292l1.455-8.077h15.758l9.894 37.319zm-12.576-13.59l-3.688-14.873-3.744 14.873h7.432z" sketch:type="MSShapeGroup"/><path d="M514.164.883v37.319h-9.222l-10.563-18.436v18.436h-9.222v-29.298h-2.346l1.451-8.076 10.229.055 10.451 18.548v-18.548h9.222" sketch:type="MSShapeGroup"/><path d="M549.542 6.564v25.901c0 3.175-2.515 5.736-5.644 5.736h-23.473v-29.298h-2.404l1.452-7.964h24.424c3.129 0 5.644 2.505 5.644 5.625zm-19.895 23.505h10.618v-21.166h-10.618v21.166z" sketch:type="MSShapeGroup"/></g></svg>