<?xml version="1.0" encoding="UTF-8" standalone="no"?>
<svg width="550px" height="39px" viewBox="0 0 550 39" version="1.1" xmlns="http://www.w3.org/2000/svg" xmlns:xlink="http://www.w3.org/1999/xlink" xmlns:sketch="http://www.bohemiancoding.com/sketch/ns">
    <!-- Generator: Sketch 3.0.4 (8053) - http://www.bohemiancoding.com/sketch -->
    <title>Imported Layers</title>
    <desc>Created with Sketch.</desc>
    <defs></defs>
    <g id="Type" stroke="none" stroke-width="1" fill="none" fill-rule="evenodd" sketch:type="MSPage">
        <g id="Landscape-Retina" sketch:type="MSArtboardGroup" transform="translate(-1453.000000, -1654.000000)" fill="#FFFFFF">
            <g id="Imported-Layers" sketch:type="MSLayerGroup" transform="translate(1453.000000, 1655.000000)">
                <path d="M31.8108108,-0.117037037 L31.8108108,37.2014815 L22.5886486,37.2014815 L12.0271622,18.7659259 L12.0271622,37.2014815 L2.80648649,37.2014815 L2.80648649,7.9037037 L0.457837838,7.9037037 L1.91162162,-0.171851852 L12.1386486,-0.117037037 L22.5886486,18.4311111 L22.5886486,-0.117037037 L31.8108108,-0.117037037" id="Fill-1" sketch:type="MSShapeGroup"></path>
                <path d="M65.6313514,5.62074074 L65.6313514,31.52 C65.6313514,34.64 63.0612162,37.2014815 59.9306757,37.2014815 L42.2147297,37.2014815 C39.0856757,37.2014815 36.5125676,34.64 36.5125676,31.52 L36.5125676,5.62074074 C36.5125676,2.50222222 39.0856757,-0.0607407407 42.2147297,-0.0607407407 L59.9306757,-0.0607407407 C63.0612162,-0.0607407407 65.6313514,2.50222222 65.6313514,5.62074074 L65.6313514,5.62074074 Z M45.8477027,29.1807407 L56.4091892,29.1807407 L56.4091892,8.07111111 L45.8477027,8.07111111 L45.8477027,29.1807407 Z" id="Fill-2" sketch:type="MSShapeGroup"></path>
                <path d="M82.7928378,24.7259259 L81.1160811,24.7259259 L81.1160811,37.2014815 L71.8954054,37.2014815 L71.8954054,7.96 L69.4917568,7.96 L70.9440541,-0.117037037 L95.2005405,-0.117037037 C98.3295946,-0.117037037 100.84473,2.44444444 100.84473,5.56444444 L100.84473,19.042963 C100.84473,22.162963 98.3295946,24.7259259 95.2005405,24.7259259 L92.8533784,24.7259259 L100.957703,37.2014815 L90.8971622,37.2014815 L82.7928378,24.7259259 L82.7928378,24.7259259 Z M81.0610811,16.7037037 L91.6225676,16.7037037 L91.6225676,8.01481481 L81.0610811,8.01481481 L81.0610811,16.7037037 Z" id="Fill-3" sketch:type="MSShapeGroup"></path>
                <path d="M132.625811,8.01481481 L123.348649,8.01481481 L123.348649,37.2014815 L114.126486,37.2014815 L114.126486,8.01481481 L104.513378,8.01481481 L105.965676,-0.0607407407 L134.078108,-0.0607407407 L132.625811,8.01481481" id="Fill-4" sketch:type="MSShapeGroup"></path>
                <path d="M166.889324,-0.117037037 L166.889324,37.2014815 L157.609189,37.2014815 L157.609189,22.5540741 L147.047703,22.5540741 L147.047703,37.2014815 L137.827027,37.2014815 L137.827027,-0.117037037 L147.047703,-0.117037037 L147.047703,14.5333333 L157.609189,14.5333333 L157.609189,-0.117037037 L166.889324,-0.117037037" id="Fill-5" sketch:type="MSShapeGroup"></path>
                <path d="M206.707838,-0.117037037 L202.123514,37.2014815 L193.68473,37.2014815 L188.877432,25.2814815 L183.905135,37.1466667 L183.905135,37.2014815 L175.464865,37.2014815 L170.882027,-0.117037037 L180.047703,-0.117037037 L182.394865,16.76 L188.822432,2 L188.933919,2 L195.25,16.4266667 L197.542162,-0.117037037 L206.707838,-0.117037037" id="Fill-6" sketch:type="MSShapeGroup"></path>
                <path d="M219.91973,29.0696296 L238.306081,29.0696296 L236.85527,37.2014815 L210.699054,37.2014815 L210.699054,-0.117037037 L238.419054,-0.117037037 L236.85527,7.96 L219.91973,7.96 L219.91973,14.5333333 L235.792432,14.5333333 L234.674595,22.5540741 L219.91973,22.5540741 L219.91973,29.0696296" id="Fill-7" sketch:type="MSShapeGroup"></path>
                <path d="M242.105541,5.62074074 C242.105541,2.50222222 244.620676,-0.0607407407 247.751216,-0.0607407407 L269.546081,-0.0607407407 L268.037297,8.01481481 L251.382703,8.01481481 L251.382703,13.8074074 L265.578649,15.2562963 C268.261757,15.2562963 271.167838,17.5407407 271.167838,20.7140741 L271.167838,31.52 C271.167838,34.64 268.651216,37.2014815 265.522162,37.2014815 L243.223378,37.2014815 L244.732162,29.1807407 L261.945676,29.1807407 L261.945676,23.3333333 L247.528243,21.8859259 C247.024324,21.8859259 242.105541,21.3837037 242.105541,16.3155556 L242.105541,5.62074074" id="Fill-8" sketch:type="MSShapeGroup"></path>
                <path d="M301.462432,8.01481481 L292.183784,8.01481481 L292.183784,37.2014815 L282.961622,37.2014815 L282.961622,8.01481481 L273.35,8.01481481 L274.803784,-0.0607407407 L302.91473,-0.0607407407 L301.462432,8.01481481" id="Fill-9" sketch:type="MSShapeGroup"></path>
                <path d="M327.446216,29.0696296 L345.832568,29.0696296 L344.381757,37.2014815 L318.225541,37.2014815 L318.225541,-0.117037037 L345.947027,-0.117037037 L344.381757,7.96 L327.446216,7.96 L327.446216,14.5333333 L343.318919,14.5333333 L342.201081,22.5540741 L327.446216,22.5540741 L327.446216,29.0696296" id="Fill-10" sketch:type="MSShapeGroup"></path>
                <path d="M380.063378,-0.117037037 L380.063378,37.2014815 L370.842703,37.2014815 L360.278243,18.7659259 L360.278243,37.2014815 L351.056081,37.2014815 L351.056081,7.9037037 L348.710405,7.9037037 L350.162703,-0.171851852 L360.38973,-0.117037037 L370.842703,18.4311111 L370.842703,-0.117037037 L380.063378,-0.117037037" id="Fill-11" sketch:type="MSShapeGroup"></path>
                <path d="M413.940405,37.2014815 L390.523784,37.2014815 C387.393243,37.2014815 384.821622,34.64 384.821622,31.52 L384.821622,5.62074074 C384.821622,2.50222222 387.393243,-0.0607407407 390.523784,-0.0607407407 L412.375135,-0.0607407407 L410.866351,7.96 L394.15527,7.96 L394.15527,29.1259259 L404.663243,29.1259259 L404.663243,22.4977778 L398.681622,22.4977778 L400.191892,14.4207407 L413.940405,14.4207407 L413.940405,37.2014815" id="Fill-12" sketch:type="MSShapeGroup"></path>
                <path d="M444.725541,37.2014815 L418.625811,37.2014815 L418.569324,-0.117037037 L427.791486,-0.117037037 L427.791486,29.0696296 L446.179324,29.0696296 L444.725541,37.2014815" id="Fill-13" sketch:type="MSShapeGroup"></path>
                <path d="M481.085,37.2014815 L471.919324,37.2014815 L470.520541,31.6888889 L459.064189,31.6888889 L457.723378,37.2014815 L448.612703,37.2014815 L456.269595,7.96 L453.977432,7.96 L455.432703,-0.117037037 L471.190946,-0.117037037 L481.085,37.2014815 L481.085,37.2014815 Z M468.509324,23.6118519 L464.821351,8.73925926 L461.076892,23.6118519 L468.509324,23.6118519 L468.509324,23.6118519 Z" id="Fill-14" sketch:type="MSShapeGroup"></path>
                <path d="M514.163784,-0.117037037 L514.163784,37.2014815 L504.941622,37.2014815 L494.378649,18.7659259 L494.378649,37.2014815 L485.156486,37.2014815 L485.156486,7.9037037 L482.810811,7.9037037 L484.261622,-0.171851852 L494.490135,-0.117037037 L504.941622,18.4311111 L504.941622,-0.117037037 L514.163784,-0.117037037" id="Fill-15" sketch:type="MSShapeGroup"></path>
                <path d="M549.542162,5.56444444 L549.542162,31.4651852 C549.542162,34.64 547.027027,37.2014815 543.897973,37.2014815 L520.424865,37.2014815 L520.424865,7.9037037 L518.021216,7.9037037 L519.473514,-0.0607407407 L543.897973,-0.0607407407 C547.027027,-0.0607407407 549.542162,2.44444444 549.542162,5.56444444 L549.542162,5.56444444 Z M529.647027,29.0696296 L540.265,29.0696296 L540.265,7.9037037 L529.647027,7.9037037 L529.647027,29.0696296 Z" id="Fill-16" sketch:type="MSShapeGroup"></path>
            </g>
        </g>
    </g>
</svg>