<svg width="440" height="40" viewBox="0 0 440 40" xmlns="http://www.w3.org/2000/svg" xmlns:sketch="http://www.bohemiancoding.com/sketch/ns"><title>Imported Layers</title><desc>Created with Sketch.</desc><g sketch:type="MSLayerGroup" fill="#fff"><path d="M26.309 8.16h-8.608v27.174h-8.557v-27.174h-8.92l1.35-7.52h26.084l-1.349 7.52" sketch:type="MSShapeGroup"/><path d="M57.651 5.93v24.114c0 2.905-2.385 5.29-5.29 5.29h-16.44c-2.903 0-5.288-2.385-5.288-5.29v-24.114c0-2.905 2.385-5.29 5.288-5.29h16.44c2.905 0 5.29 2.385 5.29 5.29zm-18.359 21.937h9.801v-19.655h-9.801v19.655zM73.574 23.717h-1.556v11.617h-8.556v-27.226h-2.23l1.348-7.519h22.508c2.903 0 5.236 2.385 5.236 5.29v12.549c0 2.905-2.332 5.29-5.236 5.29h-2.178l7.52 11.617h-9.335l-7.52-11.617zm-1.607-7.468h9.801v-8.09h-9.801v8.09zM121.592 5.93v24.114c0 2.905-2.385 5.29-5.29 5.29h-16.439c-2.905 0-5.29-2.385-5.29-5.29v-24.114c0-2.905 2.385-5.29 5.29-5.29h16.439c2.905 0 5.29 2.385 5.29 5.29zm-18.357 21.937h9.801v-19.655h-9.801v19.655zM154.24.589v34.745h-8.556l-9.801-17.166v17.166h-8.557v-27.277h-2.178l1.348-7.52 9.491.052 9.698 17.268v-17.268h8.556M183.803 8.16h-8.608v27.174h-8.556v-27.174h-8.92l1.346-7.52h26.087l-1.349 7.52" sketch:type="MSShapeGroup"/><path d="M215.143 5.93v24.114c0 2.905-2.386 5.29-5.29 5.29h-16.44c-2.905 0-5.288-2.385-5.288-5.29v-24.114c0-2.905 2.383-5.29 5.288-5.29h16.44c2.903 0 5.29 2.385 5.29 5.29zm-18.359 21.937h9.801v-19.655h-9.801v19.655zM229.05 28.592l-3.837 10.684h-7.417l2.646-10.684h8.608" sketch:type="MSShapeGroup"/><path d="M271.261 5.93v24.114c0 2.905-2.385 5.29-5.29 5.29h-16.44c-2.903 0-5.288-2.385-5.288-5.29v-24.114c0-2.905 2.385-5.29 5.288-5.29h16.44c2.905 0 5.29 2.385 5.29 5.29zm-18.357 21.937h9.801v-19.655h-9.801v19.655zM303.909.589v34.745h-8.556l-9.803-17.166v17.166h-8.557v-27.277h-2.177l1.348-7.52 9.491.052 9.698 17.268v-17.268h8.556M333.47 8.16h-8.61v27.174h-8.557v-27.174h-8.919l1.349-7.52h26.084l-1.348 7.52" sketch:type="MSShapeGroup"/><path d="M364.292 35.334h-8.505l-1.297-5.135h-10.63l-1.246 5.135h-8.452l7.105-27.226h-2.127l1.349-7.519h14.623l9.179 34.745zm-11.668-12.654l-3.422-13.847-3.476 13.847h6.898zM378.236 23.717h-1.556v11.617h-8.557v-27.226h-2.23l1.349-7.519h22.506c2.905 0 5.239 2.385 5.239 5.29v12.549c0 2.905-2.334 5.29-5.239 5.29h-2.178l7.52 11.617h-9.335l-7.519-11.617zm-1.608-7.468h9.801v-8.09h-9.801v8.09zM399.411.589h8.557v34.745h-8.557v-34.745zM439.368 5.93v24.114c0 2.905-2.385 5.29-5.29 5.29h-16.439c-2.903 0-5.291-2.385-5.291-5.29v-24.114c0-2.905 2.388-5.29 5.291-5.29h16.439c2.905 0 5.29 2.385 5.29 5.29zm-18.359 21.937h9.801v-19.655h-9.801v19.655z" sketch:type="MSShapeGroup"/></g></svg>