<svg width="581" height="40" viewBox="0 0 581 40" xmlns="http://www.w3.org/2000/svg" xmlns:sketch="http://www.bohemiancoding.com/sketch/ns"><title>Imported Layers</title><desc>Created with Sketch.</desc><g sketch:type="MSLayerGroup" fill="#fff"><path d="M9.596 8.105v6.119h14.76l-1.04 7.469h-13.721v13.639h-8.577l-.051-34.745h25.728l-1.405 7.519h-15.696M54.728 35.331h-24.271l-.054-34.745h8.578v27.174h17.101l-1.353 7.571" sketch:type="MSShapeGroup"/><path d="M86.822 5.927v24.114c0 2.905-2.392 5.29-5.302 5.29h-16.476c-2.91 0-5.303-2.385-5.303-5.29v-24.114c0-2.905 2.393-5.29 5.303-5.29h16.476c2.91 0 5.302 2.385 5.302 5.29zm-18.4 21.937h9.823v-19.655h-9.823v19.655zM102.782 23.714h-1.559v11.617h-8.575v-27.226h-2.235l1.351-7.519h22.558c2.91 0 5.248 2.385 5.248 5.29v12.549c0 2.905-2.338 5.29-5.248 5.29h-2.183l7.537 11.617h-9.356l-7.537-11.617zm-1.611-7.468h9.823v-8.09h-9.823v8.09zM124.005.586h8.575v34.745h-8.575v-34.745zM165.503 5.876v24.113c0 2.957-2.339 5.342-5.25 5.342h-21.83v-27.277h-2.234l1.351-7.417h22.713c2.911 0 5.25 2.334 5.25 5.239zm-18.504 21.884h9.875v-19.706h-9.875v19.706zM198.675 35.331h-8.524l-1.298-5.134h-10.656l-1.248 5.134h-8.471l7.121-27.226h-2.13l1.349-7.519h14.659l9.199 34.745zm-11.694-12.654l-3.431-13.847-3.482 13.847h6.913zM212.338 28.589l-3.847 10.684h-7.432l2.65-10.684h8.629M254.748.586v34.745h-21.779c-2.911 0-5.249-2.385-5.249-5.29v-29.455h8.575v27.174h9.823v-27.174h8.629M287.417.586v34.745h-8.578l-9.822-17.166v17.166h-8.575v-27.277h-2.184l1.352-7.52 9.511.052 9.718 17.268v-17.268h8.578" sketch:type="MSShapeGroup"/><path d="M291.925.586h8.577v34.745h-8.577v-34.745zM330.153 8.157h-8.629v27.174h-8.575v-27.174h-8.94l1.351-7.52h26.144l-1.351 7.52M343.617 27.76h17.099l-1.351 7.571h-24.324v-34.745h25.779l-1.456 7.519h-15.749v6.119h14.76l-1.038 7.469h-13.722v6.068" sketch:type="MSShapeGroup"/><path d="M392.674 5.876v24.113c0 2.957-2.338 5.342-5.249 5.342h-21.83v-27.277h-2.235l1.353-7.417h22.712c2.911 0 5.249 2.334 5.249 5.239zm-18.504 21.884h9.876v-19.706h-9.876v19.706zM408.211 5.927c0-2.905 2.34-5.29 5.25-5.29h20.269l-1.402 7.52h-15.489v5.393l13.201 1.349c2.495 0 5.198 2.126 5.198 5.081v10.061c0 2.905-2.339 5.29-5.25 5.29h-20.738l1.403-7.468h16.008v-5.446l-13.408-1.349c-.469 0-5.043-.466-5.043-5.185v-9.957M463.414 8.157h-8.628v27.174h-8.575v-27.174h-8.94l1.351-7.52h26.144l-1.352 7.52" sketch:type="MSShapeGroup"/><path d="M494.305 35.331h-8.524l-1.301-5.134h-10.654l-1.247 5.134h-8.473l7.121-27.226h-2.132l1.353-7.519h14.655l9.201 34.745zm-11.695-12.654l-3.43-13.847-3.482 13.847h6.912zM519.432 8.157h-8.628v27.174h-8.577v-27.174h-8.94l1.353-7.52h26.143l-1.352 7.52M532.898 27.76h17.099l-1.351 7.571h-24.324v-34.745h25.779l-1.456 7.519h-15.749v6.119h14.76l-1.038 7.469h-13.722v6.068M553.531 5.927c0-2.905 2.339-5.29 5.249-5.29h20.269l-1.402 7.52h-15.489v5.393l13.202 1.349c2.494 0 5.197 2.126 5.197 5.081v10.061c0 2.905-2.339 5.29-5.25 5.29h-20.738l1.403-7.468h16.008v-5.446l-13.408-1.349c-.469 0-5.042-.466-5.042-5.185v-9.957" sketch:type="MSShapeGroup"/></g></svg>