<svg width="415" height="40" viewBox="0 0 415 40" xmlns="http://www.w3.org/2000/svg" xmlns:sketch="http://www.bohemiancoding.com/sketch/ns"><title>Imported Layers</title><desc>Created with Sketch.</desc><g sketch:type="MSLayerGroup" fill="#fff"><path d="M.764 6.237c0-2.905 2.338-5.288 5.248-5.288h20.267l-1.404 7.519h-15.485v5.393l13.199 1.349c2.495 0 5.197 2.127 5.197 5.081v10.061c0 2.905-2.337 5.29-5.248 5.29h-20.734l1.404-7.468h16.004v-5.444l-13.407-1.35c-.467 0-5.04-.465-5.04-5.185v-9.957M40.814 28.07h17.095l-1.35 7.571h-24.317v-34.745h25.773l-1.455 7.52h-15.744v6.117h14.756l-1.038 7.469h-13.718v6.068" sketch:type="MSShapeGroup"/><path d="M89.858 6.186v24.113c0 2.957-2.337 5.342-5.248 5.342h-21.824v-27.277h-2.235l1.353-7.415h22.706c2.911 0 5.248 2.332 5.248 5.237zm-18.499 21.884h9.873v-19.706h-9.873v19.706zM121.216 6.237v24.114c0 2.905-2.391 5.29-5.3 5.29h-16.471c-2.911 0-5.302-2.385-5.302-5.29v-24.114c0-2.905 2.391-5.288 5.302-5.288h16.471c2.909 0 5.3 2.383 5.3 5.288zm-18.395 21.937h9.82v-19.655h-9.82v19.655zM153.929.897v34.745h-8.576l-9.82-17.166v17.166h-8.573v-27.277h-2.184l1.352-7.52 9.509.052 9.716 17.269v-17.269h8.576" sketch:type="MSShapeGroup"/><path d="M187.654 35.641h-8.522l-1.301-5.134h-10.652l-1.247 5.134h-8.471l7.119-27.225h-2.131l1.353-7.52h14.651l9.199 34.745zm-11.692-12.654l-3.429-13.847-3.481 13.847h6.91zM201.314 28.899l-3.848 10.684h-7.43l2.649-10.684h8.628" sketch:type="MSShapeGroup"/><path d="M245.062 35.641h-8.522l-1.299-5.134h-10.653l-1.247 5.134h-8.469l7.118-27.225h-2.13l1.35-7.52h14.655l9.196 34.745zm-11.691-12.654l-3.432-13.847-3.48 13.847h6.912zM259.032 24.025h-1.559v11.617h-8.573v-27.225h-2.235l1.35-7.52h22.552c2.909 0 5.248 2.385 5.248 5.29v12.549c0 2.905-2.338 5.29-5.248 5.29h-2.182l7.535 11.617h-9.354l-7.535-11.617zm-1.61-7.468h9.82v-8.09h-9.82v8.09zM280.252.897h8.574v34.745h-8.574v-34.745zM317.04 8.779l-14.134 19.291h14.134l-1.404 7.571h-22.655l-.051-7.571 14.651-19.603h-14.651l1.349-7.519 22.761-.052v7.883" sketch:type="MSShapeGroup"/><path d="M347.97 6.237v24.114c0 2.905-2.391 5.29-5.3 5.29h-16.471c-2.911 0-5.302-2.385-5.302-5.29v-24.114c0-2.905 2.391-5.288 5.302-5.288h16.471c2.909 0 5.3 2.383 5.3 5.288zm-18.395 21.937h9.82v-19.655h-9.82v19.655zM380.684.897v34.745h-8.574l-9.821-17.166v17.166h-8.573v-27.277h-2.184l1.352-7.52 9.509.052 9.717 17.269v-17.269h8.574" sketch:type="MSShapeGroup"/><path d="M414.409 35.641h-8.522l-1.299-5.134h-10.652l-1.248 5.134h-8.471l7.12-27.225h-2.131l1.352-7.52h14.653l9.198 34.745zm-11.692-12.654l-3.428-13.847-3.483 13.847h6.91z" sketch:type="MSShapeGroup"/></g></svg>