<svg width="493" height="40" viewBox="0 0 493 40" xmlns="http://www.w3.org/2000/svg" xmlns:sketch="http://www.bohemiancoding.com/sketch/ns"><title>Imported Layers</title><desc>Created with Sketch.</desc><g sketch:type="MSLayerGroup" fill="#fff"><path d="M9.532 27.87h17.639l-1.348 7.468h-19.663c-2.905 0-5.292-2.385-5.292-5.29v-24.113c0-2.905 2.387-5.29 5.292-5.29h20.961l-1.402 7.571h-16.186v19.654" sketch:type="MSShapeGroup"/><path d="M57.954 5.935v24.113c0 2.905-2.386 5.29-5.292 5.29h-16.446c-2.906 0-5.29-2.385-5.29-5.29v-24.113c0-2.905 2.384-5.29 5.29-5.29h16.446c2.906 0 5.292 2.385 5.292 5.29zm-18.365 21.935h9.805v-19.654h-9.805v19.654zM73.886 23.721h-1.558v11.617h-8.561v-27.225h-2.23l1.35-7.52h22.516c2.905 0 5.241 2.385 5.241 5.29v12.549c0 2.905-2.336 5.29-5.241 5.29h-2.179l7.522 11.617h-9.338l-7.522-11.617zm-1.609-7.468h9.805v-8.09h-9.805v8.09zM123.258.593v34.745h-8.561l-9.805-17.164v17.164h-8.559v-27.277h-2.18l1.35-7.519 9.494.051 9.702 17.269v-17.269h8.561M160.068.593l-4.254 34.745h-7.834l-4.463-11.098-4.616 11.047v.051h-7.835l-4.254-34.745h8.508l2.179 15.713 5.967-13.743h.102l5.863 13.433 2.129-15.403h8.507" sketch:type="MSShapeGroup"/><path d="M190.759 35.338h-8.508l-1.298-5.134h-10.635l-1.245 5.134h-8.457l7.108-27.225h-2.128l1.351-7.52h14.628l9.185 34.745zm-11.674-12.654l-3.424-13.846-3.476 13.846h6.899zM218.544 35.338h-24.228l-.051-34.745h8.559v27.174h17.068l-1.348 7.571M247.848 35.338h-24.228l-.052-34.745h8.561v27.174h17.069l-1.35 7.571M262.326 28.596l-3.837 10.683h-7.42l2.647-10.683h8.611M286.499 27.767h17.071l-1.351 7.571h-24.281v-34.745h25.734l-1.453 7.52h-15.72v6.119h14.734l-1.038 7.468h-13.697v6.068M335.344.593v34.745h-8.559l-9.807-17.164v17.164h-8.561v-27.277h-2.177l1.348-7.519 9.494.051 9.703 17.269v-17.269h8.559M366.79 35.338h-21.739c-2.905 0-5.29-2.385-5.29-5.29v-24.113c0-2.905 2.386-5.29 5.29-5.29h20.286l-1.401 7.468h-15.513v19.706h9.754v-6.172h-5.551l1.401-7.519h12.763v21.21M395.369 35.338h-24.228l-.052-34.745h8.561v27.174h17.069l-1.35 7.571" sketch:type="MSShapeGroup"/><path d="M429.121 35.338h-8.508l-1.298-5.134h-10.635l-1.245 5.134h-8.457l7.109-27.225h-2.129l1.351-7.52h14.63l9.183 34.745zm-11.674-12.654l-3.424-13.846-3.476 13.846h6.899zM459.827.593v34.745h-8.561l-9.805-17.164v17.164h-8.559v-27.277h-2.18l1.351-7.519 9.494.051 9.701 17.269v-17.269h8.561" sketch:type="MSShapeGroup"/><path d="M492.671 5.883v24.114c0 2.956-2.336 5.341-5.241 5.341h-21.79v-27.277h-2.231l1.348-7.415h22.673c2.905 0 5.241 2.332 5.241 5.237zm-18.47 21.884h9.857v-19.706h-9.857v19.706z" sketch:type="MSShapeGroup"/></g></svg>