<svg width="169" height="40" viewBox="0 0 169 40" xmlns="http://www.w3.org/2000/svg" xmlns:sketch="http://www.bohemiancoding.com/sketch/ns"><title>Imported Layers</title><desc>Created with Sketch.</desc><g sketch:type="MSLayerGroup" fill="#fff"><path d="M27.732.72v32.795c0 3.24-2.615 5.9-5.927 5.9h-21.092l1.453-8.386h15.864v-30.309h9.702" sketch:type="MSShapeGroup"/><path d="M64.922 39.415h-9.529l-1.453-5.726h-11.911l-1.396 5.726h-9.472l7.962-30.366h-2.383l1.511-8.388h16.385l10.285 38.754zm-13.075-14.114l-3.833-15.443-3.895 15.443h7.727zM99.195 6.562v13.94c0 3.24-2.613 5.842-5.868 5.842h-14.643v13.072h-9.585v-30.366h-2.501l1.511-8.329h25.217c3.255 0 5.868 2.602 5.868 5.842zm-20.568 11.511h10.982v-8.966h-10.982v8.966zM134.22 39.415h-9.529l-1.453-5.726h-11.911l-1.396 5.726h-9.472l7.962-30.366h-2.383l1.511-8.388h16.385l10.285 38.754zm-13.075-14.114l-3.833-15.443-3.895 15.443h7.727zM168.609.662v38.754h-9.588l-10.982-19.145v19.145h-9.586v-30.425h-2.442l1.513-8.386 10.633.057 10.865 19.262v-19.262h9.588" sketch:type="MSShapeGroup"/></g></svg>