<svg width="673" height="39" viewBox="0 0 673 39" xmlns="http://www.w3.org/2000/svg" xmlns:sketch="http://www.bohemiancoding.com/sketch/ns"><title>Imported Layers</title><desc>Created with Sketch.</desc><g sketch:type="MSLayerGroup" fill="#fff"><path d="M.743 6.625c0-3.12 2.512-5.681 5.637-5.681h21.77l-1.508 8.077h-16.633v5.793l14.178 1.449c2.68 0 5.582 2.283 5.582 5.458v10.806c0 3.12-2.512 5.681-5.637 5.681h-22.272l1.508-8.021h17.191v-5.849l-14.402-1.449c-.502 0-5.414-.499-5.414-5.569v-10.695" sketch:type="MSShapeGroup"/><path d="M63.418 6.625v25.901c0 3.12-2.568 5.681-5.693 5.681h-17.695c-3.125 0-5.692-2.561-5.692-5.681v-25.901c0-3.12 2.567-5.681 5.692-5.681h17.695c3.125 0 5.693 2.561 5.693 5.681zm-19.76 23.561h10.549v-21.111h-10.549v21.111zM97.179.889v37.319h-23.387c-3.125 0-5.638-2.561-5.638-5.681v-31.637h9.212v29.187h10.548v-29.187h9.265M128.919 9.021h-9.265v29.187h-9.21v-29.187h-9.601l1.453-8.077h28.075l-1.452 8.077M163.137.889v37.319h-9.264v-14.649h-10.551v14.649h-9.21v-37.319h9.21v14.647h10.551v-14.647h9.264M202.905.889l-4.575 37.319h-8.429l-4.8-11.92-4.969 11.864v.056h-8.428l-4.577-37.319h9.154l2.344 16.876 6.419-14.759h.113l6.307 14.425 2.288-16.542h9.154M216.102 30.076h18.364l-1.453 8.132h-26.121v-37.319h27.684l-1.563 8.076h-16.911v6.572h15.851l-1.116 8.022h-14.734v6.517M238.258 6.625c0-3.12 2.512-5.681 5.637-5.681h21.77l-1.507 8.077h-16.633v5.793l14.176 1.449c2.68 0 5.582 2.283 5.582 5.458v10.806c0 3.12-2.51 5.681-5.637 5.681h-22.272l1.508-8.021h17.191v-5.849l-14.402-1.449c-.502 0-5.414-.499-5.414-5.569v-10.695M297.539 9.021h-9.265v29.187h-9.209v-29.187h-9.601l1.45-8.077h28.076l-1.452 8.077" sketch:type="MSShapeGroup"/><path d="M342.915 6.625v25.901c0 3.12-2.568 5.681-5.695 5.681h-17.692c-3.127 0-5.695-2.561-5.695-5.681v-25.901c0-3.12 2.568-5.681 5.695-5.681h17.692c3.127 0 5.695 2.561 5.695 5.681zm-19.76 23.561h10.549v-21.111h-10.549v21.111zM356.862 8.964v6.572h15.852l-1.116 8.022h-14.736v14.649h-9.21l-.055-37.319h27.63l-1.507 8.076h-16.857M390.627 6.625c0-3.12 2.513-5.681 5.638-5.681h21.767l-1.507 8.077h-16.633v5.793l14.178 1.449c2.68 0 5.582 2.283 5.582 5.458v10.806c0 3.12-2.512 5.681-5.638 5.681h-22.27l1.507-8.021h17.191v-5.849l-14.399-1.449c-.503 0-5.416-.499-5.416-5.569v-10.695" sketch:type="MSShapeGroup"/><path d="M424.355.889h9.21v37.319h-9.21v-37.319zM468.75.889v37.319h-9.21l-10.548-18.437v18.437h-9.209v-29.298h-2.347l1.453-8.077 10.214.056 10.437 18.547v-18.547h9.21M502.582 38.207h-23.387c-3.125 0-5.695-2.561-5.695-5.681v-25.901c0-3.12 2.57-5.681 5.695-5.681h21.825l-1.507 8.021h-16.69v21.166h10.493v-6.627h-5.972l1.507-8.079h13.731v22.782" sketch:type="MSShapeGroup"/><path d="M538.733 38.207h-9.154l-1.396-5.514h-11.443l-1.339 5.514h-9.098l7.647-29.243h-2.288l1.449-8.076h15.741l9.88 37.319zm-12.558-13.591l-3.685-14.873-3.74 14.873h7.424zM571.658 6.57v13.422c0 3.12-2.513 5.627-5.638 5.627h-14.066v12.588h-9.21v-29.243h-2.399l1.45-8.021h24.225c3.125 0 5.638 2.507 5.638 5.627zm-19.761 11.083h10.551v-8.633h-10.551v8.633zM605.045 6.625v25.901c0 3.12-2.568 5.681-5.693 5.681h-17.693c-3.127 0-5.695-2.561-5.695-5.681v-25.901c0-3.12 2.568-5.681 5.695-5.681h17.693c3.125 0 5.693 2.561 5.693 5.681zm-19.76 23.561h10.548v-21.111h-10.548v21.111zM622.183 25.73h-1.675v12.477h-9.21v-29.243h-2.399l1.45-8.076h24.225c3.125 0 5.637 2.561 5.637 5.681v13.479c0 3.12-2.512 5.681-5.637 5.681h-2.346l8.094 12.477h-10.048l-8.092-12.477zm-1.731-8.021h10.549v-8.689h-10.549v8.689zM654.269 30.076h18.363l-1.449 8.132h-26.123v-37.319h27.684l-1.562 8.076h-16.914v6.572h15.852l-1.116 8.022h-14.736v6.517" sketch:type="MSShapeGroup"/></g></svg>