<svg width="595" height="40" viewBox="0 0 595 40" xmlns="http://www.w3.org/2000/svg" xmlns:sketch="http://www.bohemiancoding.com/sketch/ns"><title>Imported Layers</title><desc>Created with Sketch.</desc><g sketch:type="MSLayerGroup" fill="#fff"><path d="M33.704.898l-4.262 34.745h-7.852l-4.471-11.098-4.628 11.046v.052h-7.85l-4.263-34.745h8.527l2.183 15.712 5.979-13.742h.105l5.874 13.432 2.131-15.401h8.527M45.998 28.072h17.104l-1.351 7.571h-24.332v-34.745h25.788l-1.456 7.519h-15.753v6.119h14.764l-1.04 7.468h-13.725v6.069M66.636 6.239c0-2.905 2.341-5.29 5.252-5.29h20.275l-1.402 7.52h-15.493v5.393l13.205 1.349c2.496 0 5.199 2.126 5.199 5.081v10.061c0 2.905-2.34 5.29-5.252 5.29h-20.744l1.404-7.468h16.013v-5.446l-13.412-1.349c-.469 0-5.045-.466-5.045-5.185v-9.957M121.854 8.469h-8.63v27.174h-8.579v-27.174h-8.943l1.352-7.52h26.152l-1.352 7.52M134.843 28.175h17.677l-1.351 7.468h-19.705c-2.911 0-5.303-2.385-5.303-5.29v-24.114c0-2.905 2.392-5.29 5.303-5.29h21.005l-1.405 7.571h-16.221v19.655M183.463.898v34.745h-8.63v-13.64h-9.826v13.64h-8.579v-34.745h8.579v13.637h9.826v-13.637h8.63M196.791 28.072h17.106l-1.351 7.571h-24.332v-34.745h25.788l-1.456 7.519h-15.755v6.119h14.766l-1.04 7.468h-13.726v6.069M217.429 6.239c0-2.905 2.341-5.29 5.252-5.29h20.275l-1.402 7.52h-15.493v5.393l13.205 1.349c2.496 0 5.199 2.126 5.199 5.081v10.061c0 2.905-2.34 5.29-5.252 5.29h-20.744l1.404-7.468h16.013v-5.446l-13.412-1.349c-.469 0-5.045-.466-5.045-5.185v-9.957M272.647 8.469h-8.63v27.174h-8.579v-27.174h-8.943l1.352-7.52h26.151l-1.351 7.52M286.115 28.072h17.106l-1.352 7.571h-24.332v-34.745h25.787l-1.455 7.519h-15.753v6.119h14.766l-1.04 7.468h-13.726v6.069" sketch:type="MSShapeGroup"/><path d="M318.264 24.026h-1.56v11.617h-8.579v-27.226h-2.235l1.352-7.519h22.564c2.911 0 5.252 2.385 5.252 5.29v12.549c0 2.905-2.341 5.29-5.252 5.29h-2.183l7.538 11.617h-9.359l-7.538-11.617zm-1.612-7.468h9.826v-8.09h-9.826v8.09zM349.551 28.902l-3.848 10.683h-7.434l2.651-10.683h8.632M392.388.898v34.745h-8.579l-9.826-17.166v17.166h-8.578v-27.277h-2.185l1.354-7.52 9.512.052 9.723 17.268v-17.268h8.579M405.565 28.072h17.106l-1.352 7.571h-24.332v-34.745h25.787l-1.455 7.519h-15.753v6.119h14.766l-1.04 7.468h-13.726v6.069M459.213.898l-4.265 34.745h-7.85l-4.471-11.098-4.627 11.046v.052h-7.852l-4.263-34.745h8.527l2.185 15.712 5.979-13.742h.102l5.876 13.432 2.132-15.401h8.527M490.092 23.819v11.823h-8.579v-11.979l-10.086-22.766h9.825l4.576 11.72 4.783-11.72h9.879l-10.398 22.921" sketch:type="MSShapeGroup"/><path d="M530.205 6.239v24.114c0 2.905-2.392 5.29-5.303 5.29h-16.482c-2.911 0-5.302-2.385-5.302-5.29v-24.114c0-2.905 2.391-5.29 5.302-5.29h16.482c2.911 0 5.303 2.385 5.303 5.29zm-18.405 21.937h9.828v-19.655h-9.828v19.655zM546.17 24.026h-1.56v11.617h-8.579v-27.226h-2.235l1.351-7.519h22.564c2.912 0 5.252 2.385 5.252 5.29v12.549c0 2.905-2.34 5.29-5.252 5.29h-2.183l7.538 11.617h-9.358l-7.538-11.617zm-1.612-7.468h9.826v-8.09h-9.826v8.09zM594.909 35.643h-10.034l-8.11-13.64h-.832v13.64h-8.579v-34.745h8.579v13.586h.884l8.059-13.586h10.034l-10.971 17.32 10.971 17.425" sketch:type="MSShapeGroup"/></g></svg>