<svg width="609" height="40" viewBox="0 0 609 40" xmlns="http://www.w3.org/2000/svg" xmlns:sketch="http://www.bohemiancoding.com/sketch/ns"><title>Imported Layers</title><desc>Created with Sketch.</desc><g sketch:type="MSLayerGroup" fill="#fff"><path d="M.505 6.611c0-3.24 2.606-5.9 5.849-5.9h22.588l-1.565 8.388h-17.259v6.015l14.711 1.505c2.78 0 5.792 2.371 5.792 5.668v11.222c0 3.24-2.606 5.9-5.849 5.9h-23.109l1.565-8.329h17.838v-6.074l-14.943-1.505c-.521 0-5.618-.52-5.618-5.783v-11.106" sketch:type="MSShapeGroup"/><path d="M65.536 6.611v26.897c0 3.24-2.665 5.9-5.907 5.9h-18.36c-3.244 0-5.906-2.66-5.906-5.9v-26.897c0-3.24 2.662-5.9 5.906-5.9h18.36c3.243 0 5.907 2.66 5.907 5.9zm-20.503 24.468h10.946v-21.923h-10.946v21.923zM107.297.654v38.754h-9.614v-17.352l-7.933 15.155h-.119l-8.049-15.388v17.585h-9.557v-30.368h-2.489l1.562-8.386h10.484l8.109 15.386 7.935-15.386h9.671M122.034 30.963h19.055l-1.508 8.445h-27.105v-38.754h28.727l-1.622 8.386h-17.547v6.825h16.447l-1.158 8.331h-15.289v6.768M181.794.654l-4.749 38.754h-8.745l-4.982-12.378-5.153 12.32v.058h-8.746l-4.749-38.754h9.498l2.432 17.525 6.661-15.326h.116l6.545 14.98 2.374-17.178h9.498M215.991.654v38.754h-9.615v-15.212h-10.946v15.212h-9.555v-38.754h9.555v15.211h10.946v-15.211h9.615M230.836 30.963h19.056l-1.508 8.445h-27.105v-38.754h28.727l-1.622 8.386h-17.548v6.825h16.448l-1.158 8.331h-15.29v6.768" sketch:type="MSShapeGroup"/><path d="M266.65 26.451h-1.739v12.957h-9.557v-30.368h-2.489l1.507-8.386h25.135c3.243 0 5.85 2.66 5.85 5.9v13.997c0 3.24-2.608 5.9-5.85 5.9h-2.432l8.397 12.957h-10.424l-8.397-12.957zm-1.796-8.329h10.946v-9.023h-10.946v9.023zM299.941 30.963h19.055l-1.508 8.445h-27.103v-38.754h28.725l-1.622 8.386h-17.547v6.825h16.447l-1.158 8.331h-15.289v6.768" sketch:type="MSShapeGroup"/><path d="M336.078.654h9.557v38.754h-9.557v-38.754zM382.142.654v38.754h-9.557l-10.946-19.146v19.146h-9.555v-30.425h-2.434l1.508-8.388 10.598.058 10.829 19.26v-19.26h9.557M409.416 31.078h19.691l-1.507 8.329h-21.949c-3.244 0-5.907-2.66-5.907-5.9v-26.897c0-3.24 2.663-5.9 5.907-5.9h23.397l-1.562 8.445h-18.07v21.923" sketch:type="MSShapeGroup"/><path d="M465.388 39.408h-9.498l-1.446-5.726h-11.875l-1.389 5.726h-9.44l7.935-30.368h-2.374l1.503-8.386h16.334l10.25 38.754zm-13.03-14.114l-3.823-15.445-3.88 15.445h7.704zM499.665.654v38.754h-9.555l-10.948-19.146v19.146h-9.557v-30.425h-2.431l1.505-8.388 10.6.058 10.831 19.26v-19.26h9.555" sketch:type="MSShapeGroup"/><path d="M537.254 39.408h-9.498l-1.446-5.726h-11.873l-1.389 5.726h-9.44l7.933-30.368h-2.374l1.505-8.386h16.333l10.25 38.754zm-13.03-14.114l-3.823-15.445-3.88 15.445h7.704zM571.679 6.554v26.895c0 3.298-2.606 5.958-5.85 5.958h-24.325v-30.425h-2.489l1.505-8.272h25.309c3.244 0 5.85 2.603 5.85 5.843zm-20.618 24.409h11.003v-21.98h-11.003v21.98zM608.643 39.408h-9.498l-1.446-5.726h-11.873l-1.391 5.726h-9.44l7.935-30.368h-2.374l1.503-8.386h16.334l10.25 38.754zm-13.03-14.114l-3.823-15.445-3.88 15.445h7.704z" sketch:type="MSShapeGroup"/></g></svg>