<svg width="720" height="40" viewBox="0 0 720 40" xmlns="http://www.w3.org/2000/svg" xmlns:sketch="http://www.bohemiancoding.com/sketch/ns"><title>Imported Layers</title><desc>Created with Sketch.</desc><g sketch:type="MSLayerGroup" fill="#fff"><path d="M38.252.652v38.754h-9.602v-17.352l-7.923 15.154h-.117l-8.04-15.385v17.583h-9.545v-30.366h-2.486l1.56-8.388h10.471l8.098 15.386 7.925-15.386h9.658" sketch:type="MSShapeGroup"/><path d="M43.322.652h9.545v38.754h-9.545v-38.754zM89.502 6.552v26.897c0 3.297-2.603 5.957-5.842 5.957h-24.294v-30.425h-2.488l1.505-8.271h25.277c3.238 0 5.842 2.602 5.842 5.842zm-20.592 24.409h10.991v-21.98h-10.991v21.98zM126.034 6.552v26.897c0 3.297-2.603 5.957-5.843 5.957h-24.294v-30.425h-2.486l1.502-8.271h25.278c3.24 0 5.843 2.602 5.843 5.842zm-20.592 24.409h10.989v-21.98h-10.989v21.98zM157.923 39.406h-27.011l-.058-38.754h9.545v30.309h19.031l-1.506 8.445M173.266 30.962h19.029l-1.502 8.445h-27.071v-38.754h28.689l-1.618 8.388h-17.528v6.825h16.428l-1.157 8.331h-15.271v6.766" sketch:type="MSShapeGroup"/><path d="M239.205 6.611v26.895c0 3.24-2.662 5.9-5.902 5.9h-18.335c-3.24 0-5.898-2.66-5.898-5.9v-26.895c0-3.24 2.658-5.9 5.898-5.9h18.335c3.24 0 5.902 2.66 5.902 5.9zm-20.477 24.466h10.932v-21.922h-10.932v21.922zM253.657 9.04v6.825h16.428l-1.157 8.331h-15.271v15.211h-9.543l-.058-38.754h28.631l-1.56 8.388h-17.469" sketch:type="MSShapeGroup"/><path d="M320.577 39.406h-9.486l-1.445-5.725h-11.86l-1.388 5.725h-9.428l7.925-30.366h-2.371l1.502-8.388h16.314l10.237 38.754zm-13.014-14.114l-3.818-15.443-3.875 15.443h7.694zM348.542 9.097h-9.602v30.309h-9.545v-30.309h-9.948l1.502-8.386h29.095l-1.503 8.386M380.883 39.406h-27.011l-.058-38.754h9.545v30.309h19.031l-1.506 8.445" sketch:type="MSShapeGroup"/><path d="M418.514 39.406h-9.486l-1.446-5.725h-11.857l-1.389 5.725h-9.429l7.926-30.366h-2.372l1.505-8.388h16.311l10.238 38.754zm-13.015-14.114l-3.815-15.443-3.877 15.443h7.692zM452.748.652v38.754h-9.545l-10.931-19.145v19.145h-9.543v-30.425h-2.432l1.506-8.386 10.585.057 10.815 19.262v-19.262h9.545M485.722 9.097h-9.603v30.309h-9.543v-30.309h-9.949l1.505-8.386h29.094l-1.503 8.386" sketch:type="MSShapeGroup"/><path d="M491.074.652h9.545v38.754h-9.545v-38.754zM515.142 31.077h19.666l-1.503 8.329h-21.923c-3.238 0-5.898-2.66-5.898-5.9v-26.895c0-3.24 2.66-5.9 5.898-5.9h23.369l-1.563 8.445h-18.046v21.922" sketch:type="MSShapeGroup"/><path d="M581.308 6.611v26.895c0 3.24-2.66 5.9-5.898 5.9h-18.335c-3.24 0-5.902-2.66-5.902-5.9v-26.895c0-3.24 2.662-5.9 5.902-5.9h18.335c3.238 0 5.898 2.66 5.898 5.9zm-20.475 24.466h10.932v-21.922h-10.932v21.922zM595.738 31.077h19.668l-1.506 8.329h-21.922c-3.238 0-5.9-2.66-5.9-5.9v-26.895c0-3.24 2.662-5.9 5.9-5.9h23.368l-1.56 8.445h-18.048v21.922M629.354 30.962h19.029l-1.502 8.445h-27.071v-38.754h28.689l-1.618 8.388h-17.528v6.825h16.428l-1.157 8.331h-15.271v6.766" sketch:type="MSShapeGroup"/><path d="M684.817 39.406h-9.486l-1.446-5.725h-11.858l-1.388 5.725h-9.428l7.925-30.366h-2.371l1.502-8.388h16.314l10.237 38.754zm-13.014-14.114l-3.818-15.443-3.875 15.443h7.694zM719.051.652v38.754h-9.543l-10.934-19.145v19.145h-9.545v-30.425h-2.428l1.503-8.386 10.585.057 10.818 19.262v-19.262h9.543" sketch:type="MSShapeGroup"/></g></svg>