<svg width="745" height="40" viewBox="0 0 745 40" xmlns="http://www.w3.org/2000/svg" xmlns:sketch="http://www.bohemiancoding.com/sketch/ns"><title>Imported Layers</title><desc>Created with Sketch.</desc><g sketch:type="MSLayerGroup" fill="#fff"><path d="M.451 6.239c0-2.905 2.334-5.29 5.238-5.29h20.231l-1.402 7.519h-15.457v5.393l13.175 1.349c2.49 0 5.187 2.127 5.187 5.081v10.061c0 2.905-2.333 5.29-5.238 5.29h-20.697l1.402-7.468h15.976v-5.444l-13.384-1.349c-.466 0-5.032-.466-5.032-5.185v-9.957M58.891.897v34.745h-8.558l-9.804-17.164v17.164h-8.559v-27.277h-2.177l1.347-7.519 9.493.051 9.7 17.269v-17.269h8.558" sketch:type="MSShapeGroup"/><path d="M90.28 6.239v24.113c0 2.905-2.385 5.29-5.291 5.29h-16.442c-2.906 0-5.29-2.385-5.29-5.29v-24.113c0-2.905 2.384-5.29 5.29-5.29h16.442c2.905 0 5.291 2.385 5.291 5.29zm-18.361 21.935h9.804v-19.654h-9.804v19.654zM126.789.897l-4.252 34.745h-7.832l-4.462-11.098-4.616 11.047v.051h-7.832l-4.253-34.745h8.507l2.178 15.713 5.964-13.742h.105l5.861 13.432 2.126-15.403h8.507M169.322.897l-9.181 34.745h-11.877l-9.129-34.745h8.507l6.586 24.945 6.588-24.945h8.507" sketch:type="MSShapeGroup"/><path d="M198.772 35.641h-8.507l-1.297-5.132h-10.633l-1.246 5.132h-8.456l7.108-27.225h-2.127l1.349-7.52h14.627l9.181 34.745zm-11.672-12.654l-3.421-13.846-3.477 13.846h6.898zM226.552 35.641h-24.225l-.051-34.745h8.558v27.174h17.065l-1.347 7.571M255.85 35.641h-24.222l-.052-34.745h8.559v27.174h17.066l-1.351 7.571M269.61 28.07h17.066l-1.351 7.571h-24.275v-34.745h25.727l-1.453 7.52h-15.715v6.119h14.732l-1.037 7.468h-13.694v6.068M308.357 23.818v11.823h-8.559v-11.978l-10.063-22.767h9.802l4.565 11.72 4.772-11.72h9.856l-10.373 22.921M326.798 28.899l-3.84 10.684h-7.417l2.645-10.684h8.612M374.31.897v34.745h-8.612v-15.557l-7.106 13.588h-.102l-7.211-13.796v15.766h-8.558v-27.225h-2.231l1.4-7.52h9.388l7.262 13.794 7.105-13.794h8.664" sketch:type="MSShapeGroup"/><path d="M408.028 35.641h-8.507l-1.298-5.132h-10.631l-1.246 5.132h-8.456l7.108-27.225h-2.127l1.349-7.52h14.627l9.181 34.745zm-11.672-12.654l-3.421-13.846-3.477 13.846h6.898zM410.894 6.239c0-2.905 2.333-5.29 5.238-5.29h20.231l-1.402 7.519h-15.457v5.393l13.175 1.349c2.49 0 5.187 2.127 5.187 5.081v10.061c0 2.905-2.334 5.29-5.238 5.29h-20.697l1.402-7.468h15.976v-5.444l-13.384-1.349c-.466 0-5.032-.466-5.032-5.185v-9.957M441.822 6.239c0-2.905 2.333-5.29 5.238-5.29h20.231l-1.402 7.519h-15.457v5.393l13.175 1.349c2.49 0 5.187 2.127 5.187 5.081v10.061c0 2.905-2.334 5.29-5.238 5.29h-20.697l1.402-7.468h15.976v-5.444l-13.384-1.349c-.466 0-5.032-.466-5.032-5.185v-9.957" sketch:type="MSShapeGroup"/><path d="M501.923 35.641h-8.507l-1.297-5.132h-10.634l-1.244 5.132h-8.454l7.105-27.225h-2.126l1.348-7.52h14.628l9.181 34.745zm-11.672-12.654l-3.424-13.846-3.474 13.846h6.898zM513.555 28.174h17.636l-1.347 7.468h-19.66c-2.906 0-5.291-2.385-5.291-5.29v-24.113c0-2.905 2.385-5.29 5.291-5.29h20.955l-1.4 7.571h-16.184v19.654M562.062.897v34.745h-8.612v-13.639h-9.802v13.639h-8.558v-34.745h8.558v13.639h9.802v-13.639h8.612M593.649.897v34.745h-21.735c-2.906 0-5.238-2.385-5.238-5.29v-29.455h8.558v27.174h9.805v-27.174h8.61M597.822 6.239c0-2.905 2.334-5.29 5.238-5.29h20.231l-1.4 7.519h-15.457v5.393l13.174 1.349c2.49 0 5.187 2.127 5.187 5.081v10.061c0 2.905-2.333 5.29-5.238 5.29h-20.697l1.402-7.468h15.976v-5.444l-13.384-1.349c-.466 0-5.032-.466-5.032-5.185v-9.957M637.803 28.07h17.065l-1.348 7.571h-24.275v-34.745h25.727l-1.453 7.52h-15.717v6.119h14.73l-1.036 7.468h-13.694v6.068M683.499 8.468h-8.61v27.174h-8.558v-27.174h-8.922l1.347-7.519h26.092l-1.348 7.519M712.859 8.468h-8.61v27.174h-8.558v-27.174h-8.922l1.348-7.519h26.092l-1.349 7.519M717.111 6.239c0-2.905 2.336-5.29 5.24-5.29h20.228l-1.4 7.519h-15.457v5.393l13.175 1.349c2.49 0 5.187 2.127 5.187 5.081v10.061c0 2.905-2.334 5.29-5.24 5.29h-20.696l1.4-7.468h15.976v-5.444l-13.382-1.349c-.466 0-5.032-.466-5.032-5.185v-9.957" sketch:type="MSShapeGroup"/></g></svg>