<svg width="525" height="39" viewBox="0 0 525 39" xmlns="http://www.w3.org/2000/svg" xmlns:sketch="http://www.bohemiancoding.com/sketch/ns"><title>Imported Layers</title><desc>Created with Sketch.</desc><g sketch:type="MSLayerGroup" fill="#fff"><path d="M32.064.887v37.319h-9.218l-10.557-18.436v18.436h-9.218v-29.298h-2.348l1.455-8.076 10.223.055 10.446 18.548v-18.548h9.218" sketch:type="MSShapeGroup"/><path d="M65.87 6.625v25.899c0 3.12-2.569 5.681-5.698 5.681h-17.709c-3.128 0-5.7-2.561-5.7-5.681v-25.899c0-3.12 2.572-5.681 5.7-5.681h17.709c3.129 0 5.698 2.561 5.698 5.681zm-19.776 23.56h10.559v-21.11h-10.559v21.11zM83.025 25.729h-1.676v12.477h-9.217v-29.241h-2.403l1.452-8.077h24.247c3.128 0 5.642 2.561 5.642 5.681v13.479c0 3.12-2.514 5.681-5.642 5.681h-2.346l8.101 12.477h-10.056l-8.101-12.477zm-1.731-8.021h10.559v-8.689h-10.559v8.689zM132.836 9.019h-9.273v29.187h-9.217v-29.187h-9.609l1.452-8.076h28.101l-1.453 8.076M167.085.887v37.319h-9.275v-14.647h-10.557v14.647h-9.218v-37.319h9.218v14.649h10.557v-14.649h9.275" sketch:type="MSShapeGroup"/><path d="M213.562 6.625v25.899c0 3.12-2.571 5.681-5.698 5.681h-17.709c-3.129 0-5.7-2.561-5.7-5.681v-25.899c0-3.12 2.571-5.681 5.7-5.681h17.709c3.128 0 5.698 2.561 5.698 5.681zm-19.777 23.56h10.559v-21.11h-10.559v21.11zM227.52 8.964v6.572h15.866l-1.117 8.022h-14.749v14.647h-9.218l-.055-37.319h27.654l-1.508 8.077h-16.872M261.315 6.625c0-3.12 2.516-5.681 5.643-5.681h21.786l-1.507 8.076h-16.649v5.793l14.19 1.449c2.682 0 5.587 2.284 5.587 5.458v10.806c0 3.12-2.514 5.681-5.643 5.681h-22.29l1.508-8.021h17.206v-5.847l-14.412-1.449c-.504 0-5.42-.501-5.42-5.569v-10.695M304.245 30.185h18.994l-1.45 8.021h-21.174c-3.129 0-5.7-2.561-5.7-5.681v-25.899c0-3.12 2.571-5.681 5.7-5.681h22.569l-1.51 8.132h-17.429v21.11" sketch:type="MSShapeGroup"/><path d="M356.387 6.625v25.899c0 3.12-2.571 5.681-5.698 5.681h-17.71c-3.129 0-5.697-2.561-5.697-5.681v-25.899c0-3.12 2.568-5.681 5.697-5.681h17.71c3.128 0 5.698 2.561 5.698 5.681zm-19.777 23.56h10.559v-21.11h-10.559v21.11zM388.212 9.019h-9.275v29.187h-9.218v-29.187h-9.609l1.455-8.076h28.099l-1.452 8.076M419.449 38.206h-26.09l-.055-37.319h9.218v29.187h18.379l-1.452 8.132" sketch:type="MSShapeGroup"/><path d="M455.792 38.206h-9.162l-1.395-5.513h-11.453l-1.342 5.513h-9.105l7.654-29.241h-2.29l1.45-8.077h15.756l9.887 37.319zm-12.569-13.591l-3.688-14.871-3.743 14.871h7.431zM488.856.887v37.319h-9.217l-10.559-18.436v18.436h-9.22v-29.298h-2.345l1.452-8.076 10.224.055 10.447 18.548v-18.548h9.217" sketch:type="MSShapeGroup"/><path d="M524.221 6.569v25.901c0 3.175-2.514 5.736-5.642 5.736h-23.463v-29.298h-2.403l1.453-7.964h24.413c3.128 0 5.642 2.505 5.642 5.625zm-19.888 23.505h10.615v-21.166h-10.615v21.166z" sketch:type="MSShapeGroup"/></g></svg>