<svg width="748" height="40" viewBox="0 0 748 40" xmlns="http://www.w3.org/2000/svg" xmlns:sketch="http://www.bohemiancoding.com/sketch/ns"><title>Imported Layers</title><desc>Created with Sketch.</desc><g sketch:type="MSLayerGroup" fill="#fff"><path d="M.448 6.109c0-2.903 2.339-5.29 5.25-5.29h20.275l-1.403 7.52h-15.492v5.393l13.204 1.349c2.496 0 5.199 2.126 5.199 5.083v10.059c0 2.905-2.338 5.291-5.25 5.291h-20.742l1.405-7.469h16.011v-5.446l-13.413-1.348c-.467 0-5.042-.466-5.042-5.186v-9.957" sketch:type="MSShapeGroup"/><path d="M60.679 35.514h-8.525l-1.3-5.135h-10.657l-1.247 5.135h-8.473l7.121-27.228h-2.131l1.351-7.519h14.66l9.201 34.746zm-11.696-12.654l-3.433-13.847-3.481 13.847h6.915zM91.447.768v34.746h-8.578l-9.825-17.167v17.167h-8.576v-27.279h-2.185l1.352-7.52 9.512.052 9.721 17.269v-17.269h8.578M115.979 8.287v6.12h14.762l-1.038 7.468h-13.724v13.64h-8.576l-.053-34.746h25.731l-1.403 7.519h-15.698" sketch:type="MSShapeGroup"/><path d="M147.794 23.898h-1.558v11.617h-8.578v-27.228h-2.236l1.352-7.519h22.56c2.912 0 5.251 2.386 5.251 5.29v12.55c0 2.903-2.339 5.29-5.251 5.29h-2.183l7.537 11.617h-9.356l-7.538-11.617zm-1.612-7.468h9.825v-8.09h-9.825v8.09zM198.304 35.514h-8.525l-1.3-5.135h-10.657l-1.247 5.135h-8.473l7.121-27.228h-2.131l1.351-7.519h14.66l9.201 34.746zm-11.696-12.654l-3.433-13.847-3.481 13.847h6.915zM229.072.768v34.746h-8.578l-9.825-17.167v17.167h-8.576v-27.279h-2.185l1.352-7.52 9.512.052 9.721 17.269v-17.269h8.578M242.1 28.046h17.674l-1.351 7.469h-19.702c-2.91 0-5.302-2.386-5.302-5.291v-24.114c0-2.903 2.392-5.29 5.302-5.29h21.002l-1.405 7.571h-16.218v19.655" sketch:type="MSShapeGroup"/><path d="M263.655.768h8.578v34.746h-8.578v-34.746zM276.51 6.109c0-2.903 2.341-5.29 5.251-5.29h20.272l-1.402 7.52h-15.491v5.393l13.203 1.349c2.496 0 5.199 2.126 5.199 5.083v10.059c0 2.905-2.339 5.291-5.251 5.291h-20.741l1.403-7.469h16.011v-5.446l-13.41-1.348c-.469 0-5.044-.466-5.044-5.186v-9.957M316.457 28.046h17.674l-1.351 7.469h-19.702c-2.91 0-5.301-2.386-5.301-5.291v-24.114c0-2.903 2.391-5.29 5.301-5.29h21.002l-1.405 7.571h-16.218v19.655" sketch:type="MSShapeGroup"/><path d="M364.976 6.109v24.114c0 2.905-2.392 5.291-5.302 5.291h-16.48c-2.912 0-5.301-2.386-5.301-5.291v-24.114c0-2.903 2.389-5.29 5.301-5.29h16.48c2.91 0 5.302 2.386 5.302 5.29zm-18.403 21.937h9.825v-19.655h-9.825v19.655zM378.915 28.772l-3.846 10.683h-7.433l2.65-10.683h8.629M421.331.768v34.746h-21.782c-2.912 0-5.25-2.386-5.25-5.291v-29.455h8.576v27.174h9.825v-27.174h8.63M454.006.768v34.746h-8.576l-9.825-17.167v17.167h-8.578v-27.279h-2.183l1.351-7.52 9.514.052 9.721 17.269v-17.269h8.576" sketch:type="MSShapeGroup"/><path d="M458.516.768h8.576v34.746h-8.576v-34.746zM496.747 8.339h-8.629v27.175h-8.576v-27.175h-8.941l1.351-7.52h26.148l-1.352 7.52M510.215 27.942h17.103l-1.354 7.572h-24.329v-34.746h25.785l-1.456 7.519h-15.749v6.12h14.762l-1.04 7.468h-13.723v6.068" sketch:type="MSShapeGroup"/><path d="M559.28 6.058v24.113c0 2.957-2.339 5.343-5.251 5.343h-21.833v-27.279h-2.234l1.349-7.417h22.718c2.912 0 5.251 2.335 5.251 5.239zm-18.506 21.884h9.876v-19.706h-9.876v19.706zM574.818 6.109c0-2.903 2.338-5.29 5.25-5.29h20.275l-1.405 7.52h-15.491v5.393l13.204 1.349c2.496 0 5.199 2.126 5.199 5.083v10.059c0 2.905-2.338 5.291-5.25 5.291h-20.742l1.405-7.469h16.011v-5.446l-13.413-1.348c-.467 0-5.042-.466-5.042-5.186v-9.957M630.028 8.339h-8.629v27.175h-8.576v-27.175h-8.941l1.349-7.52h26.148l-1.351 7.52" sketch:type="MSShapeGroup"/><path d="M660.924 35.514h-8.525l-1.298-5.135h-10.657l-1.247 5.135h-8.473l7.121-27.228h-2.131l1.351-7.519h14.66l9.2 34.746zm-11.694-12.654l-3.433-13.847-3.481 13.847h6.915zM686.056 8.339h-8.629v27.175h-8.576v-27.175h-8.941l1.351-7.52h26.148l-1.352 7.52M699.522 27.942h17.102l-1.351 7.572h-24.329v-34.746h25.785l-1.456 7.519h-15.751v6.12h14.762l-1.04 7.468h-13.723v6.068M720.157 6.109c0-2.903 2.341-5.29 5.251-5.29h20.272l-1.402 7.52h-15.491v5.393l13.203 1.349c2.496 0 5.199 2.126 5.199 5.083v10.059c0 2.905-2.339 5.291-5.251 5.291h-20.741l1.403-7.469h16.011v-5.446l-13.41-1.348c-.469 0-5.044-.466-5.044-5.186v-9.957" sketch:type="MSShapeGroup"/></g></svg>