<svg width="506" height="120" viewBox="0 0 506 120" xmlns="http://www.w3.org/2000/svg" xmlns:sketch="http://www.bohemiancoding.com/sketch/ns"><title>Imported Layers</title><desc>Created with Sketch.</desc><g sketch:type="MSLayerGroup" fill="#fff"><path d="M41.747 8.615v19.145h-15.892v-11.623c-1.669-1.003-3.289-1.505-4.862-1.505-1.671 0-3.246.502-4.726 1.505v20.782l20.96 3.829c1.918.365 3.151.981 3.699 1.846.549.867.822 2.303.822 4.307v61.535c0 2.827-2.923 4.923-8.767 6.29-3.836.912-7.857 1.368-12.055 1.368-4.569 0-8.586-.456-12.057-1.368-5.479-1.367-8.219-3.645-8.219-6.837v-34.868h15.618v28.441c1.575.912 3.151 1.367 4.726 1.367 1.573 0 3.194-.455 4.862-1.365v-46.664l-21.243-4.018c-2.643-.913-3.964-2.737-3.964-5.475v-36.271c0-3.01 2.83-5.293 8.494-6.843 3.836-1.095 7.898-1.733 12.192-1.917 5.022-.09 9.68.571 13.974 1.983 4.293 1.415 6.439 3.534 6.439 6.358M57.52 3.419h22.331l14.661 109.664h-12.3l-1.099-8.206-16.591 1.367-.686 6.839h-15.77l9.453-109.664zm21.556 87.248l-7.98-60.731-5.356 61.954 13.336-1.223zm59.535-86.017l-11.78 108.981h-21.51l-11.779-108.965 15.791-1.782 6.742 61.834 6.745-61.85 15.792 1.782M148.686 3.419h22.33l14.661 109.664h-12.3l-1.099-8.206-16.591 1.367-.685 6.839h-15.77l9.453-109.664zm21.555 87.248l-7.98-60.731-5.356 61.954 13.336-1.223zm30.208-86.564h20.002c2.74 0 5.09.981 7.056 2.941 1.962 1.961 2.946 4.306 2.946 7.041v11.623h-14.934v-10.119h-10.137v86.829h10.137v-28.578h14.934v45.397h-14.934v-5.059h-15.069c-2.74 0-5.092-.979-7.056-2.939-1.965-1.96-2.945-4.307-2.945-7.042v-90.112c0-2.735.98-5.081 2.945-7.041 1.963-1.96 4.316-2.941 7.056-2.941m52.1 84.232v8.752h20.823v15.861h-36.715v-109.528h36.715v15.862h-20.823v54.695l11.919-.956v14.356l-11.919.958m65.21-84.916h15.892v93.803h23.291v15.861h-39.183v-109.664M373.641 3.419h22.331l14.661 109.664h-12.301l-1.098-8.206-16.591 1.367-.686 6.839h-15.77l9.453-109.664zm21.555 87.248l-7.979-60.731-5.356 61.954 13.335-1.223zm20.67-87.248h15.892c7.634 0 13.268.502 16.904 1.504 6.724 1.825 10.269 5.517 10.632 11.077v97.084h-15.891v-94.349c-1.829-2.096-4.614-3.145-8.357-3.145-1.188 0-2.284.184-3.288.547v96.947h-15.892v-109.664" sketch:type="MSShapeGroup"/><path d="M465.55 4.513h.549v-.41l5.838.273c1.991.092 3.983.137 5.975.137h3.258c3.857.184 7.716.273 11.573.273 4.96 2.007 7.854 5.517 8.683 10.53 2.936 17.867 4.082 44.077 3.445 78.624-.092 5.835-2.513 10.03-7.261 12.58-5.48 2.92-10.686 4.923-15.618 6.018-4.111.912-9.59 1.414-16.441 1.504v-109.529zm15.619 13.675l.137 80.129 4.932-2.325c2.191-1.002 3.332-2.803 3.424-5.401.09-2.598.228-7.36.412-14.289.089-13.673-.281-26.937-1.113-39.791-.464-5.925-1.113-10.755-1.948-14.494-.557-2.278-1.996-3.556-4.314-3.829h-1.531z" sketch:type="MSShapeGroup"/></g></svg>