<svg width="672" height="120" viewBox="0 0 672 120" xmlns="http://www.w3.org/2000/svg" xmlns:sketch="http://www.bohemiancoding.com/sketch/ns"><title>Imported Layers</title><desc>Created with Sketch.</desc><g sketch:type="MSLayerGroup" fill="#fff"><path d="M.304.288h15.887v.137c3.834.184 7.669.273 11.504.273 4.93 1.824 7.806 5.333 8.627 10.529 2.739 16.409 3.88 36.421 3.424 60.028-.092 5.107-1.918 8.935-5.477 11.487l5.614 9.297c1.096 1.825 1.644 3.693 1.644 5.607 0 1.733-.458 3.51-1.369 5.332-2.102 4.013-4.612 6.428-7.533 7.248l-32.321-.273v-109.664zm15.887 14.084v56.2l4.931-2.325c2.192-1.002 3.331-2.734 3.423-5.195.365-8.02.457-15.497.275-22.425-.275-7.93-1.233-15.452-2.876-22.562-.548-2.461-1.965-3.692-4.246-3.692h-1.506zm5.205 74.659l-5.205 2.384v6.094h11.093l-5.888-8.478zm25.345-88.196h15.612v.137c3.855.184 7.759.273 11.707.273 4.958 1.825 7.851 5.333 8.68 10.53 2.752 16.226 3.898 36.235 3.443 60.027-.092 5.835-2.512 10.03-7.258 12.58l-1.644.683 12.463 26.118-14.866 7.929-11.699-27.347-.826.411v18.322h-15.612v-109.664zm15.612 18.87v51.413l5.009-2.187c2.32-1.276 3.524-3.053 3.619-5.333.364-7.747.41-14.447.137-20.101-.279-5.925-1.252-12.625-2.921-20.101-.465-2.188-1.856-3.418-4.175-3.692h-1.669zm41.764-19.417h22.322l14.658 109.664h-12.297l-1.098-8.206-16.586 1.366-.685 6.84h-15.764l9.45-109.664zm21.548 87.248l-7.977-60.731-5.354 61.953 13.331-1.222zm20.339-86.154h.549v-.41l5.835.273c1.991.092 3.983.137 5.973.137h3.258c3.855.184 7.713.273 11.569.273 4.958 2.007 7.852 5.517 8.679 10.53 2.935 17.867 4.082 44.077 3.444 78.624-.091 5.835-2.512 10.03-7.258 12.58-5.477 2.919-10.682 4.923-15.612 6.017-4.109.912-9.587 1.414-16.435 1.504v-109.528zm15.614 13.675l.136 80.129 4.931-2.325c2.192-1.003 3.332-2.803 3.424-5.402.089-2.597.227-7.36.411-14.288.09-13.674-.28-26.937-1.112-39.791-.465-5.925-1.114-10.755-1.948-14.494-.557-2.278-1.995-3.556-4.312-3.829h-1.529zm30.135-13.675h.549v-.41l5.836.273c1.99.092 3.982.137 5.973.137h3.257c3.855.184 7.714.273 11.569.273 4.958 2.007 7.852 5.517 8.68 10.53 2.935 17.867 4.081 44.077 3.444 78.624-.092 5.835-2.512 10.03-7.259 12.58-5.477 2.919-10.681 4.923-15.612 6.017-4.109.912-9.587 1.414-16.435 1.504v-109.528zm15.614 13.675l.137 80.129 4.931-2.325c2.191-1.003 3.331-2.803 3.423-5.402.09-2.597.228-7.36.411-14.288.09-13.674-.28-26.937-1.112-39.791-.464-5.925-1.113-10.755-1.947-14.494-.557-2.278-1.995-3.556-4.312-3.829h-1.53zm40.458-14.906h19.995c2.739 0 5.089.981 7.053 2.939 1.962 1.962 2.944 4.307 2.944 7.042v90.111c0 2.734-.982 5.083-2.944 7.041-1.965 1.962-4.314 2.941-7.053 2.941h-19.995c-2.831 0-5.205-.957-7.122-2.872-1.918-1.914-2.876-4.283-2.876-7.11v-90.111c0-2.825.958-5.197 2.876-7.11 1.918-1.915 4.291-2.872 7.122-2.872zm4.931 98.314h10.133v-86.829h-10.133v86.829zm41.197-97.494h19.994c2.739 0 5.09.981 7.053 2.939 1.962 1.962 2.945 4.307 2.945 7.042v11.76h-14.928v-9.982h-10.134v86.554h10.134v-5.332h14.928v7.111c0 2.735-.983 5.083-2.945 7.041-1.964 1.961-4.314 2.939-7.053 2.939h-19.994c-2.74 0-5.092-.979-7.053-2.939-1.965-1.959-2.945-4.306-2.945-7.041v-90.112c0-2.735.98-5.081 2.945-7.042 1.962-1.959 4.313-2.939 7.053-2.939m35.94-.135h15.613v45.671l14.243-45.671 12.735 4.239-18.371 58.449 18.922 39.759-14.886 8.175-10.989-26.095-1.652 5.299v19.84h-15.613v-109.664m83.812-.549h27.978c11.812-.182 20.879 1.277 27.197 4.375 3.48 1.825 5.311 4.56 5.496 8.205v97.084h-15.887v-94.349c-.64-2.188-2.694-3.146-6.162-2.872v97.221h-15.888v-94.349c-2.327-2.096-4.701-2.961-7.121-2.598v96.947h-15.613v-109.664M490.057.288h22.322l14.658 109.664h-12.297l-1.098-8.206-16.586 1.366-.685 6.84h-15.764l9.45-109.664zm21.548 87.248l-7.977-60.731-5.354 61.953 13.331-1.222zm20.663-87.248h15.887c7.631 0 13.262.502 16.898 1.504 6.721 1.825 10.265 5.517 10.629 11.077v97.084h-15.886v-94.349c-1.828-2.096-4.612-3.146-8.355-3.146-1.187 0-2.284.185-3.287.548v96.947h-15.887v-109.664" sketch:type="MSShapeGroup"/><path d="M592.258.151h19.995c2.739 0 5.089.981 7.053 2.939 1.962 1.962 2.944 4.307 2.944 7.042v90.111c0 2.734-.982 5.083-2.944 7.041-1.965 1.962-4.314 2.941-7.053 2.941h-19.995c-2.831 0-5.204-.957-7.121-2.872-1.918-1.914-2.876-4.283-2.876-7.11v-90.111c0-2.825.958-5.197 2.876-7.11 1.918-1.915 4.29-2.872 7.121-2.872zm4.931 98.314h10.133v-86.829h-10.133v86.829zm30.971-97.63h15.612v.137c3.856.184 7.759.273 11.707.273 4.958 1.825 7.851 5.333 8.68 10.53 2.752 16.226 3.898 36.235 3.443 60.027-.092 5.835-2.511 10.03-7.258 12.58l-1.644.683 12.463 26.118-14.864 7.929-11.7-27.347-.826.411v18.322h-15.612v-109.664zm15.612 18.87v51.413l5.009-2.187c2.32-1.276 3.524-3.053 3.619-5.333.364-7.747.411-14.447.137-20.101-.279-5.925-1.252-12.625-2.921-20.101-.464-2.188-1.855-3.418-4.175-3.692h-1.669z" sketch:type="MSShapeGroup"/></g></svg>