<svg width="403" height="120" viewBox="0 0 403 120" xmlns="http://www.w3.org/2000/svg" xmlns:sketch="http://www.bohemiancoding.com/sketch/ns"><title>Imported Layers</title><desc>Created with Sketch.</desc><g sketch:type="MSLayerGroup" fill="#fff"><path d="M.829 3.066l7.4-2.326 4.401 14.927 4.332-14.926 7.399 2.325-7.728 26.634 7.284 24.865-7.445 2.406-3.876-13.36-3.878 13.36-7.444-2.406 7.285-24.866-7.73-26.633M31.632 1.666h10.896l7.155 53.438h-6.002l-.536-3.999-8.096.666-.334 3.333h-7.695l4.613-53.438zm10.518 42.515l-3.894-29.594-2.614 30.189 6.508-.595zm29.051-41.915l-5.748 53.105h-10.496l-5.748-53.098 7.706-.868 3.29 30.131 3.292-30.138 7.705.868M73.983 1.666h7.621v53.438h-7.621v-53.438zm18.995 41.378v4.264h10.161v7.729h-17.916v-53.372h17.916v7.729h-10.161v26.653l5.816-.467v6.996l-5.816.467M106.686 1.933h7.621v.067c1.882.089 3.787.133 5.715.133 2.42.889 3.832 2.599 4.236 5.131 1.343 7.907 1.903 17.657 1.68 29.251-.045 2.843-1.226 4.887-3.543 6.13l-.802.333 6.084 12.727-7.256 3.864-5.711-13.326-.403.2v8.929h-7.621v-53.439zm7.621 9.195v25.053l2.445-1.066c1.132-.622 1.72-1.488 1.766-2.599.178-3.775.2-7.04.067-9.795-.136-2.887-.611-6.152-1.426-9.795-.227-1.066-.906-1.666-2.038-1.799h-.814zm15.82-9.329h7.822v14.126h-5.014v-6.397h-2.808v-7.729m32.148 2.399v9.329h-7.755v-5.664c-.815-.489-1.605-.733-2.373-.733-.815 0-1.584.244-2.306.733v10.127l10.229 1.866c.936.178 1.537.478 1.805.899.267.423.401 1.122.401 2.099v29.985c0 1.377-1.427 2.398-4.279 3.065-1.872.444-3.833.666-5.883.666-2.229 0-4.19-.222-5.883-.666-2.674-.667-4.011-1.776-4.011-3.332v-16.991h7.621v13.859c.769.444 1.538.666 2.306.666s1.559-.222 2.373-.665v-22.739l-10.366-1.958c-1.29-.445-1.934-1.334-1.934-2.667v-17.675c0-1.467 1.381-2.579 4.145-3.335 1.872-.533 3.854-.845 5.95-.934 2.45-.044 4.723.278 6.819.966 2.094.689 3.142 1.722 3.142 3.098m40.444.001v9.329h-7.755v-5.664c-.815-.489-1.605-.733-2.373-.733-.815 0-1.584.244-2.307.733v10.127l10.229 1.866c.936.178 1.538.478 1.805.899.268.423.401 1.122.401 2.099v29.985c0 1.377-1.427 2.398-4.279 3.065-1.871.444-3.833.666-5.883.666-2.229 0-4.19-.222-5.883-.666-2.674-.667-4.011-1.776-4.011-3.332v-16.991h7.621v13.859c.769.444 1.538.666 2.307.666.768 0 1.558-.222 2.373-.665v-22.739l-10.366-1.958c-1.29-.445-1.934-1.334-1.934-2.667v-17.675c0-1.467 1.381-2.579 4.145-3.335 1.872-.533 3.854-.845 5.949-.934 2.451-.044 4.724.278 6.819.966 2.095.689 3.142 1.722 3.142 3.098m8.012-2.198h9.76c1.337 0 2.484.478 3.443 1.433.958.955 1.438 2.098 1.438 3.431v5.731h-7.288v-4.864h-4.946v42.177h4.946v-2.599h7.288v3.465c0 1.333-.48 2.477-1.438 3.431-.959.956-2.106 1.432-3.443 1.432h-9.76c-1.337 0-2.485-.476-3.443-1.432-.959-.954-1.437-2.098-1.437-3.431v-43.91c0-1.333.478-2.476 1.437-3.431.958-.955 2.106-1.433 3.443-1.433m17.544-.333h7.621v41.111l5.348-.466v-40.645h7.755v53.438h-7.755v-5.797l-5.348.4v5.397h-7.621v-53.438M256.96 1.6h9.76c1.338 0 2.484.478 3.443 1.432.958.956 1.438 2.099 1.438 3.432v43.91c0 1.333-.48 2.477-1.438 3.432-.959.956-2.105 1.432-3.443 1.432h-9.76c-1.381 0-2.54-.466-3.476-1.399-.936-.933-1.404-2.087-1.404-3.465v-43.91c0-1.376.468-2.532 1.404-3.465.936-.933 2.095-1.399 3.476-1.399zm2.407 47.908h4.946v-42.311h-4.946v42.311zm20.11-47.908h9.76c1.337 0 2.484.478 3.443 1.432.958.956 1.437 2.099 1.437 3.432v43.91c0 1.333-.48 2.477-1.437 3.432-.959.956-2.106 1.432-3.443 1.432h-9.76c-1.382 0-2.54-.466-3.476-1.399-.936-.933-1.404-2.087-1.404-3.465v-43.91c0-1.376.468-2.532 1.404-3.465.936-.933 2.094-1.399 3.476-1.399zm2.407 47.908h4.946v-42.311h-4.946v42.311zm15.276-47.842h7.755v45.709h11.365v7.729h-19.12v-53.438m47.865 41.378v12.06h-7.621v-53.438h17.849v7.729h-10.229v26.653l5.883-.467v6.996l-5.883.467M363.922 1.6h9.76c1.337 0 2.484.478 3.443 1.432.958.956 1.438 2.099 1.438 3.432v43.91c0 1.333-.48 2.477-1.438 3.432-.959.956-2.106 1.432-3.443 1.432h-9.76c-1.381 0-2.54-.466-3.476-1.399-.936-.933-1.404-2.087-1.404-3.465v-43.91c0-1.376.468-2.532 1.404-3.465.936-.933 2.095-1.399 3.476-1.399zm2.407 47.908h4.946v-42.311h-4.946v42.311zm15.119-47.575h7.621v.067c1.882.089 3.787.133 5.715.133 2.42.889 3.832 2.599 4.236 5.131 1.343 7.907 1.903 17.657 1.68 29.251-.045 2.843-1.226 4.887-3.543 6.13l-.802.333 6.083 12.727-7.256 3.864-5.711-13.326-.403.2v8.929h-7.621v-53.439zm7.621 9.195v25.053l2.445-1.066c1.132-.622 1.72-1.488 1.766-2.599.178-3.775.2-7.04.067-9.795-.136-2.887-.611-6.152-1.426-9.795-.227-1.066-.906-1.666-2.038-1.799h-.814zm-383.36 50.872h9.76c1.337 0 2.484.477 3.443 1.432.958.956 1.438 2.099 1.438 3.431v5.664h-7.287v-4.931h-4.947v42.311h4.947v-13.926h7.287v22.122h-7.287v-2.466h-7.353c-1.337 0-2.485-.477-3.443-1.432-.959-.955-1.438-2.099-1.438-3.432v-43.91c0-1.332.479-2.475 1.438-3.431.958-.955 2.106-1.432 3.443-1.432M23.345 61.666h7.621v53.438h-7.621v-53.438zm18.737 41.378v12.06h-7.621v-53.438h17.849v7.729h-10.229v26.652l5.883-.466v6.996l-5.883.467m27.346-33.248v45.775h-7.754v-45.775h-5.549v-7.729h18.919v7.729h-5.616m16.269 33.248v4.265h10.161v7.729h-17.917v-53.372h17.917v7.729h-10.161v26.652l5.816-.466v6.996l-5.816.467M99.371 62.199h.268v-.199l2.849.133c.971.045 1.944.067 2.916.067h1.59c1.882.09 3.765.134 5.647.134 2.42.978 3.833 2.688 4.237 5.131 1.432 8.707 1.992 21.478 1.681 38.313-.045 2.843-1.227 4.887-3.544 6.13-2.674 1.423-5.214 2.399-7.621 2.932-2.006.444-4.68.689-8.023.733v-53.372zm7.622 6.664l.067 39.046 2.406-1.133c1.07-.488 1.626-1.366 1.671-2.632.044-1.266.111-3.586.2-6.963.044-6.663-.137-13.126-.543-19.39-.227-2.887-.544-5.241-.95-7.063-.272-1.11-.974-1.733-2.105-1.866h-.747zm45.591 34.381v11.727h-7.754v-11.727h-3.61c-1.293 0-1.939-.843-1.939-2.532v-38.846h7.621v33.649h3.476v-33.649h7.822v39.446c0 1.288-.736 1.932-2.206 1.932h-3.41M166.31 61.6h9.76c1.337 0 2.484.477 3.443 1.432.958.955 1.437 2.099 1.437 3.431v43.91c0 1.333-.48 2.477-1.437 3.432-.959.956-2.106 1.433-3.443 1.433h-9.76c-1.382 0-2.54-.467-3.476-1.399-.936-.933-1.404-2.088-1.404-3.465v-43.91c0-1.376.468-2.532 1.404-3.465.936-.933 2.094-1.399 3.476-1.399zm2.407 47.907h4.946v-42.311h-4.946v42.311zm22.583-47.507v47.907h4.88v-47.907h7.287v48.774c0 1.333-.48 2.477-1.437 3.432-.959.955-2.106 1.432-3.443 1.432h-9.76c-1.337 0-2.485-.477-3.443-1.432-.959-.955-1.438-2.099-1.438-3.432v-48.774h7.354m15.177-.334h7.755c3.725 0 6.474.245 8.249.733 3.281.889 5.011 2.688 5.188 5.397v47.308h-7.755v-45.975c-.892-1.022-2.251-1.533-4.078-1.533-.58 0-1.115.089-1.604.266v47.241h-7.755v-53.438m29.283.335h9.76c1.337 0 2.484.477 3.443 1.432.958.956 1.437 2.099 1.437 3.431v5.664h-7.287v-4.931h-4.946v42.311h4.946v-13.926h7.287v22.122h-7.287v-2.466h-7.353c-1.337 0-2.485-.477-3.443-1.432-.959-.955-1.438-2.099-1.438-3.432v-43.91c0-1.332.479-2.475 1.438-3.431.958-.955 2.106-1.432 3.443-1.432m37.692 2.198v9.328h-7.755v-5.663c-.815-.488-1.605-.733-2.373-.733-.815 0-1.584.245-2.306.733v10.127l10.228 1.866c.936.177 1.538.477 1.805.899.267.423.401 1.122.401 2.099v29.985c0 1.377-1.427 2.399-4.279 3.065-1.872.444-3.834.667-5.883.667-2.229 0-4.19-.222-5.883-.667-2.674-.666-4.011-1.776-4.011-3.332v-16.991h7.621v13.859c.769.444 1.538.666 2.306.666s1.559-.222 2.373-.665v-22.739l-10.366-1.958c-1.29-.445-1.934-1.334-1.934-2.667v-17.675c0-1.467 1.381-2.579 4.145-3.335 1.872-.533 3.854-.844 5.949-.934 2.451-.044 4.724.278 6.819.966 2.094.689 3.142 1.722 3.142 3.099m16.448 5.598v45.775h-7.754v-45.775h-5.549v-7.729h18.919v7.729h-5.616m16.269 33.248v4.265h10.161v7.729h-17.916v-53.372h17.916v7.729h-10.161v26.652l5.816-.466v6.996l-5.816.467M319.876 61.933h7.621v.067c1.882.089 3.787.133 5.715.133 2.42.889 3.832 2.599 4.237 5.131 1.343 7.907 1.903 17.657 1.68 29.251-.045 2.843-1.226 4.887-3.543 6.13l-.802.333 6.084 12.727-7.256 3.864-5.711-13.326-.403.2v8.929h-7.621v-53.438zm7.621 9.195v25.053l2.445-1.066c1.133-.621 1.72-1.488 1.767-2.599.178-3.775.2-7.04.067-9.794-.136-2.887-.611-6.152-1.426-9.795-.227-1.066-.906-1.665-2.038-1.799h-.815zm35.493-6.93v9.328h-7.755v-5.663c-.814-.488-1.605-.733-2.373-.733-.815 0-1.584.245-2.307.733v10.127l10.229 1.866c.936.177 1.538.477 1.805.899.268.423.401 1.122.401 2.099v29.985c0 1.377-1.427 2.399-4.278 3.065-1.872.444-3.834.667-5.883.667-2.229 0-4.19-.222-5.883-.667-2.674-.666-4.011-1.776-4.011-3.332v-16.991h7.621v13.859c.769.444 1.538.666 2.307.666.768 0 1.559-.222 2.373-.665v-22.739l-10.366-1.958c-1.29-.445-1.934-1.334-1.934-2.667v-17.675c0-1.467 1.381-2.579 4.145-3.335 1.872-.533 3.854-.844 5.949-.934 2.451-.044 4.724.278 6.819.966 2.095.689 3.142 1.722 3.142 3.099" sketch:type="MSShapeGroup"/></g></svg>