<svg width="418" height="120" viewBox="0 0 418 120" xmlns="http://www.w3.org/2000/svg" xmlns:sketch="http://www.bohemiancoding.com/sketch/ns"><title>Imported Layers</title><desc>Created with Sketch.</desc><g sketch:type="MSLayerGroup" fill="#fff"><path d="M.51.289h28.044c11.84-.182 20.928 1.277 27.262 4.375 3.489 1.825 5.324 4.56 5.509 8.205v97.084h-15.925v-94.349c-.641-2.188-2.701-3.146-6.178-2.872v97.221h-15.925v-94.349c-2.333-2.096-4.712-2.961-7.138-2.598v96.947h-15.65v-109.664" sketch:type="MSShapeGroup"/><path d="M77.044.289h22.376l14.693 109.664h-12.326l-1.101-8.206-16.626 1.367-.686 6.839h-15.802l9.473-109.664zm21.6 87.248l-7.996-60.731-5.367 61.954 13.363-1.223zm20.387-86.154h.55v-.41l5.85.273c1.995.092 3.991.137 5.986.137h3.265c3.865.184 7.731.273 11.597.273 4.97 2.007 7.87 5.517 8.699 10.53 2.942 17.867 4.092 44.077 3.452 78.624-.091 5.835-2.518 10.03-7.276 12.58-5.491 2.92-10.708 4.923-15.649 6.018-4.119.912-9.61 1.414-16.475 1.504v-109.529zm15.651 13.675l.136 80.129 4.943-2.325c2.197-1.002 3.34-2.803 3.431-5.401.09-2.598.228-7.36.413-14.289.09-13.674-.281-26.937-1.115-39.791-.466-5.925-1.117-10.755-1.953-14.494-.558-2.278-2-3.556-4.322-3.829h-1.533zm30.277-14.222h15.649v.137c3.866.184 7.778.273 11.735.273 4.971 1.825 7.87 5.333 8.7 10.53 2.758 16.226 3.909 36.235 3.451 60.027-.092 5.835-2.517 10.03-7.276 12.581l-1.647.683 12.492 26.117-14.9 7.93-11.728-27.347-.828.41v18.322h-15.649v-109.664zm15.649 18.87v51.413l5.021-2.187c2.326-1.275 3.533-3.053 3.628-5.333.365-7.747.412-14.447.137-20.101-.28-5.925-1.255-12.625-2.928-20.101-.465-2.188-1.86-3.418-4.185-3.692h-1.673zm32.392-19.417h15.65v109.664h-15.65v-109.664zm22.827.137h15.787-.137v.137c1.286 0 3.266.047 5.938.137 2.668.092 4.647.137 5.937.137 4.878 1.825 7.731 5.288 8.561 10.392 2.757 16.866 3.908 36.92 3.452 60.166-.093 6.107-2.52 10.302-7.277 12.58l-16.611 7.794v18.186h-15.65v-109.528zm15.65 18.87v51.307l5.187-2.279c2.306-1 3.505-2.732 3.6-5.19.273-5.827.318-12.519.136-20.075-.278-6.37-1.254-13.062-2.928-20.074-.557-2.184-1.952-3.414-4.182-3.688h-1.812zm40.435-19.144h20.043c2.746 0 5.101.981 7.07 2.939 1.966 1.962 2.952 4.307 2.952 7.042v90.111c0 2.735-.986 5.083-2.952 7.042-1.97 1.962-4.325 2.941-7.07 2.941h-20.043c-2.837 0-5.216-.958-7.138-2.872-1.922-1.915-2.883-4.285-2.883-7.111v-90.111c0-2.825.961-5.197 2.883-7.11 1.922-1.915 4.302-2.872 7.138-2.872zm4.943 98.315h10.158v-86.83h-10.158v86.83zm41.297-98.315h20.043c2.746 0 5.101.981 7.07 2.939 1.966 1.962 2.952 4.307 2.952 7.042v90.111c0 2.735-.986 5.083-2.952 7.042-1.97 1.962-4.325 2.941-7.07 2.941h-20.043c-2.838 0-5.216-.958-7.138-2.872-1.922-1.915-2.883-4.285-2.883-7.111v-90.111c0-2.825.961-5.197 2.883-7.11 1.922-1.915 4.3-2.872 7.138-2.872zm4.943 98.315h10.158v-86.83h-10.158v86.83zm31.046-97.631h15.649v.137c3.866.184 7.778.273 11.735.273 4.971 1.825 7.87 5.333 8.7 10.53 2.758 16.226 3.908 36.235 3.451 60.027-.092 5.835-2.517 10.03-7.276 12.581l-1.648.683 12.493 26.117-14.901 7.93-11.727-27.347-.828.41v18.322h-15.649v-109.664zm15.649 18.87v51.413l5.021-2.187c2.326-1.275 3.533-3.053 3.628-5.333.365-7.747.412-14.447.137-20.101-.28-5.925-1.255-12.625-2.928-20.101-.465-2.188-1.861-3.418-4.185-3.692h-1.673z" sketch:type="MSShapeGroup"/></g></svg>