<svg width="331" height="120" viewBox="0 0 331 120" xmlns="http://www.w3.org/2000/svg" xmlns:sketch="http://www.bohemiancoding.com/sketch/ns"><title>Genosha</title><desc>Created with Sketch.</desc><g sketch:type="MSLayerGroup" fill="#fff"><path d="M10.075 3.949h20.1c2.754 0 5.116.986 7.091 2.958 1.973 1.971 2.96 4.331 2.96 7.082v11.689h-15.007v-10.176h-10.188v87.322h10.188v-28.741h15.007v45.656h-15.007v-5.089h-15.144c-2.754 0-5.118-.984-7.091-2.956-1.975-1.971-2.96-4.331-2.96-7.082v-90.623c0-2.75.986-5.11 2.96-7.082 1.973-1.971 4.337-2.958 7.091-2.958" sketch:type="MSShapeGroup"/><path d="M62.436 88.659v8.801h20.927v15.952h-36.898v-110.15h36.898v15.952h-20.927v55.007l11.977-.962v14.439l-11.977.962" sketch:type="MSShapeGroup"/><path d="M90.923 3.261h15.971c7.671 0 13.333.505 16.988 1.513 6.757 1.835 10.32 5.549 10.685 11.139v97.636h-15.971v-94.886c-1.837-2.108-4.636-3.162-8.398-3.162-1.194 0-2.296.184-3.304.55v97.498h-15.971v-110.287" sketch:type="MSShapeGroup"/><path d="M151.23 3.124h20.1c2.753 0 5.116.986 7.091 2.957 1.973 1.972 2.96 4.331 2.96 7.082v90.623c0 2.75-.987 5.111-2.96 7.082-1.975 1.971-4.337 2.957-7.091 2.957h-20.1c-2.847 0-5.232-.963-7.159-2.888-1.928-1.926-2.892-4.308-2.892-7.151v-90.623c0-2.84.964-5.225 2.892-7.151 1.927-1.925 4.313-2.887 7.159-2.887zm4.956 98.873h10.188v-87.322h-10.188v87.322z" sketch:type="MSShapeGroup"/><path d="M228.856 8.487v19.251h-15.971v-11.688c-1.678-1.008-3.306-1.513-4.887-1.513-1.679 0-3.262.504-4.751 1.513v20.9l21.065 3.85c1.928.367 3.167.987 3.718 1.856.551.873.826 2.317.826 4.332v61.884c0 2.842-2.939 4.951-8.812 6.325-3.854.918-7.895 1.376-12.115 1.376-4.591 0-8.629-.459-12.115-1.376-5.507-1.374-8.261-3.665-8.261-6.875v-35.066h15.695v28.603c1.584.918 3.167 1.375 4.751 1.375 1.581 0 3.209-.457 4.887-1.373v-46.929l-21.348-4.042c-2.657-.918-3.984-2.753-3.984-5.505v-36.478c0-3.028 2.844-5.322 8.537-6.883 3.855-1.1 7.937-1.742 12.253-1.927 5.047-.091 9.728.573 14.043 1.993 4.313 1.423 6.471 3.554 6.471 6.395" sketch:type="MSShapeGroup"/><path d="M235.101 3.261h15.694v84.847l11.015-.962v-83.885h15.971v110.287h-15.971v-11.963l-11.015.825v11.138h-15.694v-110.287" sketch:type="MSShapeGroup"/><path d="M293.595 3.261h22.441l14.735 110.287h-12.361l-1.103-8.252-16.674 1.375-.688 6.878h-15.849l9.5-110.287zm21.663 87.744l-8.019-61.076-5.383 62.305 13.402-1.229z" sketch:type="MSShapeGroup"/></g></svg>