<svg width="432" height="120" viewBox="0 0 432 120" xmlns="http://www.w3.org/2000/svg" xmlns:sketch="http://www.bohemiancoding.com/sketch/ns"><title>Imported Layers</title><desc>Created with Sketch.</desc><g sketch:type="MSLayerGroup" fill="#fff"><path d="M.415 1.422h15.612-.136v.136c1.272 0 3.23.047 5.872.136 2.639.091 4.596.136 5.871.136 4.823 1.809 7.645 5.243 8.466 10.302 2.728 16.72 3.864 36.602 3.414 59.647-.092 6.055-2.492 10.213-7.196 12.472l-16.426 7.727v18.029h-15.476v-108.583zm15.476 18.708v50.864l5.129-2.259c2.28-.991 3.466-2.708 3.56-5.146.27-5.777.315-12.411.135-19.902-.275-6.316-1.24-12.95-2.896-19.901-.551-2.165-1.93-3.385-4.136-3.656h-1.792zm29.822-18.301h15.475v.136c3.823.182 7.691.271 11.606.271 4.915 1.809 7.781 5.287 8.603 10.439 2.728 16.086 3.865 35.922 3.412 59.51-.091 5.785-2.489 9.943-7.195 12.473l-1.629.678 12.353 25.892-14.735 7.862-11.598-27.112-.818.407v18.164h-15.475v-108.719zm15.475 18.708v50.97l4.965-2.168c2.3-1.264 3.494-3.027 3.588-5.287.361-7.68.407-14.322.136-19.927-.276-5.874-1.241-12.516-2.896-19.927-.46-2.169-1.839-3.389-4.139-3.66h-1.654zm40.415-19.386h19.82c2.715 0 5.044.972 6.992 2.914 1.945 1.945 2.918 4.27 2.918 6.982v89.334c0 2.711-.974 5.039-2.918 6.982-1.948 1.945-4.276 2.915-6.992 2.915h-19.82c-2.806 0-5.158-.95-7.059-2.847-1.901-1.898-2.851-4.248-2.851-7.05v-89.334c0-2.8.95-5.152 2.851-7.049 1.901-1.898 4.253-2.847 7.059-2.847zm4.888 97.468h10.045v-86.081h-10.045v86.081zm75.334-96.113l-11.673 108.041h-21.315l-11.673-108.026 15.648-1.767 6.681 61.3 6.684-61.316 15.648 1.767M187.473 1.287h15.475v108.719h-15.475v-108.719zm22.454 1.084h.543v-.407l5.785.271c1.972.091 3.948.136 5.921.136h3.228c3.823.182 7.647.271 11.468.271 4.916 1.989 7.783 5.469 8.604 10.439 2.909 17.713 4.045 43.697 3.414 77.946-.091 5.785-2.49 9.943-7.195 12.472-5.431 2.894-10.589 4.881-15.476 5.966-4.072.904-9.503 1.402-16.291 1.491v-108.584zm15.476 13.557l.136 79.438 4.888-2.305c2.171-.993 3.302-2.779 3.393-5.354.089-2.576.226-7.296.408-14.166.089-13.556-.279-26.705-1.103-39.448-.46-5.874-1.103-10.662-1.93-14.369-.552-2.258-1.978-3.526-4.274-3.796h-1.517zm45.995 69.542v8.676h20.634v15.724h-36.382v-108.583h36.382v15.724h-20.634v54.224l11.81-.948v14.232l-11.81.95m28.09-84.182h15.748c7.565 0 13.146.498 16.751 1.491 6.663 1.809 10.175 5.469 10.536 10.981v96.247h-15.747v-93.536c-1.812-2.078-4.572-3.119-8.282-3.119-1.177 0-2.264.183-3.258.543v96.112h-15.748v-108.719m59.465.677h19.82c2.715 0 5.044.972 6.992 2.914 1.945 1.945 2.918 4.27 2.918 6.982v11.659h-14.798v-9.896h-10.045v85.809h10.045v-5.286h14.798v7.048c0 2.712-.974 5.04-2.918 6.983-1.948 1.944-4.276 2.914-6.992 2.914h-19.82c-2.715 0-5.046-.97-6.992-2.914-1.948-1.943-2.918-4.27-2.918-6.983v-89.334c0-2.711.971-5.037 2.918-6.982 1.946-1.942 4.276-2.914 6.992-2.914m51.628 83.506v8.676h20.634v15.724h-36.382v-108.583h36.382v15.724h-20.634v54.224l11.811-.948v14.232l-11.811.95" sketch:type="MSShapeGroup"/></g></svg>