<svg width="463" height="120" viewBox="0 0 463 120" xmlns="http://www.w3.org/2000/svg" xmlns:sketch="http://www.bohemiancoding.com/sketch/ns"><title>Imported Layers</title><desc>Created with Sketch.</desc><g sketch:type="MSLayerGroup" fill="#fff"><path d="M.524 3.333h27.24c11.5-.177 20.327 1.245 26.48 4.264 3.388 1.779 5.171 4.444 5.351 7.996v94.616h-15.468v-91.951c-.623-2.133-2.623-3.065-6-2.799v94.749h-15.468v-91.951c-2.266-2.043-4.577-2.886-6.934-2.532v94.483h-15.201v-106.876m79.83.667v95.816h9.734v-95.816h14.535v97.549c0 2.665-.958 4.954-2.866 6.863-1.913 1.911-4.2 2.865-6.867 2.865h-19.468c-2.667 0-4.956-.954-6.867-2.865-1.913-1.91-2.867-4.198-2.867-6.863v-97.549h14.668M110.599 3.333h15.2v106.876h-15.2v-106.876zm22.107.532h15.199v.133c3.755.179 7.554.266 11.399.266 4.827 1.779 7.644 5.198 8.451 10.262 2.679 15.814 3.795 35.314 3.352 58.502-.09 5.686-2.445 9.774-7.068 12.26l-1.6.666 12.134 25.453-14.473 7.729-11.391-26.652-.804.4v17.857h-15.2v-106.876zm15.2 18.391v50.106l4.877-2.132c2.259-1.243 3.431-2.976 3.524-5.198.354-7.55.399-14.08.133-19.589-.272-5.774-1.22-12.304-2.844-19.589-.452-2.133-1.806-3.332-4.065-3.598h-1.625zm64.136-18.923h15.201v106.876h-15.201v-106.876zm62.358 5.063v18.658h-15.468v-11.328c-1.624-.977-3.201-1.466-4.733-1.466-1.626 0-3.159.489-4.6 1.466v20.254l20.401 3.731c1.867.356 3.067.956 3.6 1.799.534.845.8 2.244.8 4.198v59.971c0 2.755-2.845 4.798-8.533 6.13-3.733.889-7.647 1.333-11.733 1.333-4.447 0-8.357-.444-11.735-1.333-5.333-1.332-8-3.552-8-6.663v-33.981h15.201v27.718c1.533.889 3.067 1.332 4.6 1.332 1.531 0 3.109-.443 4.733-1.33v-45.478l-20.675-3.916c-2.572-.89-3.859-2.667-3.859-5.336v-35.349c0-2.934 2.754-5.158 8.268-6.669 3.733-1.067 7.688-1.689 11.867-1.868 4.888-.087 9.421.556 13.6 1.932 4.178 1.379 6.267 3.444 6.267 6.196m6.297-5.064h15.468v91.419h22.668v15.458h-38.136v-106.876M335.086 3.333h21.734l14.271 106.876h-11.972l-1.069-7.997-16.148 1.332-.666 6.665h-15.349l9.201-106.876zm20.98 85.03l-7.767-59.187-5.212 60.379 12.979-1.192zm20.119-85.03h15.468c7.43 0 12.913.489 16.453 1.465 6.545 1.779 9.994 5.377 10.348 10.795v94.616h-15.467v-91.951c-1.78-2.043-4.49-3.065-8.134-3.065-1.156 0-2.223.179-3.2.533v94.483h-15.468v-106.876" sketch:type="MSShapeGroup"/><path d="M424.542 4.398h.534v-.4l5.682.266c1.937.089 3.877.133 5.815.133h3.171c3.754.179 7.509.266 11.264.266 4.827 1.956 7.645 5.377 8.451 10.262 2.856 17.413 3.974 42.956 3.353 76.625-.09 5.687-2.447 9.775-7.068 12.26-5.333 2.845-10.399 4.798-15.2 5.865-4.001.889-9.334 1.378-16.002 1.465v-106.744zm15.202 13.327l.133 78.092 4.8-2.266c2.134-.976 3.244-2.732 3.333-5.264.088-2.532.221-7.173.4-13.926.088-13.325-.273-26.253-1.083-38.779-.452-5.774-1.085-10.482-1.896-14.125-.543-2.22-1.944-3.466-4.199-3.731h-1.489z" sketch:type="MSShapeGroup"/></g></svg>