<svg width="537" height="120" viewBox="0 0 537 120" xmlns="http://www.w3.org/2000/svg" xmlns:sketch="http://www.bohemiancoding.com/sketch/ns"><title>Imported Layers</title><desc>Created with Sketch.</desc><g sketch:type="MSLayerGroup" fill="#fff"><path d="M30.118 18.24v100.964h-17.108v-100.964h-12.242v-17.048h41.74v17.048h-12.39m18.51-17.929h16.813v90.676l11.799-1.028v-89.648h17.11v117.864h-17.11v-12.785l-11.799.881v11.904h-16.813v-117.864m69.683 91.264v9.406h22.418v17.047h-39.528v-117.717h39.528v17.048h-22.418v58.785l12.831-1.028v15.43l-12.831 1.03M199.135.164h21.534c2.95 0 5.48 1.054 7.596 3.159 2.113 2.108 3.171 4.63 3.171 7.569v96.848c0 2.941-1.058 5.464-3.171 7.569-2.116 2.108-4.646 3.16-7.596 3.16h-21.534c-3.049 0-5.604-1.03-7.669-3.086-2.065-2.058-3.097-4.605-3.097-7.643v-96.848c0-3.036 1.032-5.585 3.097-7.642 2.065-2.058 4.62-3.086 7.669-3.086zm5.31 105.666h10.913v-93.322h-10.913v93.322zm49.825-104.785v105.666h10.767v-105.666h16.077v107.576c0 2.941-1.058 5.464-3.171 7.57-2.116 2.107-4.646 3.159-7.596 3.159h-21.534c-2.95 0-5.482-1.052-7.596-3.159-2.116-2.106-3.172-4.63-3.172-7.57v-107.576h16.224m62.877 17.195v100.964h-17.108v-100.964h-12.242v-17.048h41.74v17.048h-12.39M335.93.311h17.11v.147c4.13.197 8.259.294 12.39.294 5.309 1.961 8.407 5.732 9.291 11.316 2.95 17.636 4.179 39.144 3.687 64.517-.099 5.489-2.065 9.603-5.899 12.344l6.046 9.994c1.181 1.961 1.77 3.968 1.77 6.026 0 1.862-.493 3.772-1.474 5.732-2.263 4.311-4.967 6.907-8.113 7.789l-34.808-.295v-117.864zm17.109 15.137v60.403l5.31-2.499c2.36-1.078 3.588-2.939 3.687-5.585.392-8.62.491-16.655.295-24.102-.295-8.523-1.328-16.606-3.097-24.248-.59-2.646-2.116-3.969-4.572-3.969h-1.623zm5.605 80.242l-5.605 2.563v6.548h11.947l-6.342-9.111zm37.341-95.379h24.04l15.785 117.864h-13.243l-1.183-8.819-17.862 1.469-.737 7.35h-16.977l10.177-117.864zm23.206 93.772l-8.591-65.272-5.766 66.587 14.357-1.314zm32.521-93.038h21.534c2.95 0 5.48 1.054 7.596 3.16 2.113 2.107 3.172 4.628 3.172 7.568v12.639h-16.078v-10.728h-10.913v93.027h10.913v-5.731h16.078v7.641c0 2.941-1.059 5.464-3.172 7.57-2.116 2.107-4.646 3.159-7.596 3.159h-21.534c-2.95 0-5.482-1.052-7.596-3.159-2.116-2.106-3.171-4.63-3.171-7.57v-96.848c0-2.939 1.055-5.461 3.171-7.568 2.114-2.106 4.646-3.16 7.596-3.16m38.707-.147h16.814v49.086l15.338-49.086 13.716 4.556-19.784 62.821 20.376 42.732-16.031 8.784-11.836-28.045-1.778 5.695v21.323h-16.814v-117.865" sketch:type="MSShapeGroup"/></g></svg>