<svg width="837" height="119" viewBox="0 0 837 119" xmlns="http://www.w3.org/2000/svg" xmlns:sketch="http://www.bohemiancoding.com/sketch/ns"><title>Imported Layers</title><desc>Created with Sketch.</desc><g sketch:type="MSLayerGroup" fill="#fff"><path d="M62.787 115.885h-29.105c-12.091.189-21.326-1.323-27.699-4.534-3.657-1.83-5.484-4.579-5.484-8.243v-99.826h16.029v96.878c.479 2.341 2.634 3.324 6.468 2.949v-99.826h16.309v96.878c1.688 1.874 3.422 2.807 5.203 2.807.562 0 1.218.049 1.969.141v-99.826h16.31v112.603m22.037-26.257v8.986h21.372v16.286h-37.682v-112.461h37.682v16.286h-21.372v56.161l12.233-.983v14.742l-12.233.984M123.619 2.44h22.919l15.048 112.602h-12.624l-1.128-8.426-17.028 1.404-.704 7.022h-16.185l9.702-112.602zm22.124 89.585l-8.19-62.358-5.497 63.614 13.687-1.256zm21.005-89.445h16.169-.141v.14c1.319 0 3.346.048 6.082.14 2.733.094 4.761.14 6.081.14 4.996 1.874 7.919 5.43 8.768 10.67 2.825 17.318 4.003 37.909 3.535 61.778-.095 6.272-2.579 10.578-7.452 12.917l-17.014 8.002v18.673h-16.028v-112.461zm16.028 19.376v52.681l5.312-2.34c2.362-1.026 3.59-2.805 3.687-5.329.281-5.982.327-12.854.141-20.613-.285-6.541-1.284-13.412-2.999-20.612-.571-2.242-1.999-3.506-4.283-3.786h-1.857zm41.415-19.657h20.528c2.812 0 5.224 1.007 7.242 3.018 2.014 2.014 3.023 4.423 3.023 7.231v92.524c0 2.809-1.009 5.22-3.023 7.231-2.017 2.014-4.429 3.019-7.242 3.019h-20.528c-2.907 0-5.343-.984-7.312-2.949-1.969-1.966-2.953-4.399-2.953-7.302v-92.524c0-2.9.984-5.336 2.953-7.301 1.969-1.966 4.406-2.949 7.312-2.949zm5.062 100.949h10.404v-89.156h-10.404v89.156zm32.06-100.808h16.311c7.834 0 13.616.515 17.349 1.544 6.9 1.874 10.539 5.665 10.912 11.373v99.685h-16.31v-96.876c-1.877-2.152-4.735-3.229-8.577-3.229-1.219 0-2.343.189-3.373.561v99.544h-16.311v-112.602m87.74 2.948l15.564-4.901 9.256 31.454 9.111-31.452 15.561 4.899-16.256 56.121 15.322 52.394-15.658 5.07-8.154-28.151-8.155 28.151-15.656-5.07 15.322-52.396-16.258-56.119m101.516-2.247h20.528c2.812 0 5.224 1.007 7.242 3.019 2.014 2.013 3.023 4.422 3.023 7.23v12.075h-15.326v-10.249h-10.404v88.874h10.404v-5.475h15.326v7.3c0 2.809-1.009 5.22-3.023 7.231-2.017 2.014-4.429 3.019-7.242 3.019h-20.528c-2.812 0-5.227-1.005-7.242-3.019-2.017-2.011-3.023-4.422-3.023-7.231v-92.524c0-2.808 1.005-5.217 3.023-7.23 2.015-2.012 4.429-3.019 7.242-3.019M497.929 2.299h20.528c2.812 0 5.224 1.007 7.242 3.018 2.014 2.014 3.023 4.423 3.023 7.231v92.524c0 2.809-1.009 5.22-3.023 7.231-2.017 2.014-4.429 3.019-7.242 3.019h-20.528c-2.907 0-5.342-.984-7.312-2.949-1.968-1.966-2.952-4.399-2.952-7.302v-92.524c0-2.9.984-5.336 2.952-7.301 1.97-1.966 4.406-2.949 7.312-2.949zm5.062 100.949h10.404v-89.156h-10.404v89.156zm31.92-100.808h28.722c12.127-.186 21.436 1.311 27.923 4.492 3.573 1.874 5.453 4.682 5.642 8.425v99.685h-16.31v-96.876c-.657-2.247-2.766-3.229-6.326-2.949v99.825h-16.31v-96.876c-2.391-2.152-4.826-3.041-7.312-2.668v99.544h-16.028v-112.602M603.416 2.58h16.169-.141v.14c1.319 0 3.346.048 6.082.14 2.733.094 4.761.14 6.081.14 4.996 1.874 7.919 5.43 8.768 10.67 2.825 17.318 4.002 37.909 3.535 61.778-.095 6.272-2.579 10.578-7.452 12.917l-17.014 8.002v18.673h-16.028v-112.461zm16.028 19.376v52.681l5.312-2.34c2.362-1.026 3.59-2.805 3.687-5.329.28-5.982.326-12.854.141-20.613-.285-6.541-1.285-13.412-2.999-20.612-.572-2.242-2-3.506-4.283-3.786h-1.857zm41.415-19.657h20.528c2.812 0 5.224 1.007 7.242 3.018 2.013 2.014 3.023 4.423 3.023 7.231v92.524c0 2.809-1.01 5.22-3.023 7.231-2.017 2.014-4.429 3.019-7.242 3.019h-20.528c-2.907 0-5.343-.984-7.312-2.949-1.969-1.966-2.953-4.399-2.953-7.302v-92.524c0-2.9.984-5.336 2.953-7.301 1.969-1.966 4.406-2.949 7.312-2.949zm5.061 100.949h10.404v-89.156h-10.404v89.156zm47.499-100.107v100.949h10.263v-100.949h15.328v102.774c0 2.809-1.01 5.22-3.024 7.231-2.017 2.014-4.429 3.019-7.242 3.019h-20.528c-2.812 0-5.227-1.005-7.242-3.019-2.016-2.011-3.023-4.422-3.023-7.231v-102.774h15.467m31.922-.701h16.31c7.835 0 13.617.515 17.349 1.544 6.901 1.874 10.539 5.665 10.912 11.373v99.685h-16.309v-96.876c-1.877-2.152-4.735-3.229-8.577-3.229-1.219 0-2.344.189-3.375.561v99.544h-16.31v-112.602" sketch:type="MSShapeGroup"/><path d="M796.333 3.563h.563v-.421l5.992.281c2.043.094 4.088.14 6.132.14h3.343c3.958.189 7.92.281 11.878.281 5.09 2.06 8.061 5.665 8.911 10.812 3.013 18.346 4.19 45.257 3.535 80.73-.094 5.991-2.581 10.299-7.453 12.917-5.624 2.998-10.966 5.055-16.028 6.179-4.219.936-9.842 1.452-16.874 1.544v-112.463zm16.03 14.041l.141 82.275 5.061-2.387c2.25-1.029 3.421-2.878 3.515-5.546.092-2.668.234-7.557.422-14.672.092-14.039-.288-27.659-1.142-40.857-.476-6.084-1.143-11.043-1.999-14.882-.572-2.339-2.048-3.651-4.427-3.931h-1.571z" sketch:type="MSShapeGroup"/></g></svg>