<svg width="852" height="120" viewBox="0 0 852 120" xmlns="http://www.w3.org/2000/svg" xmlns:sketch="http://www.bohemiancoding.com/sketch/ns"><title>Imported Layers</title><desc>Created with Sketch.</desc><g sketch:type="MSLayerGroup" fill="#fff"><path d="M16.423 86.019v8.529h20.299v15.458h-35.791v-106.744h35.791v15.459h-20.299v53.305l11.619-.933v13.992l-11.619.934m27.635-79.959l14.783-4.652 8.791 29.856 8.654-29.854 14.781 4.649-15.439 53.268 14.552 49.73-14.872 4.813-7.743-26.72-7.746 26.72-14.87-4.813 14.554-49.732-15.443-53.266m61.916-2.131h19.498c2.671 0 4.962.956 6.878 2.865 1.913 1.912 2.872 4.198 2.872 6.863v11.46h-14.558v-9.728h-9.882v84.356h9.882v-5.197h14.558v6.928c0 2.665-.959 4.954-2.872 6.863-1.916 1.912-4.207 2.866-6.878 2.866h-19.498c-2.671 0-4.964-.954-6.878-2.866-1.916-1.91-2.871-4.198-2.871-6.863v-87.82c0-2.665.955-4.952 2.871-6.863 1.914-1.909 4.207-2.865 6.878-2.865M150.055 3.261h21.769l14.292 106.877h-11.991l-1.07-7.998-16.175 1.333-.668 6.665h-15.373l9.215-106.877zm21.013 85.03l-7.779-59.186-5.22 60.378 12.999-1.192zm20.201-85.03h15.492v91.419h22.703v15.459h-38.195v-106.877M236.513 3.261h15.225v106.876h-15.225v-106.876zm22.456 0h15.492v.134c3.738.178 7.478.266 11.219.266 4.806 1.778 7.611 5.197 8.412 10.261 2.672 15.992 3.784 35.494 3.34 58.503-.09 4.976-1.87 8.707-5.342 11.193l5.476 9.063c1.068 1.779 1.603 3.598 1.603 5.464 0 1.688-.447 3.42-1.336 5.197-2.049 3.91-4.497 6.263-7.346 7.063l-31.517-.266v-106.877zm15.492 13.727v54.771l4.807-2.265c2.137-.977 3.249-2.665 3.339-5.065.356-7.816.444-15.102.267-21.854-.267-7.73-1.202-15.059-2.804-21.988-.535-2.399-1.916-3.598-4.141-3.598h-1.469zm5.074 72.762l-5.074 2.324v5.938h10.817l-5.743-8.262zm39.657-85.822v95.816h9.749v-95.816h14.557v97.548c0 2.665-.959 4.954-2.872 6.863-1.916 1.912-4.206 2.866-6.878 2.866h-19.498c-2.671 0-4.964-.954-6.878-2.866-1.915-1.91-2.871-4.198-2.871-6.863v-97.548h14.691M349.262 3.795h15.224v.133c3.761.179 7.567.266 11.417.266 4.835 1.778 7.656 5.197 8.464 10.261 2.682 15.815 3.801 35.315 3.356 58.502-.09 5.687-2.449 9.774-7.078 12.261l-1.602.665 12.153 25.453-14.496 7.73-11.408-26.652-.806.399v17.858h-15.224v-106.876zm15.224 18.389v50.107l4.886-2.133c2.261-1.243 3.437-2.976 3.529-5.197.354-7.55.4-14.08.132-19.589-.271-5.774-1.221-12.304-2.848-19.591-.452-2.132-1.809-3.331-4.071-3.598h-1.628zm64.371-18.923h15.492v91.419h22.703v15.459h-38.195v-106.877M474.102 3.261h15.224v106.876h-15.224v-106.876zm32.139.667h19.498c2.671 0 4.962.956 6.878 2.865 1.913 1.912 2.871 4.198 2.871 6.863v11.327h-14.557v-9.861h-9.882v84.622h9.882v-27.852h14.557v44.243h-14.557v-4.93h-14.69c-2.671 0-4.964-.954-6.878-2.866-1.915-1.91-2.871-4.198-2.871-6.863v-87.82c0-2.665.956-4.952 2.871-6.863 1.914-1.909 4.207-2.865 6.878-2.865m35.048-.667h15.224v82.223l10.685-.933v-81.291h15.492v106.877h-15.492v-11.594l-10.685.799v10.795h-15.224v-106.877m74.155 16.26v91.552h-15.491v-91.552h-11.086v-15.46h37.796v15.46h-11.219m16.759-16.259h15.225v82.223l10.684-.933v-81.291h15.492v106.877h-15.492v-11.594l-10.684.799v10.795h-15.225v-106.877M689.506 3.129h19.498c2.671 0 4.962.956 6.879 2.865 1.912 1.911 2.871 4.198 2.871 6.862v87.821c0 2.665-.959 4.954-2.871 6.863-1.917 1.912-4.208 2.865-6.879 2.865h-19.498c-2.76 0-5.074-.934-6.944-2.799-1.87-1.866-2.805-4.175-2.805-6.929v-87.821c0-2.752.935-5.063 2.805-6.928 1.87-1.867 4.185-2.799 6.944-2.799zm4.808 95.816h9.882v-84.622h-9.882v84.622zm45.115-95.017v95.816h9.748v-95.816h14.557v97.548c0 2.665-.958 4.954-2.871 6.863-1.916 1.912-4.207 2.866-6.878 2.866h-19.497c-2.672 0-4.965-.954-6.879-2.866-1.916-1.91-2.871-4.198-2.871-6.863v-97.548h14.691m70.356 4.398v18.657h-15.492v-11.328c-1.628-.976-3.206-1.465-4.741-1.465-1.628 0-3.163.489-4.608 1.465v20.254l20.434 3.732c1.87.356 3.071.956 3.606 1.799.534.845.801 2.244.801 4.198v59.969c0 2.755-2.851 4.798-8.548 6.131-3.738.889-7.658 1.332-11.752 1.332-4.453 0-8.37-.443-11.753-1.332-5.341-1.333-8.013-3.552-8.013-6.664v-33.981h15.225v27.719c1.537.889 3.073 1.331 4.608 1.331 1.535 0 3.113-.442 4.741-1.329v-45.479l-20.709-3.916c-2.576-.889-3.865-2.667-3.865-5.335v-35.35c0-2.934 2.76-5.157 8.281-6.669 3.74-1.066 7.7-1.689 11.886-1.867 4.896-.087 9.435.555 13.622 1.932 4.184 1.378 6.277 3.443 6.277 6.196m21.802 77.693v8.529h20.298v15.458h-35.79v-106.744h35.79v15.459h-20.298v53.305l11.618-.933v13.992l-11.618.934" sketch:type="MSShapeGroup"/></g></svg>