<svg width="554" height="120" viewBox="0 0 554 120" xmlns="http://www.w3.org/2000/svg" xmlns:sketch="http://www.bohemiancoding.com/sketch/ns"><title>Imported Layers</title><desc>Created with Sketch.</desc><g sketch:type="MSLayerGroup" fill="#fff"><path d="M10.931 1.044h21.498c2.946 0 5.473 1.054 7.585 3.16 2.108 2.107 3.166 4.63 3.166 7.568v12.639h-16.051v-10.728h-10.897v93.026h10.897v-5.731h16.051v7.643c0 2.939-1.057 5.463-3.166 7.568-2.113 2.107-4.639 3.159-7.585 3.159h-21.498c-2.945 0-5.474-1.052-7.584-3.159-2.113-2.105-3.167-4.628-3.167-7.568v-96.849c0-2.938 1.054-5.461 3.167-7.568 2.11-2.106 4.639-3.16 7.584-3.16M59.533.31h24.002l15.759 117.864h-13.221l-1.181-8.819-17.834 1.468-.736 7.351h-16.95l10.161-117.864zm23.169 93.772l-8.577-65.272-5.757 66.585 14.334-1.313zm21.998-93.626h16.934-.147v.147c1.381 0 3.505.05 6.369.147 2.862.099 4.986.147 6.368.147 5.233 1.961 8.293 5.684 9.183 11.169 2.959 18.127 4.193 39.681 3.703 64.663-.1 6.566-2.701 11.073-7.804 13.521l-17.819 8.376v19.547h-16.786v-117.717zm16.786 20.281v55.143l5.565-2.45c2.473-1.074 3.759-2.935 3.86-5.577.294-6.261.343-13.455.147-21.576-.299-6.847-1.345-14.039-3.141-21.575-.598-2.347-2.094-3.67-4.486-3.963h-1.945zm49.764 70.835v9.406h22.382v17.048h-39.465v-117.717h39.465v17.048h-22.382v58.785l12.811-1.03v15.431l-12.811 1.028m80.695-90.527h21.499c2.945 0 5.471 1.054 7.584 3.16 2.109 2.107 3.166 4.63 3.166 7.568v12.639h-16.051v-10.728h-10.896v93.026h10.896v-5.731h16.051v7.643c0 2.939-1.056 5.463-3.166 7.568-2.113 2.107-4.639 3.159-7.584 3.159h-21.499c-2.945 0-5.474-1.052-7.584-3.159-2.113-2.105-3.166-4.628-3.166-7.568v-96.849c0-2.938 1.053-5.461 3.166-7.568 2.11-2.106 4.639-3.16 7.584-3.16M290.795.31h16.786v117.864h-16.786v-117.864zm54.064 17.929v100.963h-17.082v-100.963h-12.222v-17.048h41.674v17.048h-12.37M369.073.31h24.002l15.759 117.864h-13.221l-1.181-8.819-17.834 1.468-.736 7.351h-16.95l10.161-117.864zm23.169 93.772l-8.577-65.272-5.757 66.585 14.334-1.313zm21.869-92.597h.589v-.441l6.275.294c2.14.099 4.283.147 6.422.147h3.502c4.147.199 8.294.294 12.44.294 5.332 2.157 8.443 5.929 9.333 11.317 3.155 19.203 4.388 47.372 3.703 84.502-.099 6.271-2.701 10.78-7.804 13.521-5.889 3.137-11.486 5.291-16.787 6.467-4.417.98-10.307 1.52-17.671 1.616v-117.717zm16.787 14.697l.147 86.12 5.302-2.499c2.355-1.078 3.581-3.012 3.68-5.805.097-2.793.245-7.911.443-15.358.097-14.696-.302-28.951-1.197-42.766-.499-6.368-1.197-11.559-2.094-15.578-.599-2.448-2.145-3.822-4.637-4.115h-1.645zm49.892 75.39v9.406h22.382v17.048h-39.464v-117.717h39.464v17.048h-22.382v58.785l12.811-1.03v15.431l-12.811 1.028m30.526-91.261h17.082v100.816h25.033v17.048h-42.115v-117.864" sketch:type="MSShapeGroup"/></g></svg>