<svg width="388" height="120" viewBox="0 0 388 120" xmlns="http://www.w3.org/2000/svg" xmlns:sketch="http://www.bohemiancoding.com/sketch/ns"><title>Imported Layers</title><desc>Created with Sketch.</desc><g sketch:type="MSLayerGroup" fill="#fff"><path d="M65.761 119.057h-30.507c-12.675.197-22.352-1.385-29.033-4.746-3.833-1.916-5.748-4.793-5.748-8.628v-104.491h16.801v101.404c.502 2.45 2.761 3.479 6.779 3.086v-104.491h17.094v101.404c1.769 1.961 3.586 2.939 5.453 2.939.589 0 1.276.05 2.064.147v-104.491h17.096v117.865M81.831.311h24.021l15.773 117.864h-13.232l-1.181-8.819-17.849 1.469-.737 7.35h-16.964l10.169-117.864zm23.188 93.772l-8.584-65.272-5.762 66.587 14.346-1.314zm22.016-93.185h16.801v49.086l15.327-49.086 13.704 4.556-19.769 62.821 20.362 42.732-16.018 8.784-11.827-28.045-1.778 5.695v21.323h-16.801v-117.865M189.817.311h24.021l15.772 117.864h-13.231l-1.182-8.819-17.848 1.469-.737 7.35h-16.964l10.169-117.864zm23.188 93.772l-8.584-65.272-5.762 66.587 14.346-1.314zm22.235-93.772h17.096c8.212 0 14.273.539 18.184 1.616 7.234 1.961 11.047 5.929 11.438 11.905v104.343h-17.094v-101.403c-1.967-2.253-4.963-3.38-8.99-3.38-1.278 0-2.457.197-3.537.588v104.196h-17.096v-117.864" sketch:type="MSShapeGroup"/><path d="M288.688 1.486h.589v-.441l6.28.294c2.141.099 4.286.147 6.427.147h3.504c4.15.199 8.301.294 12.45.294 5.336 2.157 8.449 5.929 9.34 11.317 3.158 19.203 4.392 47.372 3.706 84.502-.099 6.271-2.704 10.78-7.811 13.521-5.894 3.138-11.495 5.291-16.801 6.468-4.421.98-10.316 1.52-17.685 1.616v-117.718zm16.801 14.697l.147 86.12 5.306-2.499c2.357-1.077 3.584-3.012 3.683-5.805.097-2.793.245-7.91.443-15.358.097-14.696-.303-28.951-1.198-42.766-.499-6.368-1.198-11.559-2.095-15.578-.599-2.448-2.147-3.822-4.64-4.115h-1.646zm41.951-15.872h24.021l15.773 117.864h-13.232l-1.182-8.819-17.848 1.469-.737 7.35h-16.964l10.169-117.864zm23.188 93.772l-8.584-65.272-5.762 66.587 14.346-1.314z" sketch:type="MSShapeGroup"/></g></svg>