<svg width="560" height="120" viewBox="0 0 560 120" xmlns="http://www.w3.org/2000/svg" xmlns:sketch="http://www.bohemiancoding.com/sketch/ns"><title>Imported Layers</title><desc>Created with Sketch.</desc><g sketch:type="MSLayerGroup" fill="#fff"><path d="M.619 1.382h.548v-.41l5.845.273c1.993.092 3.989.137 5.982.137h3.262c3.862.184 7.726.273 11.588.273 4.966 2.007 7.863 5.517 8.692 10.53 2.939 17.867 4.089 44.077 3.449 78.624-.092 5.835-2.516 10.03-7.27 12.58-5.486 2.919-10.699 4.923-15.637 6.017-4.115.912-9.601 1.414-16.46 1.504v-109.528zm15.637 13.675l.137 80.129 4.938-2.325c2.195-1.003 3.336-2.803 3.428-5.402.09-2.597.228-7.36.412-14.288.09-13.674-.282-26.937-1.115-39.791-.465-5.925-1.115-10.755-1.95-14.494-.558-2.278-1.998-3.556-4.319-3.829h-1.532zm46.473 70.145v8.752h20.849v15.862h-36.761v-109.528h36.761v15.862h-20.849v54.696l11.933-.958v14.357l-11.933.957M90.907.425h15.774-.137v.137c1.286 0 3.264.047 5.933.137 2.666.092 4.644.137 5.932.137 4.874 1.825 7.725 5.288 8.554 10.392 2.756 16.866 3.904 36.92 3.449 60.165-.093 6.109-2.516 10.302-7.27 12.58l-16.598 7.794v18.187h-15.636v-109.528zm15.636 18.87v51.307l5.182-2.28c2.304-1 3.502-2.731 3.597-5.189.273-5.827.318-12.519.137-20.075-.278-6.37-1.254-13.062-2.926-20.074-.558-2.184-1.951-3.414-4.179-3.688h-1.812zm38.152-19.007h22.358l14.679 109.664h-12.316l-1.099-8.206-16.612 1.366-.687 6.84h-15.789l9.465-109.664zm21.581 87.248l-7.989-60.731-5.362 61.953 13.351-1.222zm20.44-86.701h15.636v.137c3.862.184 7.771.273 11.727.273 4.966 1.825 7.862 5.333 8.692 10.53 2.756 16.226 3.905 36.235 3.448 60.027-.092 5.835-2.515 10.03-7.27 12.58l-1.647.683 12.482 26.118-14.888 7.929-11.718-27.347-.827.411v18.322h-15.636v-109.664zm15.636 18.87v51.413l5.017-2.187c2.324-1.276 3.53-3.053 3.625-5.333.364-7.747.411-14.447.137-20.101-.278-5.925-1.254-12.625-2.926-20.101-.465-2.188-1.858-3.418-4.182-3.692h-1.672zm56.482-2.735v93.939h-15.91v-93.939h-11.385v-15.862h38.818v15.862h-11.522m17.279-16.682h28.021c11.829-.182 20.911 1.277 27.239 4.375 3.486 1.825 5.319 4.56 5.505 8.205v97.084h-15.911v-94.349c-.642-2.188-2.7-3.146-6.173-2.872v97.221h-15.911v-94.349c-2.331-2.096-4.708-2.961-7.132-2.598v96.947h-15.637v-109.664m82.995 84.914v8.752h20.849v15.862h-36.76v-109.528h36.76v15.862h-20.849v54.696l11.933-.958v14.357l-11.933.957m28.381-84.914h15.911c7.643 0 13.284.502 16.925 1.504 6.733 1.825 10.282 5.517 10.645 11.077v97.084h-15.91v-94.349c-1.831-2.096-4.619-3.146-8.368-3.146-1.189 0-2.287.185-3.292.548v96.947h-15.911v-109.664m77.391 16.681v93.939h-15.91v-93.939h-11.385v-15.862h38.818v15.862h-11.522m51.848-16.682h15.637v84.367l10.973-.957v-83.41h15.911v109.664h-15.911v-11.896l-10.973.82v11.075h-15.637v-109.664" sketch:type="MSShapeGroup"/></g></svg>