<svg width="608" height="120" viewBox="0 0 608 120" xmlns="http://www.w3.org/2000/svg" xmlns:sketch="http://www.bohemiancoding.com/sketch/ns"><title>Imported Layers</title><desc>Created with Sketch.</desc><g sketch:type="MSLayerGroup" fill="#fff"><path d="M26.493 3.371l15.317.421v102.353c0 2.808-1.008 5.219-3.021 7.231-2.016 2.014-4.426 3.019-7.237 3.019h-20.515c-2.905 0-5.339-.984-7.307-2.949-1.967-1.966-2.951-4.399-2.951-7.302v-31.168h15.317v29.343h10.397v-100.949M57.798 3.511h22.903l15.038 112.602h-12.616l-1.127-8.426-17.018 1.404-.702 7.022h-16.175l9.696-112.602zm22.109 89.585l-8.185-62.358-5.493 63.614 13.678-1.256zm63.126-84.25v19.658h-16.3v-11.935c-1.712-1.03-3.375-1.545-4.988-1.545-1.712 0-3.328.515-4.848 1.545v21.339l21.5 3.931c1.968.375 3.231 1.007 3.794 1.895.562.89.843 2.365.843 4.423v63.183c0 2.903-2.999 5.055-8.993 6.459-3.934.936-8.057 1.405-12.365 1.405-4.685 0-8.807-.468-12.366-1.405-5.62-1.404-8.432-3.743-8.432-7.02v-35.802h16.019v29.203c1.617.936 3.233 1.404 4.848 1.404 1.614 0 3.276-.467 4.988-1.401v-47.914l-21.788-4.126c-2.712-.938-4.067-2.81-4.067-5.622v-37.243c0-3.091 2.903-5.434 8.714-7.026 3.933-1.124 8.1-1.78 12.505-1.968 5.15-.092 9.927.586 14.333 2.036 4.402 1.453 6.604 3.629 6.604 6.528m6.442-5.337h28.705c12.119-.186 21.423 1.311 27.906 4.492 3.571 1.874 5.449 4.682 5.639 8.425v99.685h-16.301v-96.876c-.656-2.247-2.764-3.229-6.322-2.949v99.825h-16.3v-96.876c-2.389-2.152-4.823-3.041-7.308-2.668v99.544h-16.018v-112.602M218.103 3.511h16.019v112.602h-16.019v-112.602zm23.559 0h16.3c7.829 0 13.608.515 17.338 1.544 6.896 1.874 10.532 5.665 10.905 11.373v99.685h-16.3v-96.876c-1.875-2.152-4.732-3.229-8.572-3.229-1.217 0-2.342.189-3.371.561v99.544h-16.3v-112.602m67.647 87.19v8.986h21.358v16.286h-37.658v-112.461h37.658v16.287h-21.358v56.16l12.225-.981v14.741l-12.225.984m82.483-.002v25.412h-16.018v-112.602h37.518v16.287h-21.5v56.16l12.366-.981v14.741l-12.366.984M426.447 3.511h22.903l15.038 112.602h-12.616l-1.127-8.426-17.018 1.404-.702 7.022h-16.175l9.696-112.602zm22.109 89.585l-8.185-62.358-5.493 63.614 13.678-1.256zm21.254-89.585h16.3v96.316h23.889v16.286h-40.189v-112.602m47.674 0h16.3v96.316h23.889v16.286h-40.189v-112.602m89.775 5.335v19.658h-16.3v-11.935c-1.712-1.03-3.375-1.545-4.988-1.545-1.712 0-3.328.515-4.848 1.545v21.339l21.5 3.931c1.968.375 3.231 1.007 3.794 1.895.562.89.843 2.365.843 4.423v63.183c0 2.903-2.999 5.055-8.993 6.459-3.934.936-8.058 1.405-12.365 1.405-4.685 0-8.807-.468-12.366-1.405-5.621-1.404-8.432-3.743-8.432-7.02v-35.802h16.019v29.203c1.617.936 3.233 1.404 4.848 1.404 1.614 0 3.276-.467 4.988-1.401v-47.914l-21.789-4.126c-2.711-.938-4.066-2.81-4.066-5.622v-37.243c0-3.091 2.904-5.434 8.713-7.026 3.934-1.124 8.101-1.78 12.506-1.968 5.15-.092 9.927.586 14.333 2.036 4.402 1.453 6.604 3.629 6.604 6.528" sketch:type="MSShapeGroup"/></g></svg>