<svg width="1042" height="120" viewBox="0 0 1042 120" xmlns="http://www.w3.org/2000/svg" xmlns:sketch="http://www.bohemiancoding.com/sketch/ns"><title>Imported Layers</title><desc>Created with Sketch.</desc><g sketch:type="MSLayerGroup" fill="#fff"><path d="M.498 3.511h28.727c12.128-.186 21.438 1.311 27.926 4.492 3.573 1.874 5.454 4.682 5.644 8.425v99.685h-16.313v-96.876c-.657-2.247-2.767-3.229-6.328-2.949v99.825h-16.313v-96.876c-2.39-2.152-4.827-3.041-7.312-2.668v99.544h-16.031v-112.602M78.895 3.511h22.921l15.051 112.602h-12.626l-1.128-8.426-17.03 1.404-.703 7.022h-16.187l9.703-112.602zm22.126 89.585l-8.191-62.358-5.498 63.614 13.689-1.256zm63.172-84.25v19.658h-16.313v-11.935c-1.714-1.03-3.376-1.545-4.991-1.545-1.715 0-3.332.515-4.853 1.545v21.339l21.516 3.931c1.969.375 3.234 1.007 3.797 1.895.563.89.843 2.365.843 4.423v63.183c0 2.903-3.002 5.055-9 6.459-3.936.936-8.063 1.405-12.374 1.405-4.688 0-8.814-.468-12.375-1.405-5.624-1.404-8.437-3.743-8.437-7.02v-35.802h16.03v29.203c1.618.936 3.235 1.404 4.853 1.404 1.615 0 3.277-.467 4.991-1.401v-47.914l-21.805-4.126c-2.714-.938-4.069-2.81-4.069-5.622v-37.243c0-3.091 2.905-5.434 8.719-7.026 3.937-1.124 8.106-1.78 12.515-1.968 5.155-.092 9.936.586 14.343 2.036 4.406 1.453 6.609 3.629 6.609 6.528m48.747-.002v19.658h-16.313v-11.935c-1.714-1.03-3.377-1.545-4.991-1.545-1.715 0-3.332.515-4.853 1.545v21.339l21.516 3.931c1.969.375 3.234 1.007 3.797 1.895.562.89.843 2.365.843 4.423v63.183c0 2.903-3.002 5.055-9 6.459-3.937.936-8.063 1.405-12.374 1.405-4.688 0-8.814-.468-12.375-1.405-5.624-1.404-8.437-3.743-8.437-7.02v-35.802h16.03v29.203c1.618.936 3.235 1.404 4.853 1.404 1.614 0 3.277-.467 4.991-1.401v-47.914l-21.805-4.126c-2.714-.938-4.069-2.81-4.069-5.622v-37.243c0-3.091 2.905-5.434 8.719-7.026 3.936-1.124 8.106-1.78 12.515-1.968 5.154-.092 9.936.586 14.343 2.036 4.405 1.453 6.609 3.629 6.609 6.528M229.13 3.511h22.921l15.051 112.602h-12.626l-1.128-8.426-17.03 1.404-.703 7.022h-16.187l9.703-112.602zm22.126 89.585l-8.191-62.358-5.498 63.614 13.689-1.256zm31.008-88.883h20.531c2.813 0 5.225 1.007 7.241 3.019 2.014 2.013 3.024 4.422 3.024 7.23v12.075h-15.328v-10.249h-10.406v88.874h10.406v-5.475h15.328v7.301c0 2.808-1.01 5.219-3.024 7.231-2.016 2.013-4.429 3.018-7.241 3.018h-20.531c-2.813 0-5.227-1.005-7.242-3.018-2.017-2.012-3.024-4.423-3.024-7.231v-92.525c0-2.808 1.007-5.217 3.024-7.23 2.015-2.012 4.43-3.019 7.242-3.019m36.903-.703h16.031v86.628l11.25-.983v-85.646h16.313v112.602h-16.313v-12.214l-11.25.842v11.372h-16.031v-112.602m65.542.703v100.949h10.265v-100.949h15.328v102.775c0 2.808-1.009 5.219-3.023 7.231-2.017 2.013-4.43 3.018-7.242 3.018h-20.531c-2.813 0-5.227-1.005-7.242-3.018-2.017-2.012-3.024-4.423-3.024-7.231v-102.775h15.469m74.084 4.633v19.658h-16.313v-11.935c-1.714-1.03-3.377-1.545-4.992-1.545-1.715 0-3.331.515-4.852 1.545v21.339l21.515 3.931c1.969.375 3.234 1.007 3.798 1.895.562.89.843 2.365.843 4.423v63.183c0 2.903-3.002 5.055-9 6.459-3.937.936-8.065 1.405-12.374 1.405-4.69 0-8.814-.468-12.375-1.405-5.625-1.404-8.438-3.743-8.438-7.02v-35.802h16.031v29.203c1.618.936 3.234 1.404 4.852 1.404 1.615 0 3.278-.467 4.992-1.401v-47.914l-21.806-4.126c-2.713-.938-4.069-2.81-4.069-5.622v-37.243c0-3.091 2.905-5.434 8.719-7.026 3.937-1.124 8.107-1.78 12.515-1.968 5.155-.092 9.936.586 14.343 2.036 4.406 1.453 6.61 3.629 6.61 6.528m22.955 81.853v8.986h21.374v16.286h-37.687v-112.461h37.687v16.287h-21.374v56.16l12.235-.981v14.741l-12.235.984m57.135-70.063v96.456h-16.311v-96.456h-11.672v-16.287h39.797v16.287h-11.813m45.893 0v96.456h-16.311v-96.456h-11.672v-16.287h39.797v16.287h-11.813m60.042-11.794v19.658h-16.313v-11.935c-1.714-1.03-3.376-1.545-4.991-1.545-1.715 0-3.332.515-4.853 1.545v21.339l21.516 3.931c1.969.375 3.234 1.007 3.797 1.895.562.89.843 2.365.843 4.423v63.183c0 2.903-3.002 5.055-8.999 6.459-3.937.936-8.064 1.405-12.375 1.405-4.688 0-8.814-.468-12.375-1.405-5.624-1.404-8.437-3.743-8.437-7.02v-35.802h16.03v29.203c1.618.936 3.235 1.404 4.853 1.404 1.615 0 3.277-.467 4.991-1.401v-47.914l-21.805-4.126c-2.714-.938-4.069-2.81-4.069-5.622v-37.243c0-3.091 2.905-5.434 8.719-7.026 3.937-1.124 8.106-1.78 12.515-1.968 5.155-.092 9.936.586 14.343 2.036 4.406 1.453 6.609 3.629 6.609 6.528M697.412 3.511h22.921l15.051 112.602h-12.626l-1.128-8.426-17.03 1.404-.703 7.022h-16.187l9.703-112.602zm22.126 89.585l-8.191-62.358-5.498 63.614 13.689-1.256zm31.008-88.883h20.531c2.813 0 5.225 1.007 7.242 3.019 2.013 2.013 3.023 4.422 3.023 7.23v12.075h-15.328v-10.249h-10.406v88.874h10.406v-5.475h15.328v7.301c0 2.808-1.01 5.219-3.023 7.231-2.017 2.013-4.43 3.018-7.242 3.018h-20.531c-2.813 0-5.227-1.005-7.242-3.018-2.017-2.012-3.024-4.423-3.024-7.231v-92.525c0-2.808 1.007-5.217 3.024-7.23 2.015-2.012 4.43-3.019 7.242-3.019M796.958 3.511h22.921l15.051 112.602h-12.626l-1.128-8.426-17.03 1.404-.703 7.022h-16.187l9.703-112.602zm22.126 89.585l-8.191-62.358-5.498 63.614 13.689-1.256zm20.885-88.462h.562v-.421l5.992.281c2.043.094 4.09.14 6.133.14h3.344c3.96.189 7.921.281 11.879.281 5.092 2.06 8.062 5.665 8.912 10.812 3.013 18.346 4.191 45.257 3.536 80.73-.094 5.991-2.58 10.299-7.453 12.917-5.624 2.998-10.968 5.055-16.031 6.179-4.218.936-9.843 1.452-16.875 1.544v-112.463zm16.031 14.041l.141 82.275 5.063-2.387c2.249-1.029 3.42-2.878 3.514-5.546.092-2.668.234-7.557.423-14.672.092-14.039-.289-27.659-1.143-40.857-.476-6.084-1.143-11.043-1.999-14.882-.572-2.339-2.049-3.651-4.428-3.931h-1.571zm47.643 72.026v8.986h21.374v16.286h-37.687v-112.461h37.687v16.287h-21.374v56.16l12.234-.981v14.741l-12.234.984m28.958-87.192h28.727c12.127-.186 21.438 1.311 27.926 4.492 3.573 1.874 5.454 4.682 5.644 8.425v99.685h-16.313v-96.876c-.658-2.247-2.768-3.229-6.328-2.949v99.825h-16.313v-96.876c-2.39-2.152-4.827-3.041-7.312-2.668v99.544h-16.031v-112.602m96.731 87.611v24.71h-16.311v-24.71h-7.594c-2.72 0-4.078-1.776-4.078-5.336v-81.854h16.031v70.904h7.311v-70.904h16.454v83.118c0 2.715-1.547 4.071-4.641 4.071h-7.172" sketch:type="MSShapeGroup"/></g></svg>