<svg width="724" height="120" viewBox="0 0 724 120" xmlns="http://www.w3.org/2000/svg" xmlns:sketch="http://www.bohemiancoding.com/sketch/ns"><title>Imported Layers</title><desc>Created with Sketch.</desc><g sketch:type="MSLayerGroup" fill="#fff"><path d="M.511.289h27.967c11.808-.182 20.871 1.277 27.187 4.375 3.479 1.825 5.309 4.56 5.494 8.205v97.084h-15.881v-94.349c-.639-2.188-2.693-3.146-6.161-2.872v97.221h-15.881v-94.349c-2.327-2.096-4.699-2.961-7.119-2.598v96.947h-15.607v-109.664M77.41.152h19.988c2.738 0 5.087.981 7.051 2.939 1.96 1.962 2.943 4.307 2.943 7.042v90.111c0 2.735-.983 5.083-2.943 7.042-1.964 1.962-4.313 2.941-7.051 2.941h-19.988c-2.83 0-5.203-.958-7.12-2.872-1.917-1.915-2.875-4.285-2.875-7.111v-90.111c0-2.825.958-5.197 2.875-7.11 1.917-1.915 4.29-2.872 7.12-2.872zm4.928 98.315h10.13v-86.83h-10.13v86.83zm46.249-97.494v98.315h9.993v-98.315h14.924v100.093c0 2.736-.983 5.084-2.944 7.043-1.964 1.961-4.313 2.939-7.051 2.939h-19.988c-2.738 0-5.089-.979-7.051-2.939-1.964-1.96-2.943-4.307-2.943-7.043v-100.093h15.06m31.08-.684h15.881c7.629 0 13.259.502 16.892 1.504 6.72 1.825 10.261 5.517 10.625 11.077v97.084h-15.88v-94.349c-1.827-2.096-4.61-3.146-8.352-3.146-1.187 0-2.283.185-3.286.548v96.947h-15.881v-109.664m77.244 16.681v93.94h-15.881v-93.94h-11.364v-15.862h38.744v15.862h-11.499m112.535 93.804h-28.339c-11.773.184-20.764-1.289-26.97-4.416-3.559-1.782-5.339-4.46-5.339-8.027v-97.222h15.606v94.35c.467 2.28 2.565 3.237 6.298 2.872v-97.222h15.881v94.35c1.643 1.824 3.331 2.734 5.065 2.734.548 0 1.186.048 1.917.138v-97.222h15.881v109.665m20.569-109.802v98.315h9.993v-98.315h14.924v100.093c0 2.736-.983 5.084-2.944 7.043-1.964 1.961-4.313 2.939-7.051 2.939h-19.988c-2.738 0-5.089-.979-7.051-2.939-1.964-1.96-2.943-4.307-2.943-7.043v-100.093h15.06m31.08-.684h15.881c7.629 0 13.259.502 16.892 1.504 6.72 1.825 10.261 5.517 10.625 11.077v97.084h-15.88v-94.349c-1.827-2.096-4.61-3.146-8.352-3.146-1.187 0-2.283.185-3.286.548v96.947h-15.881v-109.664M450.744 1.383h.548v-.41l5.834.273c1.989.092 3.98.137 5.97.137h3.256c3.854.184 7.711.273 11.565.273 4.956 2.007 7.849 5.517 8.677 10.53 2.933 17.867 4.08 44.077 3.442 78.624-.092 5.835-2.513 10.03-7.257 12.58-5.475 2.92-10.677 4.923-15.606 6.018-4.108.912-9.583 1.414-16.429 1.504v-109.529zm15.608 13.675l.136 80.129 4.929-2.325c2.191-1.002 3.331-2.803 3.423-5.401.09-2.598.228-7.36.411-14.289.09-13.673-.28-26.937-1.112-39.791-.465-5.925-1.114-10.755-1.946-14.494-.558-2.278-1.995-3.556-4.311-3.829h-1.529zm38.97-14.769h22.315l14.651 109.664h-12.291l-1.098-8.206-16.58 1.367-.685 6.839h-15.759l9.446-109.664zm21.541 87.248l-7.974-60.731-5.352 61.954 13.327-1.223zm30.187-86.564h19.988c2.738 0 5.087.981 7.051 2.939 1.961 1.962 2.943 4.307 2.943 7.042v11.623h-14.923v-10.12h-10.13v86.83h10.13v-28.578h14.923v45.397h-14.923v-5.059h-15.059c-2.738 0-5.089-.979-7.051-2.939-1.964-1.96-2.943-4.307-2.943-7.043v-90.111c0-2.735.979-5.081 2.943-7.042 1.962-1.959 4.313-2.939 7.051-2.939M603.162.152h19.988c2.738 0 5.087.981 7.051 2.939 1.961 1.962 2.943 4.307 2.943 7.042v90.111c0 2.735-.982 5.083-2.943 7.042-1.964 1.962-4.313 2.941-7.051 2.941h-19.988c-2.83 0-5.203-.958-7.12-2.872-1.917-1.915-2.874-4.285-2.874-7.111v-90.111c0-2.825.957-5.197 2.874-7.11 1.917-1.915 4.29-2.872 7.12-2.872zm4.929 98.315h10.13v-86.83h-10.13v86.83zm30.961-97.631h15.607v.137c3.854.184 7.756.273 11.703.273 4.956 1.825 7.848 5.333 8.677 10.53 2.75 16.226 3.897 36.235 3.441 60.027-.092 5.835-2.512 10.03-7.257 12.581l-1.642.683 12.458 26.117-14.86 7.93-11.695-27.347-.825.41v18.322h-15.607v-109.664zm15.607 18.87v51.413l5.007-2.187c2.319-1.275 3.523-3.053 3.618-5.333.363-7.747.41-14.447.137-20.101-.279-5.925-1.253-12.625-2.92-20.101-.465-2.188-1.855-3.418-4.174-3.692h-1.668zm48.25 65.498v8.752h20.809v15.861h-36.69v-109.528h36.69v15.861h-20.809v54.696l11.911-.957v14.357l-11.911.958" sketch:type="MSShapeGroup"/></g></svg>