<svg width="272" height="120" viewBox="0 0 272 120" xmlns="http://www.w3.org/2000/svg" xmlns:sketch="http://www.bohemiancoding.com/sketch/ns"><title>Imported Layers</title><desc>Created with Sketch.</desc><g sketch:type="MSLayerGroup" fill="#fff"><path d="M16.823 1.045v105.666h10.752v-105.666h16.055v107.576c0 2.941-1.058 5.464-3.167 7.57-2.113 2.107-4.64 3.159-7.586 3.159h-21.503c-2.947 0-5.476-1.052-7.587-3.159-2.112-2.106-3.166-4.63-3.166-7.57v-107.576h16.202m62.788 17.195v100.964h-17.084v-100.964h-12.225v-17.048h41.682v17.048h-12.373" sketch:type="MSShapeGroup"/><path d="M109.066.164h21.503c2.946 0 5.474 1.054 7.586 3.159 2.11 2.108 3.167 4.63 3.167 7.569v96.848c0 2.941-1.058 5.464-3.167 7.569-2.112 2.108-4.64 3.16-7.586 3.16h-21.503c-3.046 0-5.597-1.03-7.66-3.086-2.062-2.058-3.093-4.605-3.093-7.643v-96.848c0-3.036 1.031-5.585 3.093-7.642 2.062-2.058 4.614-3.086 7.66-3.086zm5.302 105.666h10.898v-93.322h-10.898v93.322zm33.38-105.372h16.937-.147v.147c1.381 0 3.505.05 6.371.147 2.863.099 4.986.147 6.37.147 5.233 1.961 8.295 5.684 9.185 11.169 2.958 18.127 4.192 39.681 3.703 64.664-.1 6.565-2.703 11.073-7.807 13.521l-17.822 8.376v19.545h-16.791v-117.717zm16.791 20.281v55.143l5.565-2.449c2.474-1.074 3.761-2.936 3.862-5.578.293-6.262.342-13.455.147-21.576-.299-6.847-1.347-14.039-3.141-21.575-.599-2.347-2.095-3.67-4.488-3.963h-1.944zm32.615-20.428h16.791v117.864h-16.791v-117.864zm34.857 0h24.007l15.764 117.864h-13.225l-1.18-8.819-17.838 1.469-.736 7.35h-16.954l10.163-117.864zm23.174 93.772l-8.578-65.272-5.758 66.587 14.336-1.314z" sketch:type="MSShapeGroup"/></g></svg>