<svg width="572" height="120" viewBox="0 0 572 120" xmlns="http://www.w3.org/2000/svg" xmlns:sketch="http://www.bohemiancoding.com/sketch/ns"><title>Imported Layers</title><desc>Created with Sketch.</desc><g sketch:type="MSLayerGroup" fill="#fff"><path d="M.648.289h15.896c7.636 0 13.271.502 16.908 1.504 6.726 1.825 10.272 5.517 10.635 11.077v97.084h-15.895v-94.349c-1.829-2.096-4.615-3.146-8.359-3.146-1.188 0-2.285.185-3.289.548v96.947h-15.896v-109.664m65.969 84.914v8.752h20.828v15.861h-36.724v-109.528h36.724v15.861h-20.828v54.696l11.922-.956v14.356l-11.922.958m88.921 25.571h-28.366c-11.784.184-20.783-1.289-26.995-4.416-3.563-1.782-5.344-4.46-5.344-8.027v-97.222h15.621v94.35c.466 2.28 2.567 3.237 6.304 2.872v-97.222h15.896v94.35c1.645 1.824 3.334 2.734 5.07 2.734.549 0 1.187.048 1.919.138v-97.222h15.896v109.665m67.144-25.161v24.066h-15.895v-24.066h-7.399c-2.651 0-3.975-1.73-3.975-5.197v-79.719h15.623v69.054h7.124v-69.054h16.033v80.95c0 2.644-1.507 3.965-4.522 3.965h-6.989M250.818.152h20.006c2.741 0 5.092.981 7.057 2.939 1.963 1.962 2.947 4.307 2.947 7.042v90.111c0 2.735-.984 5.083-2.947 7.042-1.966 1.962-4.317 2.941-7.057 2.941h-20.006c-2.832 0-5.207-.958-7.125-2.872-1.919-1.915-2.878-4.285-2.878-7.111v-90.111c0-2.825.959-5.197 2.878-7.11 1.919-1.915 4.294-2.872 7.125-2.872zm4.934 98.315h10.139v-86.83h-10.139v86.83zm30.99-97.631h15.622v.137c3.858.184 7.762.273 11.714.273 4.961 1.825 7.854 5.333 8.684 10.53 2.753 16.226 3.902 36.235 3.445 60.027-.092 5.835-2.513 10.03-7.262 12.581l-1.644.683 12.469 26.117-14.873 7.93-11.707-27.347-.825.41v18.322h-15.622v-109.664zm15.622 18.87v51.413l5.012-2.187c2.32-1.275 3.526-3.053 3.62-5.333.364-7.747.411-14.447.137-20.101-.279-5.925-1.253-12.625-2.923-20.101-.464-2.188-1.856-3.418-4.178-3.692h-1.669zm32.142-18.87h15.621v45.671l14.251-45.671 12.743 4.239-18.381 58.45 18.931 39.76-14.894 8.173-10.997-26.094-1.653 5.299v19.839h-15.621v-109.664m94.003.135h20.006c2.741 0 5.092.981 7.057 2.939 1.963 1.962 2.946 4.307 2.946 7.042v11.76h-14.937v-9.982h-10.139v86.555h10.139v-5.332h14.937v7.109c0 2.736-.983 5.084-2.946 7.043-1.966 1.961-4.317 2.939-7.057 2.939h-20.006c-2.741 0-5.094-.979-7.057-2.939-1.966-1.96-2.946-4.307-2.946-7.043v-90.111c0-2.735.98-5.081 2.946-7.042 1.964-1.959 4.317-2.939 7.057-2.939M464.661.289h15.621v109.664h-15.621v-109.664zm50.31 16.682v93.94h-15.895v-93.94h-11.374v-15.862h38.78v15.862h-11.511m44.719 68.643v24.066h-15.895v-24.066h-7.399c-2.651 0-3.975-1.73-3.975-5.197v-79.719h15.623v69.054h7.124v-69.054h16.033v80.95c0 2.644-1.507 3.965-4.522 3.965h-6.989" sketch:type="MSShapeGroup"/></g></svg>