<svg width="528" height="120" viewBox="0 0 528 120" xmlns="http://www.w3.org/2000/svg" xmlns:sketch="http://www.bohemiancoding.com/sketch/ns"><title>Imported Layers</title><desc>Created with Sketch.</desc><g sketch:type="MSLayerGroup" fill="#fff"><path d="M9.38 3.332h21.771l14.296 106.876h-11.993l-1.071-7.997-16.176 1.331-.668 6.666h-15.375l9.217-106.876zm21.016 85.03l-7.78-59.187-5.222 60.378 13.002-1.191zm20.152-85.03h15.494c7.443 0 12.935.489 16.481 1.465 6.555 1.779 10.012 5.377 10.366 10.795v94.616h-15.493v-91.951c-1.783-2.043-4.498-3.065-8.149-3.065-1.157 0-2.226.179-3.205.533v94.483h-15.494v-106.876m58.509.666h19.501c2.672 0 4.963.956 6.879 2.866 1.913 1.911 2.871 4.197 2.871 6.862v11.328h-14.56v-9.861h-9.883v84.62h9.883v-27.851h14.56v44.243h-14.56v-4.931h-14.692c-2.672 0-4.965-.954-6.879-2.865-1.916-1.909-2.871-4.197-2.871-6.862v-87.821c0-2.665.955-4.952 2.871-6.862 1.914-1.91 4.208-2.866 6.879-2.866m50.8 82.089v8.529h20.303v15.459h-35.797v-106.743h35.797v15.459h-20.303v53.305l11.621-.934v13.992l-11.621.933m27.689-82.755h15.494v91.418h22.708v15.459h-38.203v-106.876m36.579.265h15.628v28.252h-10.018v-12.793h-5.61v-15.459m63.986 4.797v18.658h-15.494v-11.328c-1.628-.977-3.207-1.465-4.741-1.465-1.629 0-3.165.488-4.609 1.465v20.254l20.437 3.731c1.87.356 3.072.956 3.606 1.799.535.845.801 2.244.801 4.198v59.971c0 2.754-2.851 4.797-8.548 6.129-3.741.889-7.66 1.333-11.755 1.333-4.453 0-8.372-.444-11.755-1.333-5.342-1.332-8.014-3.552-8.014-6.662v-33.982h15.226v27.718c1.537.889 3.073 1.333 4.609 1.333 1.534 0 3.113-.444 4.741-1.331v-45.477l-20.711-3.916c-2.578-.89-3.865-2.668-3.865-5.335v-35.35c0-2.934 2.759-5.158 8.282-6.669 3.74-1.067 7.701-1.689 11.887-1.868 4.896-.087 9.438.556 13.624 1.932 4.184 1.379 6.278 3.444 6.278 6.196M338.064 3.332h21.771l14.296 106.876h-11.993l-1.07-7.997-16.177 1.331-.668 6.666h-15.375l9.217-106.876zm21.016 85.03l-7.78-59.187-5.222 60.378 13.002-1.191zm35.699-2.275v8.529h20.303v15.459h-35.797v-106.743h35.797v15.459h-20.303v53.305l11.62-.934v13.992l-11.62.933M422.168 3.864h15.227v.133c3.761.179 7.567.266 11.418.266 4.837 1.779 7.657 5.198 8.465 10.262 2.684 15.815 3.803 35.314 3.358 58.501-.09 5.687-2.449 9.775-7.079 12.26l-1.603.666 12.155 25.454-14.498 7.728-11.411-26.652-.805.401v17.858h-15.226v-106.877zm15.226 18.391v50.106l4.886-2.132c2.263-1.244 3.437-2.976 3.53-5.198.355-7.55.401-14.08.134-19.589-.272-5.774-1.221-12.304-2.849-19.589-.453-2.133-1.809-3.332-4.072-3.598h-1.628zm31.517-18.923h15.227v106.876h-15.227v-106.876zm37.955 82.755v8.529h20.303v15.459h-35.798v-106.743h35.798v15.459h-20.303v53.305l11.62-.934v13.992l-11.62.933" sketch:type="MSShapeGroup"/></g></svg>