<svg width="370" height="120" viewBox="0 0 370 120" xmlns="http://www.w3.org/2000/svg" xmlns:sketch="http://www.bohemiancoding.com/sketch/ns"><title>Imported Layers</title><desc>Created with Sketch.</desc><g sketch:type="MSLayerGroup" fill="#fff"><path d="M9.996 3.006h19.663c2.694 0 5.004.964 6.936 2.89 1.929 1.927 2.896 4.233 2.896 6.921v11.559h-14.681v-9.811h-9.966v85.075h9.966v-5.241h14.681v6.99c0 2.688-.967 4.996-2.896 6.921-1.932 1.927-4.243 2.889-6.936 2.889h-19.663c-2.694 0-5.006-.962-6.936-2.889-1.931-1.925-2.895-4.233-2.895-6.921v-88.571c0-2.688.964-4.994 2.895-6.921 1.93-1.926 4.243-2.89 6.936-2.89M54.449 2.334h21.953l14.414 107.79h-12.092l-1.08-8.066-16.311 1.343-.674 6.723h-15.503l9.293-107.79zm21.192 85.757l-7.845-59.693-5.265 60.894 13.11-1.201zm58.527-84.546l-11.581 107.118h-21.147l-11.581-107.104 15.525-1.752 6.628 60.777 6.631-60.792 15.525 1.752m21.294 82.253v8.602h20.471v15.591h-36.096v-107.655h36.096v15.591h-20.471v53.761l11.717-.942v14.112l-11.717.941M183.077 2.872h15.353v.134c3.793.181 7.63.269 11.514.269 4.876 1.794 7.72 5.242 8.535 10.35 2.706 15.95 3.835 35.615 3.385 59.001-.09 5.735-2.47 9.858-7.138 12.365l-1.617.673 12.256 25.671-14.618 7.794-11.506-26.88-.812.404v18.01h-15.353v-107.791zm15.353 18.548v50.534l4.926-2.15c2.282-1.254 3.466-3.001 3.559-5.242.358-7.614.404-14.2.135-19.757-.274-5.824-1.231-12.409-2.873-19.757-.456-2.151-1.824-3.36-4.106-3.629h-1.641zm31.779-19.086h15.623c7.505 0 13.044.493 16.618 1.478 6.611 1.794 10.096 5.423 10.453 10.887v95.425h-15.622v-92.736c-1.798-2.061-4.536-3.091-8.216-3.091-1.168 0-2.246.181-3.232.537v95.29h-15.623v-107.79M279.397 64.159h40.809v15.591h-40.809v-15.591zm43.017-59.002l14.908-4.691 8.866 30.11 8.727-30.108 14.906 4.689-15.57 53.723 14.676 50.155-14.998 4.852-7.809-26.947-7.812 26.947-14.996-4.852 14.678-50.157-15.574-53.721" sketch:type="MSShapeGroup"/></g></svg>