<svg width="357" height="120" viewBox="0 0 357 120" xmlns="http://www.w3.org/2000/svg" xmlns:sketch="http://www.bohemiancoding.com/sketch/ns"><title>Imported Layers</title><desc>Created with Sketch.</desc><g sketch:type="MSLayerGroup" fill="#fff"><path d="M9.893 3.51h22.964l15.077 112.602h-12.649l-1.129-8.426-17.061 1.403-.705 7.023h-16.216l9.721-112.602zm22.166 89.585l-8.205-62.358-5.509 63.613 13.714-1.255zm42.838-72.456v96.455h-16.341v-96.455h-11.694v-16.287h39.869v16.287h-11.834m17.943-17.129h16.342v96.315h23.949v16.287h-40.292v-112.602M150.303 3.51h22.963l15.077 112.602h-12.648l-1.13-8.426-17.061 1.403-.704 7.023h-16.216l9.721-112.602zm22.166 89.585l-8.206-62.358-5.508 63.613 13.714-1.255zm21.255-89.585h16.343c7.849 0 13.643.515 17.383 1.544 6.914 1.874 10.559 5.665 10.932 11.373v99.685h-16.341v-96.876c-1.88-2.153-4.744-3.229-8.594-3.229-1.221 0-2.349.189-3.38.561v99.544h-16.343v-112.602m79.486 17.129v96.455h-16.341v-96.455h-11.694v-16.287h39.869v16.287h-11.834M291.083 3.51h16.061v112.602h-16.061v-112.602zm65.884 5.335v19.658h-16.342v-11.935c-1.717-1.03-3.383-1.544-5-1.544-1.718 0-3.338.514-4.861 1.544v21.339l21.555 3.931c1.973.375 3.24 1.007 3.804 1.895.564.89.845 2.365.845 4.423v63.183c0 2.901-3.007 5.054-9.017 6.457-3.943.936-8.078 1.405-12.397 1.405-4.697 0-8.83-.468-12.398-1.405-5.634-1.404-8.452-3.742-8.452-7.019v-35.803h16.059v29.203c1.621.936 3.241 1.405 4.861 1.405 1.617 0 3.283-.468 5-1.402v-47.913l-21.844-4.126c-2.719-.938-4.077-2.811-4.077-5.621v-37.244c0-3.091 2.91-5.434 8.735-7.026 3.944-1.124 8.121-1.78 12.538-1.968 5.165-.092 9.954.586 14.369 2.036 4.413 1.453 6.621 3.629 6.621 6.528" sketch:type="MSShapeGroup"/></g></svg>