<svg width="422" height="120" viewBox="0 0 422 120" xmlns="http://www.w3.org/2000/svg" xmlns:sketch="http://www.bohemiancoding.com/sketch/ns"><title>Imported Layers</title><desc>Created with Sketch.</desc><g sketch:type="MSLayerGroup" fill="#fff"><path d="M.651 1.287h15.761c7.571 0 13.159.498 16.765 1.491 6.669 1.809 10.184 5.469 10.545 10.981v96.247h-15.76v-93.536c-1.813-2.078-4.576-3.119-8.289-3.119-1.178 0-2.266.183-3.261.543v96.112h-15.761v-108.719m65.411 84.183v8.676h20.652v15.724h-36.413v-108.583h36.413v15.724h-20.652v54.224l11.82-.948v14.232l-11.82.95m72.934-82.963l-11.683 108.041h-21.333l-11.682-108.026 15.661-1.767 6.687 61.3 6.69-61.316 15.662 1.767m21.48 82.965v8.676h20.652v15.724h-36.414v-108.583h36.414v15.724h-20.652v54.224l11.82-.948v14.232l-11.82.95M188.337 1.829h15.488v.136c3.826.182 7.698.271 11.615.271 4.919 1.809 7.789 5.287 8.611 10.439 2.73 16.086 3.869 35.922 3.415 59.51-.091 5.785-2.492 9.943-7.201 12.473l-1.631.678 12.364 25.892-14.747 7.862-11.608-27.112-.819.407v18.164h-15.489v-108.719zm15.489 18.708v50.97l4.97-2.168c2.302-1.264 3.496-3.027 3.591-5.287.361-7.68.407-14.322.136-19.927-.277-5.874-1.242-12.516-2.898-19.927-.46-2.169-1.84-3.389-4.142-3.66h-1.656zm32.126-19.25h15.761v92.995h23.098v15.724h-38.859v-108.719M291.372 1.287h22.146l14.542 108.719h-12.2l-1.09-8.135-16.455 1.355-.679 6.78h-15.64l9.375-108.719zm21.378 86.496l-7.914-60.208-5.312 61.42 13.226-1.212zm20.5-86.496h15.761c7.571 0 13.159.498 16.766 1.491 6.668 1.809 10.184 5.469 10.545 10.981v96.247h-15.761v-93.536c-1.813-2.078-4.576-3.119-8.289-3.119-1.178 0-2.264.183-3.261.543v96.112h-15.761v-108.719" sketch:type="MSShapeGroup"/><path d="M382.526 2.371h.543v-.407l5.79.271c1.974.091 3.951.136 5.926.136h3.231c3.826.182 7.653.271 11.479.271 4.919 1.989 7.789 5.469 8.61 10.439 2.911 17.713 4.05 43.697 3.416 77.946-.091 5.785-2.493 9.943-7.201 12.472-5.434 2.894-10.598 4.881-15.49 5.966-4.076.904-9.51 1.402-16.305 1.491v-108.584zm15.49 13.557l.136 79.438 4.892-2.305c2.174-.993 3.304-2.779 3.396-5.354.089-2.576.226-7.296.409-14.166.089-13.556-.279-26.705-1.103-39.448-.461-5.874-1.105-10.662-1.933-14.369-.553-2.258-1.979-3.526-4.278-3.796h-1.518z" sketch:type="MSShapeGroup"/></g></svg>