<svg width="422" height="120" viewBox="0 0 422 120" xmlns="http://www.w3.org/2000/svg" xmlns:sketch="http://www.bohemiancoding.com/sketch/ns"><title>Imported Layers</title><desc>Created with Sketch.</desc><g sketch:type="MSLayerGroup" fill="#fff"><path d="M28.091 16.971v93.94h-15.917v-93.94h-11.39v-15.862h38.833v15.862h-11.527m17.221-16.682h15.642v84.368l10.977-.957v-83.411h15.919v109.664h-15.919v-11.896l-10.977.82v11.075h-15.642v-109.664m64.831 84.916v8.752h20.857v15.861h-36.776v-109.528h36.776v15.861h-20.857v54.696l11.937-.956v14.356l-11.937.958m125.83 25.571h-28.405c-11.801.184-20.812-1.289-27.033-4.416-3.568-1.782-5.351-4.46-5.351-8.027v-97.222h15.642v94.35c.468 2.28 2.571 3.237 6.313 2.872v-97.222h15.917v94.35c1.647 1.824 3.338 2.734 5.078 2.734.549 0 1.187.048 1.92.138v-97.222h15.919v109.665M251.512.152h20.034c2.746 0 5.099.981 7.067 2.939 1.965 1.962 2.951 4.307 2.951 7.042v90.111c0 2.735-.985 5.083-2.951 7.042-1.969 1.962-4.322 2.941-7.067 2.941h-20.034c-2.836 0-5.214-.958-7.135-2.872-1.922-1.915-2.882-4.285-2.882-7.111v-90.111c0-2.825.96-5.197 2.882-7.11 1.922-1.915 4.3-2.872 7.135-2.872zm4.94 98.315h10.153v-86.83h-10.153v86.83zm31.033-97.631h15.643v.137c3.864.184 7.774.273 11.731.273 4.968 1.825 7.865 5.333 8.696 10.53 2.757 16.226 3.907 36.235 3.449 60.027-.092 5.835-2.516 10.03-7.272 12.581l-1.646.683 12.486 26.117-14.894 7.93-11.723-27.347-.827.41v18.322h-15.642v-109.664zm15.642 18.87v51.413l5.019-2.187c2.325-1.275 3.532-3.053 3.626-5.333.364-7.747.412-14.447.137-20.101-.279-5.925-1.254-12.625-2.927-20.101-.465-2.188-1.859-3.418-4.183-3.692h-1.672zm32.445-19.417h15.918v93.803h23.328v15.861h-39.246v-109.664" sketch:type="MSShapeGroup"/><path d="M381.751 1.383h.549v-.41l5.847.273c1.994.092 3.99.137 5.984.137h3.263c3.863.184 7.729.273 11.592.273 4.968 2.007 7.867 5.517 8.697 10.53 2.94 17.867 4.089 44.077 3.45 78.624-.092 5.835-2.517 10.03-7.272 12.58-5.489 2.92-10.703 4.923-15.643 6.018-4.117.912-9.605 1.414-16.466 1.504v-109.529zm15.643 13.675l.137 80.129 4.94-2.325c2.195-1.002 3.337-2.803 3.429-5.401.09-2.598.228-7.36.413-14.289.09-13.674-.282-26.937-1.115-39.791-.465-5.925-1.115-10.755-1.951-14.494-.558-2.278-1.999-3.556-4.321-3.829h-1.533z" sketch:type="MSShapeGroup"/></g></svg>