<svg width="900" height="174" viewBox="0 0 900 174" xmlns="http://www.w3.org/2000/svg" xmlns:sketch="http://www.bohemiancoding.com/sketch/ns"><title>The World Of X</title><desc>Created with Sketch.</desc><g sketch:type="MSLayerGroup" fill="none"><path d="M813.234.871c-47.61 0-86.206 38.752-86.206 86.555 0 47.803 38.596 86.554 86.206 86.554 47.61 0 86.206-38.751 86.206-86.554 0-47.803-38.596-86.555-86.206-86.555zm58.583 86.555c0 10.814-2.888 21.182-8.294 30.217l-30.096-30.217 30.096-30.218c5.407 9.036 8.294 19.404 8.294 30.218zm-28.847-50.704l-30.022 30.143-29.81-29.931c8.999-5.43 19.325-8.329 30.095-8.329 10.628 0 20.822 2.825 29.736 8.116zm-80.235 80.56c-5.27-8.951-8.084-19.185-8.084-29.856 0-10.671 2.814-20.906 8.084-29.857l29.736 29.857-29.736 29.856zm20.403 20.636l29.81-29.932 30.022 30.143c-8.915 5.291-19.109 8.116-29.736 8.116-10.77 0-21.096-2.898-30.095-8.328z" fill="#D8232A" sketch:type="MSShapeGroup"/><path d="M35.362 38.802v119.514h-20.099v-119.514h-14.38v-20.179h49.033v20.179h-14.554" fill="#fff" sketch:type="MSShapeGroup"/><path d="M57.517 17.579h19.751v107.337l13.862-1.218v-106.119h20.098v139.519h-20.098v-15.134l-13.862 1.044v14.09h-19.751v-139.519" fill="#fff" sketch:type="MSShapeGroup"/><path d="M140.66 125.612v11.133h26.336v20.179h-46.435v-139.345h46.435v20.179h-26.336v69.586l15.074-1.218v18.268l-15.074 1.218" fill="#fff" sketch:type="MSShapeGroup"/><path d="M289.899 158.142h-35.864999999999995c-14.9.235-26.279-1.639-34.133-5.618-4.505-2.267-6.757-5.674-6.757-10.212v-123.689h19.751v120.036c.591 2.9 3.247 4.118 7.971 3.653v-123.689h20.099v120.036c2.079 2.32 4.215 3.479 6.41 3.479.693 0 1.5.059 2.426.174v-123.689h20.098v139.519" fill="#fff" sketch:type="MSShapeGroup"/><path d="M311.384 17.405h25.297c3.465 0 6.438 1.247 8.922 3.741 2.483 2.495 3.725 5.48 3.725 8.959v114.643c0 3.479-1.243 6.467-3.725 8.96-2.485 2.494-5.457 3.74-8.922 3.74h-25.297c-3.581 0-6.584-1.217-9.01-3.653-2.425-2.435-3.638-5.45-3.638-9.046v-114.643c0-3.593 1.213-6.611 3.638-9.046 2.425-2.435 5.429-3.653 9.01-3.653zm6.238 125.081h12.822v-110.468h-12.822v110.468z" fill="#fff" sketch:type="MSShapeGroup"/><path d="M359.378 18.275h19.750999999999998v.174c4.878.234 9.817.348 14.812.348 6.272 2.321 9.933 6.784 10.981 13.394 3.48 20.645 4.932 46.101 4.355 76.371-.117 7.423-3.178 12.76-9.183 16.006l-2.079.87 15.766 33.226-18.807 10.09-14.8-34.792-1.046.522v23.31h-19.751v-139.519zm19.751 24.006v65.411l6.338-2.783c2.934-1.623 4.459-3.885 4.579-6.785.459-9.856.519-18.381.172-25.572-.351-7.538-1.584-16.062-3.696-25.573-.587-2.783-2.347-4.349-5.281-4.697h-2.112z" fill="#fff" sketch:type="MSShapeGroup"/><path d="M419.304 17.579h20.098v119.34h29.456v20.179h-49.554v-139.519" fill="#fff" sketch:type="MSShapeGroup"/><path d="M477.994 18.97h.693v-.521l7.383.348c2.517.115 5.039.173 7.557.173h4.119c4.879.234 9.76.348 14.638.348 6.273 2.552 9.933 7.019 10.981 13.395 3.712 22.732 5.163 56.076 4.356 100.031-.117 7.423-3.179 12.758-9.183 16.004-6.931 3.713-13.514 6.263-19.754 7.655-5.197 1.16-12.128 1.8-20.791 1.913v-139.346zm19.752 17.396l.173 101.945 6.237-2.958c2.775-1.276 4.217-3.566 4.333-6.871.113-3.306.286-9.366.52-18.182.113-17.396-.356-34.27-1.408-50.623-.588-7.537-1.407-13.684-2.464-18.44-.705-2.897-2.524-4.523-5.456-4.871h-1.936z" fill="#fff" sketch:type="MSShapeGroup"/><path d="M586.193 17.405h25.296c3.465 0 6.439 1.247 8.922 3.741 2.485 2.495 3.725 5.48 3.725 8.959v114.643c0 3.479-1.241 6.467-3.725 8.96-2.484 2.494-5.457 3.74-8.922 3.74h-25.296c-3.58 0-6.584-1.217-9.01-3.653-2.426-2.435-3.638-5.45-3.638-9.046v-114.643c0-3.593 1.212-6.611 3.638-9.046 2.425-2.435 5.43-3.653 9.01-3.653zm6.237 125.081h12.823v-110.468h-12.823v110.468z" fill="#fff" sketch:type="MSShapeGroup"/><path d="M654.113 125.612v31.486h-19.752v-139.519h46.261v20.179h-26.509v69.586l15.246-1.218v18.268l-15.246 1.218" fill="#fff" sketch:type="MSShapeGroup"/></g></svg>