<?xml version="1.0" encoding="UTF-8" standalone="no"?>
<svg width="400px" height="598px" viewBox="0 0 400 598" version="1.1" xmlns="http://www.w3.org/2000/svg" xmlns:xlink="http://www.w3.org/1999/xlink" xmlns:sketch="http://www.bohemiancoding.com/sketch/ns">
    <!-- Generator: Sketch 3.0.4 (8053) - http://www.bohemiancoding.com/sketch -->
    <title>Map Marker</title>
    <desc>Created with Sketch.</desc>
    <defs></defs>
    <g id="Logos" stroke="none" stroke-width="1" fill="none" fill-rule="evenodd" sketch:type="MSPage">
        <g id="Landscape-Retina" sketch:type="MSArtboardGroup" transform="translate(-66.000000, -885.000000)" fill="#FFFFFF">
            <path d="M465.955385,1085.33771 C465.955385,974.693835 376.421538,885 265.978462,885 C155.533846,885 66,974.693835 66,1085.33771 C66,1171.88588 120.786154,1245.61249 197.509231,1273.6214 L216.703077,1332.01425 L265.978462,1482.26945 L315.252308,1332.01425 L334.452308,1273.61831 C411.172308,1245.60941 465.955385,1171.88434 465.955385,1085.33771 L465.955385,1085.33771 Z M265.978462,949.194067 C290.630769,949.194067 314.278462,955.731995 334.958462,967.980206 L265.315385,1037.74893 L196.161538,968.47032 C217.038462,955.903072 240.993846,949.194067 265.978462,949.194067 L265.978462,949.194067 Z M217.812308,1085.33771 L148.832308,1154.44215 C136.606154,1133.72485 130.08,1110.03449 130.08,1085.33771 C130.08,1060.63938 136.606154,1036.94903 148.832308,1016.23172 L217.812308,1085.33771 L217.812308,1085.33771 Z M265.315385,1132.92648 L334.958462,1202.69521 C314.278462,1214.94188 290.630769,1221.48135 265.978462,1221.48135 C240.993846,1221.48135 217.038462,1214.7708 196.161538,1202.20355 L265.315385,1132.92648 L265.315385,1132.92648 Z M312.818462,1085.33771 L382.635385,1015.39637 C395.178462,1036.30941 401.876923,1060.30802 401.876923,1085.33771 C401.876923,1110.3674 395.178462,1134.36446 382.633846,1155.27905 L312.818462,1085.33771 L312.818462,1085.33771 Z" id="Map-Marker" sketch:type="MSShapeGroup"></path>
        </g>
    </g>
</svg>